<svg xmlns="http://www.w3.org/2000/svg" width="23" height="27" fill="none" viewBox="0 0 23 27"><path fill="#566677" d="M22.2952 9.7949L13.2051 0.704836C12.2654 -0.234919 10.7362 -0.234972 9.79642 0.704836C8.9516 1.5496 8.87885 2.83798 9.50271 3.75797L9.49006 3.82124C8.8347 7.09833 7.2392 10.0796 4.87594 12.4428L0.706564 16.6122C-0.235441 17.5543 -0.235602 19.0789 0.706564 20.0209L2.97901 22.2934C3.92097 23.2354 5.44568 23.2354 6.38774 22.2934L6.95588 21.7252L10.9328 25.7021C11.8748 26.6442 13.3994 26.6442 14.3414 25.7021C15.2812 24.7624 15.2812 23.2332 14.3414 22.2934L12.6371 20.5891L13.2052 20.0209C14.1472 19.079 14.1473 17.5544 13.2052 16.6123L12.8191 16.2261C14.7184 14.8964 16.8754 13.9706 19.1789 13.5099L19.2429 13.4971C20.1834 14.132 21.4688 14.03 22.2952 13.2035H22.2953C23.2349 12.2638 23.2349 10.7347 22.2952 9.7949ZM5.25152 21.1572C4.93755 21.4711 4.42921 21.4711 4.11524 21.1571L1.84279 18.8847C1.52877 18.5706 1.52877 18.0624 1.84279 17.7484L5.8196 13.7716L9.22833 17.1803C8.83925 17.5694 5.65019 20.7584 5.25152 21.1572ZM13.2051 23.4296C13.5184 23.7428 13.5184 24.2526 13.2051 24.5658C12.8919 24.879 12.3821 24.879 12.0689 24.5658L8.09205 20.589L9.22833 19.4527L13.2051 23.4296ZM10.3646 18.3165C10.6061 18.075 10.9676 17.705 11.5382 17.2177L12.0689 17.7484C12.3829 18.0624 12.3829 18.5706 12.0689 18.8847L11.5008 19.4528L10.3646 18.3165ZM10.3987 16.0782L6.92159 12.6011C8.78498 10.4495 10.1194 7.90966 10.8333 5.1504L17.8494 12.1665C15.0902 12.8804 12.5504 14.2148 10.3987 16.0782ZM21.1588 12.0672C20.8448 12.3812 20.3366 12.3812 20.0226 12.0672L10.9326 2.97729C10.6186 2.66321 10.6186 2.15508 10.9326 1.84106C11.2467 1.52704 11.7549 1.52704 12.0689 1.84106L21.1588 10.931C21.472 11.2442 21.472 11.7539 21.1588 12.0672Z"/></svg>