<svg width="24" height="24" viewBox="0 0 24 24" fill="none" xmlns="http://www.w3.org/2000/svg">
<g clip-path="url(#clip0)">
<path d="M23.347 20.5975L20.0205 17.271V0H3.47395V3.92641L0.0700684 4.87429L3.47395 17.0981V20.9369H4.5429L5.38926 23.9763L16.3043 20.9369H18.0474L20.5275 23.417C20.9162 23.8057 21.4267 24 21.9373 24C22.4479 24 22.9584 23.8056 23.347 23.417C24.1243 22.6396 24.1243 21.3748 23.347 20.5975ZM1.80332 5.85247L3.4739 5.38725V11.8519L1.80332 5.85247ZM6.36743 22.243L6.00374 20.9368H11.058L6.36743 22.243ZM4.88126 19.5295V1.40732H18.6132V15.8636L16.3067 13.5571H16.6429V12.1498H14.8993L13.3982 10.6487H16.6429V9.24138H10.7235L8.25427 8.32423L8.59494 9.24138H7.0732V10.6487H9.11766L9.67524 12.1498H7.0732V13.5571H10.6677L12.1688 15.0583H7.07316V16.4656H13.5761L16.64 19.5295H4.88126ZM11.1327 12.0319L10.6426 10.7126L11.9619 11.2026L20.9421 20.1828L20.5275 20.5975L20.1128 21.0121L11.1327 12.0319ZM22.3519 22.4219C22.1232 22.6505 21.7512 22.6505 21.5226 22.4219L21.1079 22.0072L21.5226 21.5926L21.9372 21.178L22.3518 21.5926C22.5805 21.8212 22.5805 22.1932 22.3519 22.4219Z" fill="#5F6E84"/>
<path d="M7.16699 3.42383H12.4679V4.83115H7.16699V3.42383Z" fill="#5F6E84"/>
<path d="M7.16699 6.33203H16.6429V7.73935H7.16699V6.33203Z" fill="#5F6E84"/>
</g>
<defs>
<clipPath id="clip0">
<rect width="24" height="24" fill="white"/>
</clipPath>
</defs>
</svg>
