<svg width="24" height="24" viewBox="0 0 24 24" fill="none" xmlns="http://www.w3.org/2000/svg">
<g clip-path="url(#clip0)">
<path d="M20.1758 8.4727H15.5574C15.7998 8.05641 15.9395 7.57317 15.9395 7.05764C15.9395 5.50195 14.6738 4.23633 13.1181 4.23633C12.2749 4.23633 11.5174 4.60866 11 5.19703C10.4825 4.60866 9.72505 4.23633 8.88177 4.23633C7.32608 4.23633 6.06045 5.50195 6.06045 7.05764C6.06045 7.57312 6.20009 8.05636 6.44253 8.4727H1.82422V12.7032H3.23633V24H18.7637V12.7032H20.1758V8.4727ZM13.1182 5.64262C13.8985 5.64262 14.5333 6.27741 14.5333 7.05769C14.5333 7.83797 13.8985 8.47275 13.1182 8.47275H13.1153H11.7031V7.05769C11.7031 6.27741 12.3379 5.64262 13.1182 5.64262V5.64262ZM11.709 11.2969H10.291V9.87895H10.2969H11.7031H11.709V11.2969ZM7.4668 7.05764C7.4668 6.27736 8.10158 5.64258 8.88186 5.64258C9.66214 5.64258 10.2969 6.27741 10.2969 7.05764V8.4727H8.88477H8.88186C8.10158 8.4727 7.4668 7.83792 7.4668 7.05764ZM3.23047 11.2969V9.87895H8.88181H8.88472V11.2969H3.23628H3.23047ZM4.64258 22.5938V12.7032H8.88477V22.5938H4.64258ZM10.291 22.5938V12.7032H11.709V22.5938H10.291ZM17.3574 22.5938H13.1152V12.7032H17.3574V22.5938ZM18.7695 11.2969H18.7637H13.1152V9.87895H13.1181H18.7695V11.2969Z" fill="#566677"/>
<path d="M5.65234 1.49414L6.88563 0.819141L8.01626 2.88489L6.78297 3.55989L5.65234 1.49414Z" fill="#566677"/>
<path d="M13.9805 2.89258L15.1111 0.826833L16.3444 1.50183L15.2138 3.56758L13.9805 2.89258Z" fill="#566677"/>
<path d="M10.2969 0H11.7031V1.74023H10.2969V0Z" fill="#566677"/>
<path d="M17.7969 4.25L19.0272 3.01965L20.0214 4.01387L18.7911 5.24422L17.7969 4.25Z" fill="#566677"/>
<path d="M2.05859 4.01172L3.05281 3.0175L4.28316 4.24785L3.28894 5.24206L2.05859 4.01172Z" fill="#566677"/>
</g>
<defs>
<clipPath id="clip0">
<rect width="24" height="24" fill="white"/>
</clipPath>
</defs>
</svg>
