<svg width="25" height="24" viewBox="0 0 25 24" fill="none" xmlns="http://www.w3.org/2000/svg">
<path d="M7.3645 0.0463181C6.55808 0.205728 5.87355 0.89963 5.71883 1.72481C5.65788 2.06238 5.65788 6.41334 5.71883 6.75091C5.87824 7.59485 6.55808 8.27468 7.40201 8.43409C7.54267 8.45753 8.15687 8.48098 8.77106 8.48098H9.89162V9.18426V9.88754H9.46965C9.13677 9.88754 9.00549 9.90629 8.86014 9.98131C8.64916 10.0891 8.48506 10.3564 8.48506 10.5908C8.48506 10.8252 8.64916 11.0925 8.86014 11.2003C9.02893 11.2847 9.13208 11.2941 10.1729 11.2941H11.2982V11.9974V12.7007H8.04434C6.02827 12.7007 4.69673 12.7194 4.54201 12.7475C3.69808 12.9069 3.01824 13.5868 2.85883 14.4307C2.83539 14.5714 2.81194 14.8714 2.81194 15.0965V15.5138H2.39467C2.16962 15.5138 1.86955 15.5372 1.72889 15.5607C0.88496 15.7201 0.205123 16.3999 0.0457131 17.2438C-0.0152377 17.572 -0.0152377 19.0817 0.0457131 19.4099C0.205123 20.2539 0.88496 20.9337 1.72889 21.0931C1.86955 21.1166 2.16962 21.14 2.39467 21.14H2.81194V21.8667V22.5934H2.38998C2.05709 22.5934 1.92581 22.6122 1.78047 22.6872C1.56948 22.795 1.40539 23.0623 1.40539 23.2967C1.40539 23.5311 1.56948 23.7984 1.78047 23.9062C1.95394 23.9953 2.0524 24 3.51522 24C4.97804 24 5.0765 23.9953 5.24998 23.9062C5.46096 23.7984 5.62506 23.5311 5.62506 23.2967C5.62506 23.0623 5.46096 22.795 5.24998 22.6872C5.10463 22.6122 4.97336 22.5934 4.64047 22.5934H4.2185V21.8667V21.14H4.63578C4.86083 21.14 5.1609 21.1166 5.30155 21.0931C6.14549 20.9337 6.82532 20.2539 6.98473 19.4099C7.04568 19.0817 7.04568 17.572 6.98473 17.2438C6.82532 16.3999 6.14549 15.7201 5.30155 15.5607C5.1609 15.5372 4.86083 15.5138 4.63578 15.5138H4.2185V15.0918C4.2185 14.5667 4.31227 14.3463 4.59358 14.201C4.77175 14.1119 4.86083 14.1072 8.03965 14.1072H11.2982V14.8105V15.5138H10.8809C10.6559 15.5138 10.3558 15.5372 10.2151 15.5607C9.37119 15.7201 8.69136 16.3999 8.53195 17.2438C8.471 17.572 8.471 19.0817 8.53195 19.4099C8.69136 20.2539 9.37119 20.9337 10.2151 21.0931C10.3558 21.1166 10.6559 21.14 10.8809 21.14H11.2982V21.8667V22.5934H10.8762C10.5433 22.5934 10.412 22.6122 10.2667 22.6872C10.0557 22.795 9.89162 23.0623 9.89162 23.2967C9.89162 23.5311 10.0557 23.7984 10.2667 23.9062C10.4402 23.9953 10.5386 24 12.0015 24C13.4643 24 13.5627 23.9953 13.7362 23.9062C13.9472 23.7984 14.1113 23.5311 14.1113 23.2967C14.1113 23.0623 13.9472 22.795 13.7362 22.6872C13.5909 22.6122 13.4596 22.5934 13.1267 22.5934H12.7047V21.8667V21.14H13.122C13.3471 21.14 13.6471 21.1166 13.7878 21.0931C14.6317 20.9337 15.3116 20.2539 15.471 19.4099C15.5319 19.0817 15.5319 17.572 15.471 17.2438C15.3116 16.3999 14.6317 15.7201 13.7878 15.5607C13.6471 15.5372 13.3471 15.5138 13.122 15.5138H12.7047V14.8105V14.1072H15.9633C19.1421 14.1072 19.2312 14.1119 19.4093 14.201C19.6906 14.3463 19.7844 14.5667 19.7844 15.0918V15.5138H19.3671C19.1421 15.5138 18.842 15.5372 18.7014 15.5607C17.8574 15.7201 17.1776 16.3999 17.0182 17.2438C16.9572 17.572 16.9572 19.0817 17.0182 19.4099C17.1776 20.2539 17.8574 20.9337 18.7014 21.0931C18.842 21.1166 19.1421 21.14 19.3671 21.14H19.7844V21.8667V22.5934H19.3624C19.0296 22.5934 18.8983 22.6122 18.7529 22.6872C18.542 22.795 18.3779 23.0623 18.3779 23.2967C18.3779 23.5311 18.542 23.7984 18.7529 23.9062C18.9264 23.9953 19.0249 24 20.4877 24C21.9505 24 22.049 23.9953 22.2224 23.9062C22.4334 23.7984 22.5975 23.5311 22.5975 23.2967C22.5975 23.0623 22.4334 22.795 22.2224 22.6872C22.0771 22.6122 21.9458 22.5934 21.6129 22.5934H21.191V21.8667V21.14H21.6083C21.8333 21.14 22.1334 21.1166 22.274 21.0931C23.118 20.9337 23.7978 20.2539 23.9572 19.4099C24.0182 19.0817 24.0182 17.572 23.9572 17.2438C23.8353 16.6062 23.3852 16.0108 22.8226 15.7482C22.4522 15.5747 22.1381 15.5138 21.6083 15.5138H21.191V15.0965C21.191 14.5667 21.13 14.2526 20.9565 13.8822C20.694 13.3195 20.0985 12.8694 19.4609 12.7475C19.3062 12.7194 17.9746 12.7007 15.9586 12.7007H12.7047V11.9974V11.2941H13.83C14.8708 11.2941 14.974 11.2847 15.1428 11.2003C15.3538 11.0925 15.5179 10.8252 15.5179 10.5908C15.5179 10.3564 15.3538 10.0891 15.1428 9.98131C14.9974 9.90629 14.8661 9.88754 14.5333 9.88754H14.1113V9.18426V8.48098H15.2319C15.8461 8.48098 16.4602 8.45753 16.6009 8.43409C17.4448 8.27468 18.1247 7.59485 18.2841 6.75091C18.345 6.41334 18.345 2.06238 18.2841 1.72481C18.1247 0.880876 17.4448 0.201039 16.6009 0.0416296C16.2915 -0.0146328 7.66457 -0.0146328 7.3645 0.0463181ZM16.5493 1.49507C16.6712 1.55602 16.7697 1.65448 16.8306 1.77638C16.9197 1.95455 16.9244 2.04832 16.9244 4.23786C16.9244 6.4274 16.9197 6.52117 16.8306 6.69934C16.7697 6.82124 16.6712 6.9197 16.5493 6.98065C16.3712 7.07442 16.2821 7.07442 12.0015 7.07442C7.72083 7.07442 7.63175 7.07442 7.45359 6.98065C7.33168 6.9197 7.23323 6.82124 7.17227 6.69934C7.08319 6.52117 7.0785 6.4274 7.0785 4.23786C7.0785 2.04832 7.08319 1.95455 7.17227 1.77638C7.22854 1.66386 7.33637 1.55602 7.44421 1.49976C7.613 1.40599 7.73021 1.40599 11.9921 1.4013C16.2868 1.4013 16.3712 1.4013 16.5493 1.49507ZM12.7047 9.18426V9.88754H12.0015H11.2982V9.18426V8.48098H12.0015H12.7047V9.18426ZM5.24998 17.0141C5.57818 17.1829 5.62506 17.3423 5.62506 18.3269C5.62506 19.3115 5.57818 19.4709 5.24998 19.6397C5.0765 19.7288 4.97804 19.7334 3.51522 19.7334C2.0524 19.7334 1.95394 19.7288 1.78047 19.6397C1.45227 19.4709 1.40539 19.3115 1.40539 18.3269C1.40539 17.3517 1.45227 17.1829 1.77109 17.0188C1.93519 16.9297 2.04303 16.925 3.50585 16.9203C4.97804 16.9203 5.0765 16.925 5.24998 17.0141ZM13.7362 17.0141C14.0644 17.1829 14.1113 17.3423 14.1113 18.3269C14.1113 19.3115 14.0644 19.4709 13.7362 19.6397C13.5627 19.7288 13.4643 19.7334 12.0015 19.7334C10.5386 19.7334 10.4402 19.7288 10.2667 19.6397C9.93851 19.4709 9.89162 19.3115 9.89162 18.3269C9.89162 17.3517 9.93851 17.1829 10.2573 17.0188C10.4214 16.9297 10.5293 16.925 11.9921 16.9203C13.4643 16.9203 13.5627 16.925 13.7362 17.0141ZM22.2224 17.0141C22.5506 17.1829 22.5975 17.3423 22.5975 18.3269C22.5975 19.3115 22.5506 19.4709 22.2224 19.6397C22.049 19.7288 21.9505 19.7334 20.4877 19.7334C19.0249 19.7334 18.9264 19.7288 18.7529 19.6397C18.4247 19.4709 18.3779 19.3115 18.3779 18.3269C18.3779 17.3517 18.4247 17.1829 18.7436 17.0188C18.9077 16.9297 19.0155 16.925 20.4783 16.9203C21.9505 16.9203 22.049 16.925 22.2224 17.0141Z" fill="#5F6E84"/>
</svg>
