<svg xmlns="http://www.w3.org/2000/svg" width="18" height="18" fill="none" viewBox="0 0 18 18"><g clip-path="url(#clip0)"><path fill="#5F6E84" d="M12.8571 3.21484H1.92857C0.863449 3.21484 0 4.07829 0 5.14341V16.072C0 17.1371 0.863449 18.0005 1.92857 18.0005H12.8571C13.9222 18.0005 14.7857 17.1371 14.7857 16.072V5.14341C14.7857 4.07829 13.9222 3.21484 12.8571 3.21484ZM13.5 16.072C13.5 16.4271 13.2122 16.7149 12.8571 16.7149H1.92857C1.57352 16.7149 1.2857 16.4271 1.2857 16.072V5.14341C1.2857 4.78836 1.57352 4.50054 1.92857 4.50054H12.8571C13.2122 4.50054 13.5 4.78836 13.5 5.14341V16.072Z"/><path fill="#5F6E84" d="M16.0718 0H4.50035C3.43523 0 2.57178 0.86345 2.57178 1.92857C2.57178 2.28362 2.85959 2.57144 3.21465 2.57144C3.5697 2.57144 3.85748 2.28362 3.85748 1.92857C3.85748 1.57352 4.14529 1.2857 4.50035 1.2857H16.0718C16.4268 1.2857 16.7146 1.57352 16.7146 1.92857V13.5C16.7146 13.855 16.4268 14.1429 16.0718 14.1429C15.7167 14.1429 15.4289 14.4307 15.4289 14.7857C15.4289 15.1408 15.7167 15.4286 16.0718 15.4286C17.1369 15.4286 18.0003 14.5652 18.0003 13.5V1.92857C18.0003 0.86345 17.1369 0 16.0718 0Z"/></g><defs><clipPath id="clip0"><rect width="18" height="18" fill="#fff"/></clipPath></defs></svg>