<svg xmlns="http://www.w3.org/2000/svg" width="24" height="24" fill="none" viewBox="0 0 24 24"><g clip-path="url(#clip0)"><path fill="#838383" d="M15.3104 8.69531C14.9999 8.69531 14.7483 8.94692 14.7483 9.25737V19.8803C14.7483 20.1906 14.9999 20.4424 15.3104 20.4424C15.6208 20.4424 15.8724 20.1906 15.8724 19.8803V9.25737C15.8724 8.94692 15.6208 8.69531 15.3104 8.69531Z"/><path fill="#838383" d="M8.67827 8.69531C8.36782 8.69531 8.11621 8.94692 8.11621 9.25737V19.8803C8.11621 20.1906 8.36782 20.4424 8.67827 20.4424C8.98872 20.4424 9.24033 20.1906 9.24033 19.8803V9.25737C9.24033 8.94692 8.98872 8.69531 8.67827 8.69531Z"/><path fill="#838383" d="M3.84365 7.14503V20.993C3.84365 21.8115 4.14378 22.5801 4.66808 23.1317C5.18996 23.6847 5.91625 23.9987 6.67634 24H17.3107C18.071 23.9987 18.7973 23.6847 19.3189 23.1317C19.8432 22.5801 20.1434 21.8115 20.1434 20.993V7.14503C21.1856 6.86839 21.8609 5.86152 21.7215 4.79207C21.5819 3.72284 20.671 2.923 19.5925 2.92278H16.7148V2.22021C16.7181 1.62939 16.4845 1.06206 16.0662 0.644685C15.648 0.227532 15.0798 -0.00475635 14.489 7.385e-05H9.49806C8.90724 -0.00475635 8.33903 0.227532 7.92078 0.644685C7.50253 1.06206 7.26892 1.62939 7.27221 2.22021V2.92278H4.39452C3.31606 2.923 2.40513 3.72284 2.2655 4.79207C2.12608 5.86152 2.80143 6.86839 3.84365 7.14503ZM17.3107 22.8759H6.67634C5.71536 22.8759 4.96777 22.0504 4.96777 20.993V7.19443H19.0193V20.993C19.0193 22.0504 18.2717 22.8759 17.3107 22.8759ZM8.39633 2.22021C8.3926 1.92754 8.50765 1.64585 8.71535 1.43925C8.92282 1.23265 9.20517 1.11914 9.49806 1.12419H14.489C14.7819 1.11914 15.0642 1.23265 15.2717 1.43925C15.4794 1.64563 15.5944 1.92754 15.5907 2.22021V2.92278H8.39633V2.22021ZM4.39452 4.0469H19.5925C20.1513 4.0469 20.6042 4.49984 20.6042 5.05861C20.6042 5.61737 20.1513 6.07031 19.5925 6.07031H4.39452C3.83575 6.07031 3.38281 5.61737 3.38281 5.05861C3.38281 4.49984 3.83575 4.0469 4.39452 4.0469Z"/><path fill="#838383" d="M11.9944 8.69531C11.684 8.69531 11.4324 8.94692 11.4324 9.25737V19.8803C11.4324 20.1906 11.684 20.4424 11.9944 20.4424C12.3049 20.4424 12.5565 20.1906 12.5565 19.8803V9.25737C12.5565 8.94692 12.3049 8.69531 11.9944 8.69531Z"/></g><defs><clipPath id="clip0"><rect width="24" height="24" fill="#fff"/></clipPath></defs></svg>