<svg xmlns="http://www.w3.org/2000/svg" width="24" height="27" fill="none" viewBox="0 0 24 27"><path fill="#566677" d="M4.941 22.8479C1.836 20.6069 0 16.9619 0 13.1549C0 6.56691 5.373 1.19391 11.961 1.19391V0.140906C11.961 0.0329056 12.096 -0.0480944 12.177 0.0329056L14.985 1.97691C15.066 2.03091 15.066 2.13891 14.985 2.19291L12.177 4.13691C12.096 4.19091 11.961 4.13691 11.961 4.02891V2.97591C6.345 2.97591 1.782 7.53891 1.782 13.1549C1.782 16.3949 3.348 19.4999 5.994 21.3899L4.941 22.8479ZM18.981 3.46191L17.928 4.89291C20.574 6.80991 22.14 9.91491 22.14 13.1549C22.14 18.7709 17.577 23.3339 11.961 23.3339V22.2809C11.961 22.1729 11.826 22.0919 11.745 22.1729L8.937 24.1169C8.856 24.1709 8.856 24.2789 8.937 24.3329L11.745 26.2769C11.826 26.3309 11.961 26.2769 11.961 26.1689V25.1159C18.549 25.1159 23.922 19.7429 23.922 13.1549C23.922 9.34791 22.086 5.70291 18.981 3.46191ZM6.129 17.2859L6.939 16.1519C6.642 15.6659 6.453 15.1799 6.318 14.6669L4.914 14.4239C4.644 14.3699 4.455 14.1539 4.455 13.9109V13.2089V12.5069C4.455 12.2369 4.644 12.0209 4.914 11.9669L6.291 11.7509C6.426 11.2379 6.615 10.7249 6.912 10.2389L6.075 9.07791C5.913 8.86191 5.94 8.56491 6.129 8.37591L6.615 7.88991L7.101 7.40391C7.29 7.21491 7.587 7.18791 7.803 7.34991L8.937 8.15991C9.423 7.86291 9.936 7.64691 10.476 7.51191L10.719 6.10791C10.773 5.83791 10.989 5.64891 11.232 5.64891H11.934H12.636C12.906 5.64891 13.122 5.83791 13.176 6.10791L13.419 7.51191C13.932 7.64691 14.445 7.86291 14.931 8.13291L16.092 7.32291C16.308 7.18791 16.578 7.18791 16.767 7.37691L17.253 7.86291L17.739 8.34891C17.928 8.53791 17.955 8.83491 17.793 9.05091L16.983 10.2119C17.253 10.6979 17.469 11.1839 17.604 11.7239L19.008 11.9669C19.278 12.0209 19.467 12.2369 19.467 12.4799V13.1819V13.8839C19.467 14.1539 19.278 14.3699 19.008 14.4239L17.631 14.6129C17.496 15.1259 17.28 15.6389 17.01 16.1249L17.82 17.2859C17.982 17.5019 17.955 17.7989 17.766 17.9879L17.28 18.4739L16.794 18.9599C16.605 19.1489 16.308 19.1759 16.092 19.0139L14.931 18.2039C14.472 18.4739 13.959 18.6899 13.473 18.8249L13.23 20.2289C13.176 20.4989 12.96 20.6879 12.717 20.6879H12.015H11.313C11.043 20.6879 10.827 20.4989 10.773 20.2289L10.557 18.8249C10.044 18.6899 9.531 18.5009 9.045 18.2039L7.884 19.0409C7.668 19.2029 7.371 19.1759 7.182 18.9869L6.696 18.5009L6.21 18.0149C6.021 17.7989 5.994 17.5019 6.129 17.2859ZM9.774 13.5059L11.826 16.0169C11.907 16.0979 12.015 16.0979 12.096 16.0169L14.148 13.5059C14.229 13.4249 14.148 13.2899 14.04 13.2899H12.96V10.4549C12.96 10.3199 12.852 10.2389 12.744 10.2389H11.151C11.016 10.2389 10.935 10.3469 10.935 10.4549V13.2629H9.855C9.747 13.2629 9.693 13.3979 9.774 13.5059Z"/></svg>