<svg xmlns="http://www.w3.org/2000/svg" width="24" height="24" fill="none" viewBox="0 0 24 24"><path fill="#5F6E84" d="M21.428 0H10.2851C8.86494 0 7.71367 1.15127 7.71367 2.57143V7.71428C7.71367 8.18768 8.09743 8.57144 8.57083 8.57144C9.04424 8.57144 9.42799 8.18768 9.42799 7.71428V2.57143C9.42799 2.09802 9.81175 1.71427 10.2852 1.71427H21.428C21.9014 1.71427 22.2852 2.09802 22.2852 2.57143V21.4286C22.2852 21.902 21.9014 22.2857 21.428 22.2857H10.2851C9.8117 22.2857 9.42794 21.902 9.42794 21.4286V16.2857C9.42794 15.8123 9.04419 15.4286 8.57078 15.4286C8.09738 15.4286 7.71362 15.8123 7.71362 16.2857V21.4286C7.71362 22.8487 8.86489 24 10.285 24H21.4279C22.8481 24 23.9993 22.8487 23.9993 21.4286V2.57143C23.9994 1.15127 22.8481 0 21.428 0Z"/><path fill="#5F6E84" d="M17.1423 11.1423H2.92576L5.74836 8.31975C6.07722 7.97924 6.06778 7.43663 5.72726 7.10777C5.39509 6.78699 4.8685 6.78699 4.53637 7.10777L0.250625 11.3935C0.171021 11.4731 0.108091 11.5678 0.0655022 11.672C-0.021183 11.8817 -0.021183 12.1172 0.0655022 12.3269C0.108292 12.4315 0.171523 12.5265 0.251479 12.6063L4.53717 16.892C4.86603 17.2325 5.40865 17.242 5.74916 16.9131C6.08967 16.5843 6.09911 16.0417 5.77025 15.7011C5.76337 15.694 5.75634 15.687 5.74916 15.68L2.92576 12.8566H17.1423C17.6157 12.8566 17.9995 12.4729 17.9995 11.9994C17.9995 11.526 17.6157 11.1423 17.1423 11.1423Z"/></svg>