<svg xmlns="http://www.w3.org/2000/svg" width="683" height="683" fill="none" viewBox="0 0 683 683"><g clip-path="url(#clip0_1_3)"><path fill="#566677" d="M79.3333 2.26663C40.6667 10.5333 10.1333 41.4666 2.13333 80.2666C-2.13334 100.933 0.399995 112.133 10.6667 117.333C15.7333 119.867 18.4 120 87.7333 120H159.733L159.067 128.933C155.6 181.733 146.267 233.067 123.333 324.933C91.3333 454.133 82.6667 502.933 80.4 565.867C79.4667 592.667 81.2 605.333 87.6 620.533C97.6 644.4 118.267 665.067 142 675.067C160.8 682.933 151.067 682.667 381.333 682.667C608.8 682.667 601.067 682.933 619.2 675.867C630.267 671.467 644 662.133 653.2 652.933C671.067 634.8 680.267 614.533 682.267 589.6C683.2 576.533 680.267 569.6 672 565.333C666.933 562.8 664.267 562.667 594.667 562.667H522.533L523.2 558.267C523.6 556 524.267 548 524.667 540.667C527.2 498.8 537.6 444.4 561.067 350C590.933 230.533 600.133 178.267 602.133 117.333C602.933 96.8 602.667 90.8 600.8 81.4666C592.533 41.0666 562.133 10.4 522.4 2.1333C513.2 0.266631 489.067 -3.56039e-05 300.4 0.133298C117.6 0.266631 87.3333 0.533298 79.3333 2.26663ZM114.267 41.8666C124.133 44.5333 132.8 49.2 140.133 55.6C146.4 61.3333 153.6 71.4666 155.333 76.9333L156.133 80H100H43.8667L44.6667 76.9333C46.4 71.3333 53.6 61.3333 60.1333 55.4666C74.8 42.2666 95.8667 36.9333 114.267 41.8666ZM514.933 41.4666C537.867 46.4 556.267 64.8 561.2 87.7333C564.933 105.067 560.8 159.067 551.867 209.333C547.067 236.8 540.133 267.467 524 333.333C496.933 444.133 489.2 483.867 485.333 532.133C484.533 542.667 483.467 553.867 483.2 556.933L482.533 562.667H369.2C258.267 562.667 255.733 562.667 250.667 565.333C244.533 568.4 240 576.133 240 583.2C240 590.933 237.2 601.6 233.067 609.867C221.6 632.533 195.6 645.867 170.8 641.6C157.467 639.333 147.333 634.133 138 624.667C122.8 609.6 119.2 596.933 120.533 564C122.8 508.133 130.4 464.8 158 352C191.333 215.867 198.933 171.467 199.2 110.667L199.333 82L194.933 69.3333C192.533 62.4 188.133 52.9333 185.333 48.2666L180.133 40H344C461.067 40 509.867 40.4 514.933 41.4666ZM638.667 603.467C638.667 603.867 636.8 607.867 634.4 612.267C629.6 621.333 619.333 631.2 610.133 635.867C595.867 642.933 602.267 642.667 425.067 642.667H260L264.533 635.6C269.6 627.6 275.467 614 276.8 607.2L277.6 602.667H458.133C557.467 602.667 638.667 603.067 638.667 603.467Z"/><path fill="#566677" d="M250.4 162.8C244.667 165.733 240 173.6 240 180C240 186.667 244.667 194.267 250.667 197.333C255.733 200 258.267 200 378 200C497.733 200 500.267 200 505.333 197.333C511.333 194.267 516 186.667 516 180C516 173.333 511.333 165.733 505.333 162.667C500.267 160 497.867 160 377.733 160C258.533 160.133 255.2 160.133 250.4 162.8Z"/><path fill="#566677" d="M232.267 242.267C225.333 245.6 222 251.467 222 260C222 265.467 222.8 268.4 224.933 271.467C231.333 280.4 224 280 360.533 280C479.2 280 484.267 279.867 489.067 277.467C494.8 274.533 500 266.267 500 260C500 253.733 494.8 245.467 489.067 242.533C484.267 240.133 479.2 240 360.4 240C249.2 240 236.267 240.267 232.267 242.267Z"/><path fill="#566677" d="M213.6 322.267C206.667 325.6 203.333 331.467 203.333 340C203.333 345.467 204.133 348.4 206.267 351.467C212.667 360.4 205.333 360 341.333 360C477.333 360 470 360.4 476.4 351.467C480.533 345.733 480.533 334.267 476.4 328.533C470 319.6 477.333 320 341.067 320C230.4 320 217.6 320.267 213.6 322.267Z"/><path fill="#566677" d="M192.8 403.2C179.467 411.2 179.733 429.6 193.333 437.2C198.4 440 198.533 440 322.133 440H446L451.2 436.933C464.8 429.2 464.267 408.8 450.133 402.133C446 400.267 433.333 400 321.733 400H198L192.8 403.2Z"/></g><defs><clipPath id="clip0_1_3"><rect width="682.667" height="682.667" fill="#fff"/></clipPath></defs></svg>