<svg width="24" height="24" viewBox="0 0 24 24" fill="none" xmlns="http://www.w3.org/2000/svg">
<g clip-path="url(#clip0)">
<path d="M5.37195 23.5154C5.10901 23.5154 4.84789 23.4333 4.62505 23.2722C4.20994 22.9713 4.01602 22.4542 4.129 21.9553L5.67299 15.154L0.436769 10.562C0.0518713 10.226 -0.0951661 9.69384 0.062858 9.20695C0.220882 8.72097 0.650825 8.37691 1.15987 8.32985L8.08803 7.70087L10.8272 1.29073C11.0291 0.819771 11.4891 0.515625 12.0002 0.515625C12.5112 0.515625 12.9712 0.819771 13.1732 1.28963L15.9123 7.70087L22.8394 8.32985C23.3495 8.37581 23.7795 8.72097 23.9375 9.20695C24.0955 9.69292 23.9494 10.226 23.5645 10.562L18.3283 15.1531L19.8723 21.9542C19.9854 22.4542 19.7913 22.9713 19.3764 23.2713C18.9624 23.5712 18.4103 23.5943 17.9743 23.3322L12.0002 19.7621L6.02602 23.3343C5.82405 23.4542 5.59901 23.5154 5.37195 23.5154ZM12.0002 18.2242C12.2272 18.2242 12.4521 18.2852 12.6542 18.4051L18.2924 21.7773L16.8352 15.358C16.7312 14.9011 16.8863 14.4241 17.2393 14.115L22.1835 9.77899L15.6422 9.18498C15.1713 9.14194 14.7662 8.84586 14.5822 8.41188L12.0002 2.36266L9.41503 8.4128C9.23302 8.84384 8.82798 9.13993 8.35811 9.18296L1.81595 9.77697L6.75993 14.113C7.11406 14.423 7.26898 14.8991 7.16405 15.3571L5.70796 21.7762L11.3461 18.4051C11.5481 18.2852 11.7731 18.2242 12.0002 18.2242ZM8.03511 7.82483C8.03511 7.82483 8.03511 7.82593 8.03401 7.82685L8.03511 7.82483ZM15.9632 7.8219L15.9643 7.82392C15.9643 7.82282 15.9643 7.82282 15.9632 7.8219Z" fill="#5F6E84"/>
</g>
<defs>
<clipPath id="clip0">
<rect width="24" height="24" fill="white"/>
</clipPath>
</defs>
</svg>
