<svg width="24" height="24" viewBox="0 0 24 24" fill="none" xmlns="http://www.w3.org/2000/svg">
<path d="M10.9211 0.047657C8.60547 0.272657 6.46797 1.12578 4.59297 2.56953C3.67891 3.27266 2.49297 4.59453 1.80859 5.67266C1.51328 6.13672 0.936719 7.31797 0.730469 7.88047C0.500781 8.50859 0.252344 9.47422 0.130469 10.2195C-0.0148437 11.1336 -0.0148437 12.868 0.130469 13.782C0.341406 15.0758 0.674219 16.1164 1.24141 17.2742C1.86016 18.5352 2.50234 19.4305 3.53359 20.4664C4.56953 21.4977 5.46484 22.1398 6.72578 22.7586C7.88359 23.3258 8.92422 23.6586 10.218 23.8695C11.132 24.0148 12.8664 24.0148 13.7805 23.8695C15.0742 23.6586 16.1148 23.3258 17.2727 22.7586C18.5336 22.1398 19.4289 21.4977 20.4648 20.4664C21.4961 19.4305 22.1383 18.5352 22.757 17.2742C23.1695 16.4352 23.3758 15.8867 23.6008 15.043C23.8961 13.918 23.9664 13.3039 23.9664 12.0008C23.9664 10.6977 23.8961 10.0836 23.6008 8.95859C23.3758 8.11484 23.1695 7.56641 22.757 6.72734C22.1383 5.46641 21.4961 4.57109 20.4648 3.53516C19.4289 2.50391 18.5336 1.86172 17.2727 1.24297C16.1195 0.675783 15.0508 0.338284 13.8039 0.141407C13.1148 0.033596 11.5773 -0.0179672 10.9211 0.047657ZM13.1148 1.92735C15.4023 2.17578 17.493 3.19297 19.1523 4.84766C21.0977 6.79297 22.1242 9.26797 22.1242 12.0008C22.1242 14.7336 21.0977 17.2086 19.1523 19.1539C17.207 21.0992 14.732 22.1258 11.9992 22.1258C9.2664 22.1258 6.7914 21.0992 4.84609 19.1539C2.90078 17.2086 1.87422 14.7336 1.87422 12.0008C1.87422 9.26797 2.90078 6.79297 4.84609 4.84766C6.48203 3.21172 8.59609 2.18047 10.8273 1.92735C11.343 1.8711 12.5898 1.86641 13.1148 1.92735Z" fill="#5F6E84"/>
<path d="M11.7886 6.37031C11.4746 6.45 11.1933 6.71719 11.1136 7.01719C11.0808 7.12969 11.0621 7.90781 11.0621 9.07969V10.9688H9.23396C8.05739 10.9688 7.32145 10.9875 7.16208 11.0203C6.85739 11.0859 6.55739 11.3625 6.46833 11.6578C6.34177 12.075 6.5527 12.5531 6.94645 12.7453C7.14802 12.8391 7.20895 12.8438 9.10739 12.8438H11.0574L11.0715 14.8219C11.0855 16.7297 11.0902 16.8141 11.184 16.9922C11.2355 17.0953 11.3715 17.2406 11.4793 17.3203C11.6527 17.4422 11.7183 17.4609 11.9996 17.4609C12.2808 17.4609 12.3465 17.4422 12.5199 17.3203C12.6277 17.2406 12.7636 17.0953 12.8152 16.9922C12.909 16.8141 12.9136 16.7297 12.9277 14.8219L12.9418 12.8438H14.8918C16.7902 12.8438 16.8512 12.8391 17.0527 12.7453C17.4465 12.5531 17.6574 12.075 17.5308 11.6578C17.4418 11.3625 17.1418 11.0859 16.8371 11.0203C16.6777 10.9875 15.9418 10.9688 14.7652 10.9688H12.9371V9.07969C12.9371 7.90781 12.9183 7.12969 12.8855 7.01719C12.834 6.81563 12.609 6.54375 12.4261 6.45C12.2621 6.36563 11.9621 6.32813 11.7886 6.37031Z" fill="#5F6E84"/>
</svg>
