<svg width="24" height="24" viewBox="0 0 24 24" fill="none" xmlns="http://www.w3.org/2000/svg">
<g clip-path="url(#clip0)">
<path d="M21.1028 19.0994C21.0323 19.0536 20.5013 18.6816 19.9697 17.5564C18.9933 15.49 18.7884 12.5792 18.7884 10.5012C18.7884 10.4921 18.7882 10.4832 18.7879 10.4742C18.7772 7.72781 17.1327 5.36034 14.7794 4.29811V2.67356C14.7794 1.19934 13.582 0 12.1102 0H11.889C10.4173 0 9.21989 1.19934 9.21989 2.67356V4.29802C6.8587 5.36367 5.2109 7.74323 5.2109 10.5012C5.2109 12.5792 5.00597 15.49 4.02961 17.5564C3.498 18.6816 2.96704 19.0535 2.89645 19.0994C2.59917 19.2369 2.45259 19.5548 2.52098 19.8768C2.59003 20.2021 2.89406 20.4263 3.22608 20.4263H8.37984C8.40862 22.4017 10.0208 24 11.9997 24C13.9785 24 15.5907 22.4017 15.6195 20.4263H20.7733C21.1052 20.4263 21.4093 20.2021 21.4784 19.8768C21.5467 19.5548 21.4001 19.2369 21.1028 19.0994ZM10.6262 2.67356C10.6262 1.97602 11.1927 1.40855 11.8891 1.40855H12.1103C12.8067 1.40855 13.3732 1.97602 13.3732 2.67356V3.84155C12.9294 3.74981 12.47 3.70153 11.9995 3.70153C11.5291 3.70153 11.0699 3.74977 10.6262 3.84141V2.67356H10.6262ZM11.9997 22.5915C10.7962 22.5915 9.81464 21.625 9.78609 20.4264H14.2132C14.1847 21.625 13.2031 22.5915 11.9997 22.5915ZM14.8309 19.0177C14.8308 19.0177 4.8285 19.0177 4.8285 19.0177C4.95014 18.8282 5.07393 18.6135 5.19698 18.371C6.13936 16.5127 6.6172 13.8649 6.6172 10.5012C6.6172 7.5285 9.03168 5.11008 11.9994 5.11008C14.9672 5.11008 17.3817 7.5285 17.3817 10.5035C17.3817 10.5122 17.3818 10.5208 17.3821 10.5294C17.3848 13.8797 17.8626 16.518 18.8024 18.371C18.9254 18.6136 19.0492 18.8282 19.1708 19.0177H14.8309Z" fill="#566677"/>
<circle cx="18.5" cy="5.5" r="2.5" fill="#8338EC"/>
</g>
<defs>
<clipPath id="clip0">
<rect width="24" height="24" fill="white"/>
</clipPath>
</defs>
</svg>
