<svg xmlns="http://www.w3.org/2000/svg" width="24" height="24" fill="none" viewBox="0 0 24 24"><g clip-path="url(#clip0)"><path fill="#fff" d="M17.4349 10.3894V5.84747C17.4349 5.71747 17.3749 5.59735 17.2899 5.50232L12.1978 0.15509C12.1027 0.0551147 11.9676 0 11.8326 0H3.75916C2.26868 0 1.07812 1.21545 1.07812 2.70612V17.9725C1.07812 19.4632 2.26868 20.6587 3.75916 20.6587H10.132C11.3373 22.6595 13.5284 24 16.0243 24C19.8159 24 22.9122 20.9187 22.9122 17.1222C22.9173 13.8058 20.5362 11.0347 17.4349 10.3894ZM12.3329 1.7558L15.7493 5.35217H13.5333C12.873 5.35217 12.3329 4.80707 12.3329 4.14679V1.7558ZM3.75916 19.6582C2.82385 19.6582 2.07861 18.9078 2.07861 17.9725V2.70612C2.07861 1.76569 2.82385 1.00049 3.75916 1.00049H11.3324V4.14679C11.3324 5.36224 12.3179 6.35266 13.5333 6.35266H16.4344V10.2592C16.2845 10.2543 16.1644 10.2393 16.0344 10.2393C14.2886 10.2393 12.683 10.9096 11.4725 11.9601H5.11981C4.8446 11.9601 4.61957 12.1851 4.61957 12.4601C4.61957 12.7354 4.8446 12.9604 5.11981 12.9604H10.5421C10.1869 13.4606 9.89172 13.9609 9.66174 14.5111H5.11981C4.8446 14.5111 4.61957 14.7361 4.61957 15.0114C4.61957 15.2864 4.8446 15.5116 5.11981 15.5116H9.33655C9.21149 16.0118 9.14649 16.567 9.14649 17.1222C9.14649 18.0225 9.32153 18.913 9.63666 19.6633H3.75916V19.6582ZM16.0294 23.0046C12.7881 23.0046 10.1519 20.3685 10.1519 17.1271C10.1519 13.8858 12.783 11.2496 16.0294 11.2496C19.2757 11.2496 21.9067 13.8858 21.9067 17.1271C21.9067 20.3685 19.2708 23.0046 16.0294 23.0046Z"/><path fill="#fff" d="M5.11987 10.4536H10.187C10.4622 10.4536 10.6872 10.2284 10.6872 9.95337C10.6872 9.67816 10.4622 9.45312 10.187 9.45312H5.11987C4.84467 9.45312 4.61963 9.67816 4.61963 9.95337C4.61963 10.2284 4.84467 10.4536 5.11987 10.4536Z"/><path fill="#fff" d="M16.0194 12.2559C13.3234 12.2559 11.1323 14.4467 11.1323 17.1429C11.1323 19.839 13.3234 22.03 16.0194 22.03C18.7155 22.03 20.9065 19.839 20.9065 17.1429C20.9065 14.4518 18.7155 12.2559 16.0194 12.2559ZM19.2206 19.3539C19.0756 19.2289 18.9257 19.1137 18.7706 19.0088C18.8956 18.5836 18.9756 18.1085 19.0106 17.6582H19.876C19.791 18.2584 19.5609 18.8586 19.2206 19.3539ZM12.1678 17.6582H13.0331C13.0681 18.1083 13.1432 18.5735 13.2682 18.9938C13.1082 19.0987 12.9583 19.2188 12.813 19.3439C12.4728 18.8537 12.2478 18.2584 12.1678 17.6582ZM12.813 14.957C12.9581 15.0821 13.1082 15.2022 13.2682 15.3071C13.1481 15.7274 13.0681 16.1525 13.0331 16.6528H12.1678C12.2478 16.0075 12.4728 15.4521 12.813 14.957ZM18.3853 14.3268C18.3053 14.1717 18.2203 14.0215 18.1253 13.8817C18.2703 13.9767 18.4153 14.0816 18.5455 14.1968C18.4955 14.2416 18.4404 14.2867 18.3853 14.3268ZM15.5342 15.1072C15.1841 15.0621 14.8488 14.972 14.5339 14.842C14.7838 14.3369 15.0841 13.9117 15.5342 13.5865V15.1072ZM15.5342 16.1126V16.6577H14.0386C14.0637 16.3576 14.1186 16.0624 14.1836 15.7874C14.6088 15.9625 15.0339 16.0676 15.5342 16.1126ZM15.5342 17.6582V18.1733C15.0339 18.2183 14.6088 18.3384 14.1836 18.5085C14.1136 18.2333 14.0637 17.9534 14.0386 17.6531H15.5342V17.6582ZM15.5342 19.1838V20.7043C15.0841 20.3793 14.7838 19.9542 14.5339 19.449C14.8488 19.3188 15.1841 19.2289 15.5342 19.1838ZM16.5347 19.1838C16.8848 19.2289 17.2149 19.3188 17.535 19.4539C17.285 19.9542 16.9348 20.3793 16.5347 20.7043V19.1838ZM16.5347 18.1784V17.6582H18.0052C17.9803 17.9583 17.9402 18.2434 17.8702 18.5186C17.4451 18.3434 16.9847 18.2234 16.5347 18.1784ZM16.5347 16.6577V16.1126C16.9847 16.0624 17.4451 15.9575 17.8702 15.7825C17.9402 16.0575 17.9803 16.3576 18.0052 16.6577H16.5347ZM16.5347 15.1021V13.5865C16.9348 13.9117 17.285 14.3317 17.535 14.8369C17.2149 14.9671 16.8848 15.057 16.5347 15.1021ZM13.6484 14.3418C13.5934 14.2968 13.5383 14.2517 13.4834 14.2067C13.6183 14.0867 13.7635 13.9816 13.9135 13.8817C13.8185 14.0267 13.7284 14.1818 13.6484 14.3418ZM13.6484 19.949C13.7284 20.1093 13.8185 20.2592 13.9135 20.4094C13.7635 20.3092 13.6183 20.2043 13.4834 20.0842C13.5383 20.0342 13.5934 19.9891 13.6484 19.949ZM18.3853 19.9591C18.4404 20.0041 18.4954 20.0441 18.5455 20.0891C18.4104 20.2043 18.2703 20.3092 18.1253 20.4042C18.2203 20.2643 18.3053 20.1142 18.3853 19.9591ZM19.0057 16.6577C18.9707 16.1575 18.8907 15.7224 18.7656 15.2972C18.9207 15.1921 19.0707 15.0771 19.2157 14.9521C19.5609 15.4472 19.791 16.0075 19.871 16.6577H19.0057Z"/></g><defs><clipPath id="clip0"><rect width="24" height="24" fill="#fff"/></clipPath></defs></svg>