<svg width="26" height="29" viewBox="0 0 26 29" fill="none" xmlns="http://www.w3.org/2000/svg">
<path d="M12.9014 0C12.0707 0 11.2588 0.246308 10.5681 0.707778C9.8775 1.16925 9.33921 1.82515 9.02135 2.59255C8.70348 3.35994 8.62031 4.20436 8.78236 5.01903C8.9444 5.83369 9.34439 6.58201 9.93173 7.16935C10.5191 7.75668 11.2674 8.15667 12.082 8.31872C12.8967 8.48076 13.7411 8.39759 14.5085 8.07973C15.2759 7.76186 15.9318 7.22357 16.3933 6.53294C16.8548 5.8423 17.1011 5.03033 17.1011 4.19971C17.0995 3.08636 16.6565 2.01906 15.8693 1.23181C15.082 0.444551 14.0147 0.00157698 12.9014 0ZM12.9014 6.61401C12.4245 6.61401 11.9582 6.47259 11.5617 6.20763C11.1652 5.94267 10.8561 5.56607 10.6736 5.12546C10.4911 4.68485 10.4433 4.20001 10.5364 3.73226C10.6294 3.26451 10.8591 2.83485 11.1963 2.49762C11.5335 2.16039 11.9632 1.93073 12.4309 1.83769C12.8987 1.74465 13.3835 1.7924 13.8241 1.97491C14.2648 2.15742 14.6414 2.46648 14.9063 2.86302C15.1713 3.25956 15.3127 3.72577 15.3127 4.20269C15.3119 4.84197 15.0576 5.45484 14.6056 5.90688C14.1535 6.35892 13.5406 6.61323 12.9014 6.61401Z" fill="#566677"/>
<path d="M13.6434 9.45117H12.1531C10.493 9.45117 8.90096 10.1106 7.72711 11.2845C6.55326 12.4583 5.8938 14.0504 5.8938 15.7105V15.9787C5.8938 16.2159 5.98801 16.4433 6.1557 16.611C6.32339 16.7787 6.55083 16.8729 6.78799 16.8729H19.0086C19.2457 16.8729 19.4732 16.7787 19.6408 16.611C19.8085 16.4433 19.9028 16.2159 19.9028 15.9787V15.7105C19.9028 14.8885 19.7408 14.0746 19.4263 13.3152C19.1117 12.5557 18.6507 11.8657 18.0694 11.2845C17.4882 10.7033 16.7982 10.2422 16.0388 9.92763C15.2794 9.61307 14.4654 9.45117 13.6434 9.45117ZM7.72987 15.0846C7.88068 14.018 8.4115 13.0417 9.22473 12.3352C10.038 11.6288 11.0789 11.2397 12.1561 11.2395H13.6464C14.7236 11.2397 15.7646 11.6288 16.5778 12.3352C17.391 13.0417 17.9218 14.018 18.0726 15.0846H7.72987Z" fill="#566677"/>
<path d="M12.0071 19.4727V22.9958C11.355 23.2086 10.8002 23.647 10.4423 24.2322C10.0845 24.8174 9.94708 25.5111 10.0548 26.1885C10.1626 26.866 10.5084 27.4828 11.0301 27.9281C11.5519 28.3734 12.2154 28.6181 12.9013 28.6181C13.5873 28.6181 14.2507 28.3734 14.7725 27.9281C15.2942 27.4828 15.6401 26.866 15.7478 26.1885C15.8556 25.5111 15.7182 24.8174 15.3603 24.2322C15.0025 23.647 14.4476 23.2086 13.7955 22.9958V19.4727H12.0071ZM12.9013 26.8259C12.685 26.8259 12.4735 26.7617 12.2936 26.6415C12.1137 26.5213 11.9735 26.3505 11.8907 26.1506C11.8079 25.9507 11.7862 25.7308 11.8284 25.5186C11.8707 25.3064 11.9748 25.1115 12.1278 24.9585C12.2808 24.8055 12.4757 24.7013 12.6879 24.6591C12.9001 24.6169 13.12 24.6386 13.3199 24.7214C13.5198 24.8041 13.6907 24.9444 13.8109 25.1242C13.9311 25.3041 13.9952 25.5156 13.9952 25.732C13.9952 26.0221 13.88 26.3003 13.6748 26.5055C13.4697 26.7106 13.1914 26.8259 12.9013 26.8259Z" fill="#566677"/>
<path d="M24.9697 21.1631C24.5402 20.7332 23.9859 20.4499 23.386 20.3535C22.786 20.2572 22.1709 20.3527 21.6284 20.6266L19.1366 18.1348L17.8728 19.3986L20.3527 21.8933C20.1142 22.3665 20.0109 22.8963 20.0542 23.4244C20.0975 23.9525 20.2857 24.4584 20.5981 24.8865C20.9104 25.3145 21.3348 25.648 21.8245 25.8503C22.3143 26.0526 22.8503 26.1159 23.3737 26.0331C23.8971 25.9503 24.3875 25.7247 24.7908 25.3812C25.1942 25.0376 25.495 24.5894 25.66 24.0858C25.825 23.5823 25.8479 23.043 25.7261 22.5273C25.6043 22.0116 25.3425 21.5396 24.9697 21.1631ZM23.7059 23.9738C23.5531 24.1258 23.3587 24.2291 23.1472 24.2707C22.9358 24.3123 22.7167 24.2904 22.5178 24.2076C22.3188 24.1249 22.1487 23.9851 22.0291 23.8058C21.9095 23.6265 21.8457 23.4159 21.8457 23.2003C21.8457 22.9848 21.9095 22.7742 22.0291 22.5949C22.1487 22.4156 22.3188 22.2758 22.5178 22.193C22.7167 22.1103 22.9358 22.0884 23.1472 22.13C23.3587 22.1716 23.5531 22.2749 23.7059 22.4269C23.9092 22.6318 24.0233 22.9087 24.0233 23.1974C24.0233 23.486 23.9092 23.763 23.7059 23.9679V23.9738Z" fill="#566677"/>
<path d="M4.17401 20.6265C3.56118 20.3192 2.85891 20.2405 2.19325 20.4044C1.5276 20.5682 0.942149 20.964 0.541993 21.5206C0.141837 22.0773 -0.046822 22.7583 0.00988089 23.4415C0.0665838 24.1247 0.364935 24.7653 0.851381 25.2483C1.33783 25.7313 1.98051 26.0252 2.66408 26.0771C3.34764 26.129 4.02732 25.9355 4.58112 25.5315C5.13491 25.1274 5.52656 24.5392 5.68575 23.8724C5.84494 23.2056 5.76126 22.5039 5.44972 21.8932L7.93855 19.4044L6.67476 18.1406L4.17401 20.6265ZM3.64346 23.9678C3.49066 24.1197 3.29627 24.223 3.08482 24.2647C2.87336 24.3063 2.65432 24.2843 2.45533 24.2016C2.25633 24.1188 2.0863 23.979 1.96669 23.7997C1.84708 23.6205 1.78325 23.4098 1.78325 23.1943C1.78325 22.9788 1.84708 22.7681 1.96669 22.5888C2.0863 22.4095 2.25633 22.2697 2.45533 22.187C2.65432 22.1042 2.87336 22.0823 3.08482 22.1239C3.29627 22.1655 3.49066 22.2688 3.64346 22.4208C3.84859 22.6259 3.96383 22.9042 3.96383 23.1943C3.96383 23.4844 3.84859 23.7626 3.64346 23.9678Z" fill="#566677"/>
</svg>
