<svg width="19" height="19" viewBox="0 0 19 19" fill="none" xmlns="http://www.w3.org/2000/svg">
<g clip-path="url(#clip0)">
<path d="M15.371 0H2.68971C2.48192 0 2.31396 0.168332 2.31396 0.375741V17.6843C2.31396 17.8349 2.40377 17.9709 2.54242 18.0299C2.68106 18.0889 2.84188 18.0592 2.95009 17.9548L9.03034 12.1L15.1106 17.9548C15.1816 18.0236 15.2755 18.06 15.371 18.06C15.4206 18.06 15.4709 18.0502 15.5183 18.0299C15.6569 17.9709 15.7467 17.8346 15.7467 17.6843V0.375741C15.7467 0.168332 15.5784 0 15.371 0ZM14.9952 16.8009L9.29073 11.3079C9.21821 11.2377 9.12427 11.2027 9.03034 11.2027C8.9364 11.2027 8.84247 11.2377 8.76995 11.3079L3.06545 16.8009V0.751482H14.9952V16.8009Z" fill="#566677"/>
</g>
<defs>
<clipPath id="clip0">
<rect width="18.06" height="18.06" fill="white"/>
</clipPath>
</defs>
</svg>
