<svg xmlns="http://www.w3.org/2000/svg" width="682.667" height="682.667" preserveAspectRatio="xMidYMid meet" version="1.0" viewBox="0 0 512 512"><g fill="#000" stroke="none"><path d="M2321 5109 c-486 -43 -989 -249 -1376 -564 -114 -92 -294 -274 -384 -387 -229 -287 -417 -675 -495 -1023 -49 -218 -60 -325 -60 -575 0 -250 11 -357 60 -575 79 -355 272 -749 509 -1040 92 -114 274 -294 387 -384 287 -229 675 -417 1023 -495 218 -49 325 -60 575 -60 250 0 357 11 575 60 261 58 603 204 828 353 389 259 688 599 893 1016 165 337 246 658 261 1033 23 598 -168 1183 -545 1672 -84 109 -323 348 -432 432 -528 407 -1164 595 -1819 537z m489 -369 c498 -60 949 -279 1300 -630 351 -351 570 -802 630 -1300 13 -110 13 -392 0 -500 -127 -1020 -910 -1803 -1930 -1930 -108 -13 -390 -13 -500 0 -498 60 -949 279 -1300 630 -351 351 -570 802 -630 1300 -13 109 -13 391 0 500 60 498 279 949 630 1300 346 346 799 568 1285 629 100 12 415 13 515 1z" transform="translate(0.000000,512.000000) scale(0.100000,-0.100000)"/><path d="M1924 3451 c-18 -11 -45 -36 -60 -57 l-29 -37 -3 -771 c-2 -424 0 -786 3 -804 7 -40 59 -101 102 -118 84 -35 64 -44 892 370 811 406 794 396 821 479 16 50 -1 123 -40 165 -20 22 -250 142 -789 411 -712 357 -764 381 -813 381 -35 0 -64 -7 -84 -19z m711 -673 c234 -117 425 -215 425 -218 0 -7 -847 -430 -860 -430 -7 0 -10 151 -10 430 0 279 3 430 10 430 5 0 201 -96 435 -212z" transform="translate(0.000000,512.000000) scale(0.100000,-0.100000)"/></g></svg>