<svg xmlns="http://www.w3.org/2000/svg" width="24" height="24" fill="none" viewBox="0 0 24 24"><path fill="#5F6E84" d="M10.8789 0.0523434C8.60078 0.253906 6.24297 1.21953 4.42891 2.69609C3.89453 3.12734 3.05078 3.98047 2.62891 4.51015C1.55547 5.85547 0.674219 7.67422 0.308594 9.30547C0.0789062 10.3273 0.0273438 10.8289 0.0273438 12.0008C0.0273438 13.1727 0.0789062 13.6742 0.308594 14.6961C0.678906 16.3602 1.58359 18.207 2.69453 19.5711C3.12578 20.1055 3.97891 20.9492 4.50859 21.3711C5.8539 22.4445 7.67265 23.3258 9.3039 23.6914C10.3258 23.9211 10.8273 23.9727 11.9992 23.9727C13.1711 23.9727 13.6727 23.9211 14.6945 23.6914C15.918 23.4195 17.5211 22.7352 18.5758 22.0367C20.3992 20.8227 21.8008 19.2289 22.7617 17.2742C23.5352 15.6945 23.9148 14.1898 23.9851 12.432C24.093 9.62891 23.1977 6.88672 21.4305 4.59453C21.0367 4.08359 19.9164 2.96328 19.4055 2.56953C16.9305 0.661718 13.9492 -0.219532 10.8789 0.0523434ZM13.1711 1.78203C15.5055 2.06328 17.6195 3.08984 19.2648 4.73516C20.9102 6.38047 21.9367 8.49453 22.218 10.8289C22.2789 11.3445 22.2789 12.6664 22.218 13.1727C21.6227 17.9539 17.9523 21.6242 13.1711 22.2195C12.6648 22.2805 11.343 22.2805 10.8273 22.2195C8.49297 21.9383 6.3789 20.9117 4.73359 19.2664C3.08828 17.6211 2.06172 15.507 1.78047 13.1727C1.71953 12.6617 1.71953 11.3398 1.78047 10.8289C2.06172 8.49453 3.08828 6.38047 4.73359 4.73516C6.35547 3.11328 8.4789 2.07265 10.757 1.78672C11.2258 1.73047 12.7023 1.72578 13.1711 1.78203Z"/><path fill="#5F6E84" d="M9.01706 7.82358C8.93268 7.87514 8.80612 7.99233 8.73581 8.09077L8.59987 8.2642L8.5858 11.8783C8.57643 13.8658 8.5858 15.5626 8.59987 15.647C8.63268 15.8345 8.87643 16.1205 9.07799 16.2001C9.47174 16.3642 9.37799 16.4064 13.2593 14.4658C17.0608 12.5626 16.9811 12.6095 17.1077 12.2205C17.1827 11.9861 17.103 11.6439 16.9202 11.447C16.8264 11.3439 15.7483 10.7814 13.2218 9.52045C9.88424 7.84702 9.64049 7.73452 9.41081 7.73452C9.24674 7.73452 9.11081 7.76733 9.01706 7.82358ZM12.3499 10.9783C13.4468 11.5267 14.3421 11.9861 14.3421 12.0001C14.3421 12.033 10.3717 14.0158 10.3108 14.0158C10.278 14.0158 10.2639 13.308 10.2639 12.0001C10.2639 10.6923 10.278 9.98452 10.3108 9.98452C10.3342 9.98452 11.253 10.4345 12.3499 10.9783Z"/></svg>