<svg width="50" height="50" viewBox="0 0 50 50" fill="none" xmlns="http://www.w3.org/2000/svg">
<path d="M24.9999 0C11.1929 0 0 11.1929 0 24.9999C0 38.807 11.1929 49.9999 24.9999 49.9999C38.807 49.9999 49.9999 38.807 49.9999 24.9999C49.9852 11.199 38.801 0.0147531 24.9999 0ZM24.9999 46.4285C13.1653 46.4285 3.57139 36.8346 3.57139 24.9999C3.57139 13.1653 13.1653 3.57139 24.9999 3.57139C36.8346 3.57139 46.4285 13.1653 46.4285 24.9999C46.4157 36.8294 36.8294 46.4157 24.9999 46.4285Z" fill="black"/>
<path d="M35.5283 24.2036C35.3552 23.8564 35.0739 23.575 34.7266 23.4019L20.4409 16.259C19.5587 15.8182 18.4862 16.176 18.0453 17.0582C17.9213 17.3063 17.8568 17.5799 17.8569 17.8573V32.1431C17.8565 33.1293 18.6556 33.9291 19.6418 33.9296C19.9192 33.9297 20.1928 33.8653 20.4409 33.7413L34.7266 26.5984C35.6093 26.1585 35.9683 25.0863 35.5283 24.2036ZM21.4284 29.2538V20.7466L29.9356 25.0002L21.4284 29.2538Z" fill="black"/>
</svg>
