<svg width="24" height="24" viewBox="0 0 24 24" fill="none" xmlns="http://www.w3.org/2000/svg">
<path fill-rule="evenodd" clip-rule="evenodd" d="M8.01475 0.0939705C6.26106 0.740145 6.08672 3.20048 7.73779 4.0029L8.00783 4.13415V4.91888V5.70361L7.59687 5.72393C6.44165 5.78099 5.70113 6.60869 5.66752 7.88054L5.65045 8.52438H5.28776C3.84482 8.52432 2.7945 9.66079 2.7945 11.2221V11.7959L1.96085 11.8106C0.859681 11.8299 0.453527 12.029 0.115366 12.7148L0 12.949V15.3134V17.6779L0.115366 17.9119C0.453286 18.5974 0.8595 18.7966 1.96085 18.817L2.7945 18.8325V19.4055C2.7945 20.6985 3.41528 21.6007 4.57651 21.9953L4.88455 22.1L9.2587 22.1012L13.6329 22.1024L15.276 23.0388C17.0886 24.0718 17.2089 24.1165 17.5589 23.8864C17.841 23.701 17.8702 23.6008 17.8705 22.8164L17.8708 22.1024H18.4729C20.1686 22.1024 21.2055 21.079 21.2055 19.4055V18.8325L22.0391 18.817C22.999 18.7992 23.164 18.7494 23.5559 18.3587C23.6732 18.2417 23.8211 18.0407 23.8846 17.9119L24 17.6779V15.3134V12.949L23.8846 12.7148C23.5465 12.029 23.1403 11.8299 22.0391 11.8106L21.2055 11.7959V11.2221C21.2055 9.66079 20.1552 8.52438 18.7122 8.52438H18.3496L18.3325 7.88054C18.2989 6.60869 17.5583 5.78099 16.4031 5.72393L15.9922 5.70361V4.91888V4.13415L16.2622 4.0029C17.8102 3.25059 17.7748 0.95182 16.2035 0.186504C15.7067 -0.0554969 14.8687 -0.0554969 14.3718 0.186504C12.8005 0.95182 12.7652 3.25059 14.3131 4.0029L14.5832 4.13415V4.92463V5.71512H12H9.41681V4.92463V4.13415L9.68686 4.0029C11.2346 3.25071 11.1991 0.945408 9.62818 0.188122C9.19991 -0.0182799 8.4399 -0.0626287 8.01475 0.0939705ZM9.05791 1.54322C9.62109 1.91335 9.3802 2.76473 8.71235 2.76473C8.33439 2.76473 8.05539 2.48665 8.05539 2.10986C8.05539 1.59949 8.64039 1.26885 9.05791 1.54322ZM15.6333 1.54322C16.1964 1.91335 15.9556 2.76473 15.2877 2.76473C14.9097 2.76473 14.6307 2.48665 14.6307 2.10986C14.6307 1.59949 15.2157 1.26885 15.6333 1.54322ZM16.5558 7.24521C16.8172 7.40763 16.8951 7.587 16.9213 8.08676L16.9443 8.52438H12H7.05569L7.07878 8.08431C7.10998 7.49003 7.253 7.26146 7.65555 7.16269C7.73304 7.14369 9.73032 7.13147 12.094 7.1356L16.3914 7.14315L16.5558 7.24521ZM19.092 10.063C19.3808 10.2142 19.5025 10.3333 19.6485 10.6079L19.773 10.842V15.3134V19.7848L19.6485 20.0189C19.3495 20.5811 19.1308 20.6652 17.9178 20.6848C16.5744 20.7065 16.4619 20.7757 16.4619 21.5812C16.4619 21.8164 16.4535 22.0088 16.4433 22.0088C16.4332 22.0088 15.9206 21.7191 15.3044 21.365L14.1839 20.7212L9.65169 20.6978L5.11937 20.6744L4.90799 20.5638C4.61919 20.4126 4.49751 20.2935 4.35149 20.0189L4.22698 19.7848V15.3134V10.842L4.33796 10.6313C4.53827 10.2509 4.8162 10.0418 5.21327 9.97243C5.31661 9.95439 8.43407 9.94252 12.1409 9.946L18.8806 9.95241L19.092 10.063ZM8.01475 11.4247C6.55966 11.9608 5.98716 14.1429 7.30163 14.1429C7.72859 14.1429 7.9687 13.9177 8.02972 13.46C8.15152 12.5466 9.27313 12.5466 9.39493 13.46C9.45595 13.9177 9.69606 14.1429 10.123 14.1429C11.3195 14.1429 10.9443 12.1532 9.62818 11.5188C9.19991 11.3124 8.4399 11.268 8.01475 11.4247ZM14.5901 11.4247C13.135 11.9608 12.5625 14.1429 13.877 14.1429C14.3039 14.1429 14.5441 13.9177 14.6051 13.46C14.6617 13.0353 14.9144 12.7857 15.2877 12.7857C15.661 12.7857 15.9137 13.0353 15.9703 13.46C16.0313 13.9177 16.2714 14.1429 16.6984 14.1429C17.8949 14.1429 17.5197 12.1532 16.2035 11.5188C15.7753 11.3124 15.0153 11.268 14.5901 11.4247ZM2.7945 15.317V17.4276L2.16267 17.4122C1.72477 17.4016 1.51214 17.3783 1.46993 17.3361C1.40501 17.2713 1.35036 13.7707 1.40928 13.4498C1.44781 13.2399 1.53877 13.2129 2.21918 13.2094L2.7945 13.2065V15.317ZM22.5301 13.2907C22.6192 13.3797 22.6192 17.247 22.5301 17.3361C22.4879 17.3783 22.2755 17.4016 21.8373 17.4122L21.2055 17.4276V15.3134V13.1992L21.8373 13.2145C22.2755 13.2252 22.4879 13.2485 22.5301 13.2907ZM9.33192 17.0442C8.20352 17.7498 10.0343 19.2925 12 19.2925C13.4023 19.2925 15.0038 18.4191 15.0038 17.6544C15.0038 16.9664 14.2425 16.7269 13.6429 17.2264C12.6332 18.0675 11.3668 18.0675 10.3571 17.2264C9.99778 16.927 9.62512 16.8608 9.33192 17.0442Z" fill="#5F6E84"/>
</svg>
