<svg id="svg" version="1.1" xmlns="http://www.w3.org/2000/svg" xmlns:xlink="http://www.w3.org/1999/xlink" width="400" height="400" viewBox="0, 0, 400,400"><g id="svgg"><path id="path0" d="M133.709 1.519 C 104.538 12.301,101.638 53.354,129.102 66.743 L 133.594 68.933 133.594 82.027 L 133.594 95.121 126.758 95.460 C 107.542 96.412,95.224 110.223,94.665 131.445 L 94.381 142.188 88.348 142.188 C 64.346 142.187,46.875 161.150,46.875 187.202 L 46.875 196.776 33.008 197.021 C 14.691 197.344,7.935 200.665,2.310 212.109 L 0.391 216.016 0.391 255.469 L 0.391 294.922 2.310 298.828 C 7.931 310.265,14.688 313.589,33.008 313.930 L 46.875 314.189 46.875 323.750 C 46.875 345.324,57.201 360.378,76.517 366.963 L 81.641 368.710 154.401 368.730 L 227.161 368.750 254.494 384.375 C 284.644 401.610,286.646 402.356,292.468 398.517 C 297.160 395.424,297.645 393.752,297.651 380.664 L 297.656 368.750 307.671 368.750 C 335.877 368.750,353.125 351.674,353.125 323.750 L 353.125 314.189 366.992 313.930 C 382.959 313.633,385.703 312.801,392.221 306.283 C 394.173 304.331,396.634 300.977,397.690 298.828 L 399.609 294.922 399.609 255.469 L 399.609 216.016 397.690 212.109 C 392.065 200.665,385.309 197.344,366.992 197.021 L 353.125 196.776 353.125 187.202 C 353.125 161.150,335.654 142.188,311.652 142.188 L 305.619 142.188 305.335 131.445 C 304.776 110.223,292.458 96.412,273.242 95.460 L 266.406 95.121 266.406 82.027 L 266.406 68.933 270.898 66.743 C 296.647 54.190,296.059 15.833,269.922 3.063 C 261.657 -0.975,247.718 -0.975,239.453 3.063 C 213.316 15.833,212.728 54.190,238.477 66.743 L 242.969 68.933 242.969 82.123 L 242.969 95.313 200.000 95.313 L 157.031 95.313 157.031 82.123 L 157.031 68.933 161.523 66.743 C 187.268 54.192,186.678 15.726,160.547 3.090 C 153.423 -0.354,140.781 -1.094,133.709 1.519 M151.061 25.701 C 160.429 31.877,156.422 46.083,145.313 46.083 C 139.026 46.083,134.385 41.443,134.385 35.156 C 134.385 26.640,144.116 21.123,151.061 25.701 M260.436 25.701 C 269.804 31.877,265.797 46.083,254.688 46.083 C 248.401 46.083,243.760 41.443,243.760 35.156 C 243.760 26.640,253.491 21.123,260.436 25.701 M275.781 120.844 C 280.130 123.554,281.426 126.547,281.862 134.886 L 282.244 142.188 200.000 142.188 L 117.756 142.188 118.140 134.845 C 118.659 124.929,121.038 121.115,127.734 119.467 C 129.023 119.150,162.246 118.946,201.563 119.015 L 273.047 119.141 275.781 120.844 M317.969 167.862 C 322.773 170.384,324.797 172.371,327.226 176.953 L 329.297 180.859 329.297 255.469 L 329.297 330.078 327.226 333.984 C 322.252 343.366,318.615 344.769,298.438 345.096 C 276.091 345.457,274.219 346.613,274.219 360.053 C 274.219 363.977,274.080 367.188,273.911 367.188 C 273.742 367.188,265.216 362.354,254.966 356.445 L 236.328 345.703 160.938 345.313 L 85.547 344.922 82.031 343.076 C 77.227 340.553,75.203 338.566,72.774 333.984 L 70.703 330.078 70.703 255.469 L 70.703 180.859 72.549 177.344 C 75.881 170.997,80.504 167.507,87.109 166.350 C 88.828 166.049,140.684 165.851,202.344 165.909 L 314.453 166.016 317.969 167.862 M133.709 190.582 C 109.505 199.528,99.982 235.938,121.847 235.938 C 128.949 235.938,132.943 232.180,133.958 224.544 C 135.984 209.303,154.641 209.303,156.667 224.544 C 157.682 232.180,161.676 235.938,168.778 235.938 C 188.681 235.938,182.440 202.739,160.547 192.153 C 153.423 188.708,140.781 187.968,133.709 190.582 M243.084 190.582 C 218.880 199.528,209.357 235.938,231.222 235.938 C 238.324 235.938,242.318 232.180,243.333 224.544 C 244.275 217.457,248.478 213.292,254.688 213.292 C 260.897 213.292,265.100 217.457,266.042 224.544 C 267.057 232.180,271.051 235.938,278.153 235.938 C 298.056 235.938,291.815 202.739,269.922 192.153 C 262.798 188.708,250.156 187.968,243.084 190.582 M46.875 255.529 L 46.875 290.746 36.365 290.490 C 29.081 290.313,25.544 289.923,24.842 289.219 C 23.762 288.138,22.853 229.728,23.833 224.373 C 24.474 220.871,25.987 220.421,37.305 220.362 L 46.875 220.313 46.875 255.529 M375.158 221.719 C 376.641 223.204,376.641 287.733,375.158 289.219 C 374.456 289.923,370.924 290.313,363.635 290.490 L 353.125 290.746 353.125 255.469 L 353.125 220.191 363.635 220.447 C 370.924 220.625,374.456 221.014,375.158 221.719 M155.619 284.349 C 136.849 296.122,167.303 321.864,200.000 321.864 C 223.326 321.864,249.966 307.291,249.966 294.531 C 249.966 283.050,237.302 279.054,227.328 287.389 C 210.532 301.423,189.468 301.423,172.672 287.389 C 166.695 282.394,160.496 281.289,155.619 284.349 " stroke="none" fill="#000000" fill-rule="evenodd"></path></g></svg>