<svg width="19" height="19" viewBox="0 0 19 19" fill="none" xmlns="http://www.w3.org/2000/svg">
<g clip-path="url(#clip0_1953_758)">
<path d="M8.61953 0.0371094C6.40039 0.252344 4.3668 1.20977 2.78965 2.7832C1.31641 4.25645 0.414648 6.05625 0.084375 8.20117C-0.0046875 8.79863 -0.0046875 10.2014 0.084375 10.7988C0.414648 12.94 1.30898 14.7287 2.78223 16.2094C4.25547 17.6826 6.05527 18.5844 8.2002 18.9146C8.79766 19.0037 10.2004 19.0037 10.7979 18.9146C12.9391 18.5844 14.7277 17.69 16.2084 16.2168C17.6816 14.7436 18.5834 12.9437 18.9137 10.7988C19.0027 10.2014 19.0027 8.79863 18.9137 8.20117C18.5834 6.05996 17.6891 4.27129 16.2158 2.79062C14.7537 1.3248 12.9316 0.411915 10.835 0.0927734C10.3711 0.0222664 9.09824 -0.00742149 8.61953 0.0371094ZM10.7051 1.57715C12.4195 1.84434 13.9299 2.6125 15.1582 3.84082C16.3977 5.08027 17.1547 6.57949 17.4293 8.33105C17.4738 8.62051 17.4924 8.96191 17.4924 9.5C17.4924 10.0381 17.4738 10.3795 17.4293 10.6689C17.1547 12.4205 16.3977 13.9197 15.1582 15.1592C13.9187 16.3986 12.4195 17.1557 10.668 17.4303C10.1076 17.5193 8.89043 17.5193 8.33008 17.4303C6.57852 17.1557 5.0793 16.3986 3.83984 15.1592C2.60039 13.9197 1.84336 12.4205 1.56875 10.6689C1.47969 10.1086 1.47969 8.89141 1.56875 8.33105C1.84336 6.57949 2.60039 5.08027 3.83984 3.84082C5.20547 2.47519 6.82715 1.71816 8.84961 1.50664C9.1502 1.47695 10.3451 1.52148 10.7051 1.57715Z" fill="#393F46"/>
<path d="M12.875 6.33088C12.7934 6.36428 11.9213 7.21037 10.4741 8.65764L8.19925 10.925L7.24554 9.97502C6.71859 9.45549 6.23616 9.00276 6.17679 8.96936C5.79456 8.77639 5.36409 8.91369 5.17484 9.29221C5.06351 9.51487 5.05609 9.71897 5.15628 9.92307C5.20081 10.0233 5.68323 10.528 6.51819 11.3592C7.53499 12.3723 7.83929 12.6543 7.95433 12.6914C8.14358 12.7508 8.42933 12.7174 8.58148 12.6135C8.7596 12.491 13.6395 7.61487 13.7768 7.4219C13.8807 7.27346 13.8955 7.22522 13.8955 7.00627C13.8955 6.79104 13.8807 6.73908 13.7842 6.60178C13.5764 6.30862 13.1942 6.19358 12.875 6.33088Z" fill="#393F46"/>
</g>
<defs>
<clipPath id="clip0_1953_758">
<rect width="19" height="19" fill="white"/>
</clipPath>
</defs>
</svg>
