<svg width="16" height="19" viewBox="0 0 16 19" fill="none" xmlns="http://www.w3.org/2000/svg">
<path d="M10.3408 6.88379C10.0951 6.88379 9.89587 7.08298 9.89587 7.32875V15.7386C9.89587 15.9842 10.0951 16.1836 10.3408 16.1836C10.5866 16.1836 10.7858 15.9842 10.7858 15.7386V7.32875C10.7858 7.08298 10.5866 6.88379 10.3408 6.88379Z" fill="#566677"/>
<path d="M5.09133 6.88379C4.84555 6.88379 4.64636 7.08298 4.64636 7.32875V15.7386C4.64636 15.9842 4.84555 16.1836 5.09133 16.1836C5.3371 16.1836 5.53629 15.9842 5.53629 15.7386V7.32875C5.53629 7.08298 5.3371 6.88379 5.09133 6.88379Z" fill="#566677"/>
<path d="M1.26377 5.65648V16.6194C1.26377 17.2674 1.50137 17.8759 1.91644 18.3126C2.3296 18.7504 2.90457 18.999 3.50632 19H11.9252C12.5271 18.999 13.1021 18.7504 13.515 18.3126C13.9301 17.8759 14.1677 17.2674 14.1677 16.6194V5.65648C14.9928 5.43748 15.5275 4.64037 15.4171 3.79372C15.3065 2.94725 14.5854 2.31404 13.7316 2.31387H11.4534V1.75766C11.456 1.28993 11.2711 0.840796 10.94 0.510376C10.6089 0.18013 10.159 -0.00376544 9.69131 5.84646e-05H5.74017C5.27244 -0.00376544 4.82261 0.18013 4.49149 0.510376C4.16038 0.840796 3.97544 1.28993 3.97805 1.75766V2.31387H1.69987C0.846094 2.31404 0.12494 2.94725 0.0143948 3.79372C-0.095977 4.64037 0.438674 5.43748 1.26377 5.65648ZM11.9252 18.1101H3.50632C2.74553 18.1101 2.1537 17.4565 2.1537 16.6194V5.69559H13.2778V16.6194C13.2778 17.4565 12.6859 18.1101 11.9252 18.1101ZM4.86797 1.75766C4.86502 1.52597 4.9561 1.30297 5.12052 1.13941C5.28478 0.97585 5.5083 0.885988 5.74017 0.889986H9.69131C9.92318 0.885988 10.1467 0.97585 10.311 1.13941C10.4754 1.30279 10.5665 1.52597 10.5635 1.75766V2.31387H4.86797V1.75766ZM1.69987 3.2038H13.7316C14.174 3.2038 14.5325 3.56237 14.5325 4.00473C14.5325 4.44709 14.174 4.80566 13.7316 4.80566H1.69987C1.25751 4.80566 0.898934 4.44709 0.898934 4.00473C0.898934 3.56237 1.25751 3.2038 1.69987 3.2038Z" fill="#566677"/>
<path d="M7.71534 6.88379C7.46957 6.88379 7.27039 7.08298 7.27039 7.32875V15.7386C7.27039 15.9842 7.46957 16.1836 7.71534 16.1836C7.96112 16.1836 8.1603 15.9842 8.1603 15.7386V7.32875C8.1603 7.08298 7.96112 6.88379 7.71534 6.88379Z" fill="#566677"/>
</svg>
