<svg width="19" height="19" viewBox="0 0 19 19" fill="none" xmlns="http://www.w3.org/2000/svg">
<g clip-path="url(#clip0_1984_5937)">
<path d="M16.6436 0.0742188C16.3727 0.129883 16.0721 0.263477 15.8568 0.426758C15.7381 0.51211 15.393 0.838672 15.085 1.14668L14.5283 1.70703L15.9311 3.10605L17.3301 4.50879L17.9238 3.91504C18.2541 3.58848 18.5807 3.22852 18.6586 3.11719C19.1855 2.32305 19.0854 1.30254 18.41 0.627148C17.9387 0.155859 17.2781 -0.0519528 16.6436 0.0742188Z" fill="#566677"/>
<path d="M10.5131 5.72221C7.97107 8.26791 7.34763 8.91361 7.31795 9.01752C7.29939 9.08803 7.16209 9.76342 7.01365 10.5205C6.83181 11.4333 6.75017 11.9269 6.76502 11.9974C6.79842 12.1273 6.90974 12.2386 7.03963 12.272C7.18064 12.3054 10.0121 11.7413 10.1568 11.6523C10.2125 11.6152 11.6635 10.1828 13.3779 8.46459L16.4951 5.34369L15.1035 3.95209C14.339 3.18764 13.7045 2.56049 13.6933 2.56049C13.6822 2.56049 12.2535 3.98549 10.5131 5.72221Z" fill="#566677"/>
<path d="M1.94084 3.24707C1.22834 3.37695 0.567795 3.88164 0.244943 4.5459C-0.0148222 5.08027 -0.00368941 4.70547 0.0074434 11.2441L0.0185762 17.126L0.100217 17.3672C0.222678 17.7234 0.434201 18.0574 0.7051 18.332C0.98342 18.6104 1.25803 18.7811 1.6217 18.9072L1.87405 19H7.89319H13.9123L14.2018 18.9072C14.9477 18.6734 15.534 18.05 15.7604 17.2521C15.8235 17.0295 15.8272 16.7883 15.8272 13.5598V10.1049L15.7158 9.92676C15.5526 9.66328 15.278 9.52227 14.9811 9.54824C14.7213 9.57051 14.5172 9.69297 14.3725 9.91562L14.2686 10.0715L14.25 13.4855C14.2315 16.6102 14.2278 16.9145 14.1684 17.0184C14.0793 17.1816 13.8678 17.3561 13.7045 17.4043C13.6043 17.434 11.8862 17.4414 7.82639 17.434L2.08928 17.4229L1.94455 17.3227C1.86662 17.267 1.75901 17.1594 1.70705 17.0814L1.61428 16.9441L1.60315 11.1625C1.59572 5.52559 1.59572 5.37715 1.66623 5.23984C1.70705 5.16562 1.78498 5.05801 1.84436 5.00234C2.07815 4.77598 1.91487 4.78711 5.51447 4.78711C8.01194 4.78711 8.84319 4.77598 8.95823 4.74258C9.16975 4.67949 9.39983 4.43828 9.4592 4.21934C9.5594 3.8668 9.41096 3.4957 9.09924 3.31387L8.92483 3.20996L5.56643 3.20254C2.92424 3.19883 2.15237 3.20625 1.94084 3.24707Z" fill="#566677"/>
</g>
<defs>
<clipPath id="clip0_1984_5937">
<rect width="19" height="19" fill="white"/>
</clipPath>
</defs>
</svg>
