<svg xmlns="http://www.w3.org/2000/svg" width="19" height="15" fill="none" viewBox="0 0 19 15"><path fill="#393F46" d="M1.01035 0.375179C0.631836 0.45682 0.294141 0.731429 0.116016 1.11366C0.034375 1.28807 0.0195312 1.36971 0.0195312 1.6369C0.0232422 1.90409 0.0380859 1.98573 0.123437 2.16385C0.353516 2.63885 0.876758 2.93573 1.38887 2.88377C2.47617 2.77244 2.92891 1.46619 2.1459 0.701741C1.86758 0.430843 1.4 0.293538 1.01035 0.375179Z"/><path fill="#393F46" d="M5.04688 0.65332C4.67207 0.77207 4.41602 1.13203 4.41602 1.54766C4.41602 1.67383 4.44199 1.83711 4.47168 1.91133C4.55703 2.11543 4.76484 2.32324 4.97266 2.4123L5.15449 2.49023L11.7525 2.48281C17.9795 2.47168 18.358 2.46797 18.4693 2.40488C18.8033 2.22305 18.9814 1.92246 18.9814 1.54395C18.9777 1.16914 18.8033 0.879687 18.4619 0.697851L18.3135 0.616211L11.7637 0.608789C6.23438 0.605078 5.18789 0.608789 5.04688 0.65332Z"/><path fill="#393F46" d="M0.928223 6.27186C0.583106 6.37947 0.271387 6.64666 0.115527 6.97693C-0.0254883 7.27752 -0.0254883 7.72283 0.115527 8.02342C0.32334 8.46502 0.712988 8.7285 1.20654 8.75447C1.59248 8.77303 1.84854 8.68397 2.12686 8.42791C2.40518 8.17186 2.53506 7.8824 2.53506 7.50018C2.53506 7.2701 2.51279 7.17361 2.43115 6.98436C2.30127 6.6949 2.01182 6.424 1.72607 6.31639C1.51455 6.23475 1.11748 6.21619 0.928223 6.27186Z"/><path fill="#393F46" d="M5.16934 6.57227C4.71289 6.66504 4.41602 7.025 4.41602 7.5C4.41602 7.89336 4.6127 8.20137 4.97266 8.36836L5.13965 8.44629H11.708C17.8311 8.44629 18.2838 8.44258 18.41 8.3832C18.6104 8.29043 18.7662 8.1457 18.8812 7.94902C18.9666 7.8043 18.9814 7.7375 18.9814 7.5C18.9814 7.2625 18.9666 7.1957 18.8812 7.05098C18.7662 6.8543 18.6104 6.70957 18.41 6.6168C18.2838 6.55742 17.8311 6.55371 11.8008 6.54629C8.23828 6.54629 5.25469 6.55742 5.16934 6.57227Z"/><path fill="#393F46" d="M0.865625 12.1757C0.56875 12.2722 0.268164 12.5431 0.123438 12.8363C0.0380859 13.0144 0.0232422 13.0961 0.0195312 13.3632C0.0195312 13.649 0.0306641 13.7047 0.141992 13.9273C0.412891 14.4765 0.991797 14.7548 1.56699 14.6064C2.16074 14.458 2.53184 13.983 2.53184 13.3818C2.53555 12.5097 1.69687 11.9048 0.865625 12.1757Z"/><path fill="#393F46" d="M4.9541 12.5949C4.60898 12.7582 4.41602 13.0625 4.41602 13.4521C4.41602 13.7341 4.54219 14.0125 4.74258 14.1794C5.02832 14.4169 4.60898 14.4021 11.7822 14.3947L18.3135 14.3836L18.4619 14.3019C18.8033 14.1201 18.9777 13.8306 18.9814 13.4558C18.9814 13.0773 18.8033 12.7767 18.4693 12.5949C18.358 12.5318 17.9795 12.5281 11.7451 12.5207L5.13965 12.5095L4.9541 12.5949Z"/></svg>