<svg xmlns="http://www.w3.org/2000/svg" xmlns:xlink="http://www.w3.org/1999/xlink" id="svg" width="400" height="400" version="1.1" viewBox="0 0 400 400"><g id="svgg"><path id="path0" fill="#8338ec" fill-rule="evenodd" stroke="none" d="M192.600 0.388 C 191.940 0.529,191.436 0.833,191.480 1.063 C 191.527 1.307,191.127 1.399,190.521 1.283 C 189.805 1.146,189.569 1.227,189.764 1.542 C 189.932 1.814,189.784 2.000,189.400 2.000 C 189.044 2.000,188.864 2.180,189.000 2.400 C 189.142 2.629,188.782 2.800,188.157 2.800 C 187.557 2.800,187.185 2.918,187.330 3.063 C 187.911 3.644,186.726 4.436,186.070 3.905 C 185.727 3.627,185.565 3.598,185.710 3.840 C 185.854 4.082,185.529 4.517,184.986 4.807 C 184.444 5.098,184.000 5.585,184.000 5.891 C 184.000 6.197,183.847 6.353,183.660 6.237 C 183.473 6.122,183.086 6.465,182.800 7.000 C 182.514 7.535,182.136 7.884,181.961 7.776 C 181.785 7.667,181.712 7.943,181.798 8.389 C 181.884 8.835,181.772 9.200,181.548 9.200 C 180.811 9.200,179.943 10.310,180.504 10.536 C 180.801 10.656,180.724 10.750,180.313 10.768 C 179.871 10.789,179.708 11.015,179.855 11.400 C 179.982 11.730,179.886 12.000,179.643 12.000 C 179.399 12.000,179.200 12.270,179.200 12.600 C 179.200 12.930,179.036 13.200,178.835 13.200 C 178.635 13.200,178.524 13.690,178.590 14.289 C 178.661 14.933,178.442 15.599,178.055 15.919 C 177.695 16.216,177.625 16.345,177.900 16.206 C 178.586 15.859,178.529 16.329,177.796 17.061 C 177.464 17.393,177.295 17.830,177.420 18.032 C 177.545 18.235,177.475 18.400,177.263 18.400 C 177.052 18.400,176.979 18.983,177.101 19.700 C 177.549 22.337,177.628 233.200,177.181 233.200 C 176.945 233.200,176.881 233.408,177.038 233.662 C 177.221 233.957,177.147 234.015,176.835 233.821 C 176.566 233.655,176.441 233.269,176.558 232.964 C 176.675 232.659,176.553 232.452,176.286 232.505 C 176.019 232.557,175.845 232.375,175.900 232.100 C 175.955 231.825,175.775 231.645,175.500 231.700 C 175.225 231.755,175.045 231.575,175.100 231.300 C 175.155 231.025,174.983 230.845,174.718 230.900 C 174.453 230.955,174.228 230.790,174.218 230.533 C 174.208 230.277,174.036 229.917,173.836 229.733 C 173.624 229.540,173.592 229.610,173.759 229.900 C 173.918 230.175,173.857 230.400,173.624 230.400 C 173.391 230.400,173.200 230.238,173.200 230.040 C 173.200 229.571,170.429 226.800,169.960 226.800 C 169.762 226.800,169.600 226.609,169.600 226.376 C 169.600 226.143,169.825 226.082,170.100 226.241 C 170.390 226.408,170.460 226.376,170.267 226.164 C 170.083 225.964,169.723 225.792,169.467 225.782 C 169.210 225.772,169.045 225.547,169.100 225.282 C 169.155 225.017,168.975 224.845,168.700 224.900 C 168.425 224.955,168.245 224.775,168.300 224.500 C 168.355 224.225,168.175 224.045,167.900 224.100 C 167.625 224.155,167.443 223.981,167.495 223.714 C 167.554 223.414,167.337 223.326,166.926 223.484 C 166.418 223.679,166.324 223.576,166.526 223.049 C 166.684 222.638,166.631 222.457,166.395 222.603 C 166.178 222.737,166.000 222.653,166.000 222.415 C 166.000 221.852,161.748 217.600,161.185 217.600 C 160.947 217.600,160.863 217.422,160.997 217.205 C 161.143 216.969,160.962 216.916,160.551 217.074 C 160.016 217.279,159.921 217.184,160.126 216.649 C 160.284 216.238,160.231 216.057,159.995 216.203 C 159.778 216.337,159.600 216.167,159.600 215.824 C 159.600 215.481,159.375 215.245,159.100 215.300 C 158.825 215.355,158.645 215.175,158.700 214.900 C 158.755 214.625,158.575 214.445,158.300 214.500 C 158.025 214.555,157.843 214.381,157.895 214.114 C 157.950 213.834,157.739 213.725,157.395 213.857 C 156.867 214.060,156.614 213.613,156.748 212.714 C 156.771 212.557,156.539 212.525,156.231 212.643 C 155.897 212.772,155.566 212.522,155.407 212.023 C 155.262 211.564,154.994 211.280,154.813 211.392 C 154.496 211.588,153.906 210.628,153.835 209.800 C 153.816 209.580,153.530 209.392,153.200 209.382 C 152.870 209.372,152.645 209.147,152.700 208.882 C 152.755 208.617,152.638 208.445,152.440 208.500 C 152.242 208.555,152.073 208.442,152.065 208.249 C 152.057 208.057,151.654 207.697,151.170 207.449 C 150.686 207.202,150.360 206.906,150.445 206.790 C 150.679 206.473,149.445 205.257,149.100 205.466 C 148.935 205.565,148.800 205.452,148.800 205.213 C 148.800 204.480,145.214 201.144,144.740 201.437 C 144.475 201.601,144.371 201.488,144.480 201.159 C 144.582 200.855,144.290 200.410,143.832 200.170 C 143.375 199.931,143.045 199.524,143.100 199.267 C 143.155 199.010,142.975 198.845,142.700 198.900 C 142.425 198.955,142.245 198.775,142.300 198.500 C 142.355 198.225,142.175 198.045,141.900 198.100 C 141.625 198.155,141.443 197.981,141.495 197.714 C 141.554 197.414,141.337 197.326,140.926 197.484 C 140.427 197.675,140.324 197.575,140.513 197.082 C 140.652 196.721,140.565 196.302,140.321 196.151 C 140.052 195.985,139.989 196.059,140.162 196.338 C 140.319 196.592,140.287 196.800,140.091 196.800 C 139.895 196.800,139.494 196.350,139.200 195.801 C 138.906 195.251,138.584 194.882,138.485 194.982 C 138.155 195.311,137.145 194.013,137.404 193.593 C 137.545 193.366,137.511 193.206,137.330 193.237 C 136.411 193.397,135.936 193.144,136.143 192.605 C 136.275 192.261,136.166 192.050,135.886 192.105 C 135.619 192.157,135.445 191.975,135.500 191.700 C 135.555 191.425,135.375 191.245,135.100 191.300 C 134.825 191.355,134.645 191.175,134.700 190.900 C 134.755 190.625,134.575 190.445,134.300 190.500 C 134.025 190.555,133.843 190.381,133.895 190.114 C 133.954 189.814,133.737 189.726,133.326 189.884 C 132.812 190.081,132.723 189.977,132.935 189.425 C 133.142 188.886,133.056 188.770,132.584 188.951 C 132.233 189.085,132.063 189.022,132.197 188.805 C 132.493 188.326,127.609 183.400,126.838 183.400 C 126.529 183.400,126.228 183.069,126.168 182.663 C 126.033 181.745,125.601 181.267,125.598 182.033 C 125.597 182.389,125.262 182.220,124.698 181.581 C 124.204 181.021,123.960 180.800,124.157 181.090 C 124.419 181.479,124.339 181.552,123.857 181.366 C 123.495 181.228,123.200 180.869,123.200 180.570 C 123.200 180.267,122.951 180.121,122.640 180.240 C 122.333 180.358,121.945 180.234,121.779 179.965 C 121.585 179.653,121.643 179.579,121.938 179.762 C 122.192 179.919,122.400 179.836,122.400 179.577 C 122.400 179.294,122.010 179.181,121.420 179.294 C 120.881 179.397,120.476 179.305,120.520 179.090 C 120.564 178.874,120.063 178.619,119.407 178.523 C 118.752 178.427,118.122 178.225,118.007 178.074 C 117.893 177.923,117.350 177.765,116.800 177.722 C 115.399 177.614,114.691 177.434,114.024 177.018 C 113.672 176.799,113.396 176.811,113.317 177.049 C 113.179 177.463,110.416 177.413,108.900 176.970 C 108.220 176.771,108.000 176.871,108.000 177.377 C 108.000 177.746,107.817 177.934,107.593 177.796 C 107.370 177.658,107.286 177.385,107.407 177.189 C 107.527 176.994,107.169 177.071,106.609 177.361 C 106.050 177.652,105.144 177.840,104.596 177.780 C 104.048 177.720,103.600 177.822,103.600 178.007 C 103.600 178.193,103.195 178.406,102.700 178.482 C 102.205 178.557,101.839 178.823,101.887 179.072 C 101.935 179.320,101.701 179.629,101.367 179.757 C 101.024 179.889,100.864 179.820,101.000 179.600 C 101.140 179.374,100.965 179.315,100.587 179.460 C 100.227 179.598,99.780 180.091,99.592 180.556 C 99.269 181.355,99.249 181.358,99.225 180.611 C 99.201 179.866,99.166 179.871,98.577 180.712 C 98.234 181.201,98.082 181.809,98.239 182.063 C 98.421 182.357,98.347 182.414,98.035 182.221 C 97.766 182.055,97.642 181.667,97.760 181.360 C 98.085 180.514,97.805 180.667,96.227 182.200 C 95.434 182.970,94.979 183.600,95.216 183.600 C 95.453 183.600,95.541 183.772,95.411 183.983 C 95.281 184.193,94.903 184.261,94.571 184.133 C 94.239 184.006,94.020 184.082,94.084 184.303 C 94.148 184.523,93.696 185.175,93.079 185.752 C 92.463 186.328,92.067 186.800,92.200 186.800 C 92.332 186.800,91.982 187.402,91.420 188.138 C 90.859 188.874,90.400 189.864,90.400 190.338 C 90.400 190.812,90.209 191.200,89.976 191.200 C 89.743 191.200,89.655 191.365,89.780 191.568 C 89.905 191.770,89.739 192.204,89.410 192.533 C 89.016 192.927,88.829 193.849,88.861 195.247 C 88.889 196.511,88.725 197.425,88.454 197.515 C 87.847 197.718,87.848 202.283,88.454 202.485 C 88.732 202.577,88.888 203.527,88.856 204.918 C 88.827 206.201,88.978 207.200,89.202 207.200 C 89.421 207.200,89.600 207.560,89.600 208.000 C 89.600 208.440,89.780 208.800,90.000 208.800 C 90.220 208.800,90.400 209.171,90.400 209.624 C 90.400 210.077,90.580 210.336,90.800 210.200 C 91.025 210.061,91.200 210.380,91.200 210.927 C 91.200 211.463,91.474 212.130,91.810 212.408 C 92.145 212.686,92.336 212.997,92.234 213.099 C 92.133 213.201,92.533 213.737,93.125 214.290 C 93.716 214.844,94.148 215.477,94.084 215.697 C 94.020 215.918,94.260 215.986,94.617 215.849 C 95.029 215.691,95.207 215.778,95.104 216.088 C 94.921 216.637,96.523 218.400,97.205 218.400 C 97.448 218.400,97.572 218.535,97.480 218.700 C 97.259 219.096,99.852 221.615,100.161 221.306 C 100.292 221.174,100.400 221.290,100.400 221.562 C 100.400 221.834,100.670 222.327,101.000 222.657 C 101.330 222.987,101.601 223.109,101.603 222.929 C 101.604 222.748,101.933 223.096,102.333 223.703 C 102.733 224.310,103.182 224.685,103.330 224.537 C 103.479 224.388,103.600 224.487,103.600 224.757 C 103.600 225.027,103.780 225.136,104.000 225.000 C 104.220 224.864,104.400 224.949,104.400 225.190 C 104.400 225.758,107.042 228.400,107.610 228.400 C 107.851 228.400,107.936 228.580,107.800 228.800 C 107.664 229.020,107.844 229.200,108.200 229.200 C 108.556 229.200,108.736 229.380,108.600 229.600 C 108.464 229.820,108.573 230.000,108.843 230.000 C 109.113 230.000,109.232 230.101,109.109 230.224 C 108.830 230.504,110.688 232.400,111.242 232.400 C 111.465 232.400,111.536 232.580,111.400 232.800 C 111.264 233.020,111.463 233.200,111.843 233.200 C 112.223 233.200,112.422 233.311,112.286 233.448 C 111.976 233.758,112.985 234.800,113.595 234.800 C 113.844 234.800,113.965 234.935,113.866 235.100 C 113.629 235.491,114.640 236.426,114.957 236.109 C 115.091 235.976,115.200 236.090,115.200 236.362 C 115.200 237.005,116.231 238.036,116.552 237.714 C 116.689 237.578,116.800 237.777,116.800 238.157 C 116.800 238.537,116.980 238.736,117.200 238.600 C 117.420 238.464,117.600 238.535,117.600 238.758 C 117.600 239.312,119.496 241.170,119.776 240.891 C 119.899 240.768,120.000 240.887,120.000 241.157 C 120.000 241.427,120.180 241.536,120.400 241.400 C 120.620 241.264,120.800 241.444,120.800 241.800 C 120.800 242.156,120.980 242.336,121.200 242.200 C 121.420 242.064,121.600 242.149,121.600 242.390 C 121.600 242.958,124.242 245.600,124.810 245.600 C 125.051 245.600,125.136 245.780,125.000 246.000 C 124.864 246.220,124.973 246.400,125.243 246.400 C 125.513 246.400,125.612 246.521,125.463 246.670 C 125.315 246.818,125.690 247.267,126.297 247.667 C 126.904 248.067,127.252 248.396,127.071 248.397 C 126.891 248.399,127.013 248.670,127.343 249.000 C 127.673 249.330,128.146 249.600,128.395 249.600 C 128.644 249.600,128.772 249.735,128.680 249.900 C 128.459 250.296,131.052 252.815,131.361 252.506 C 131.492 252.374,131.600 252.485,131.600 252.752 C 131.600 253.383,133.442 255.225,133.758 254.909 C 133.891 254.776,134.000 254.967,134.000 255.333 C 134.000 255.700,134.181 256.000,134.403 256.000 C 134.624 256.000,135.191 256.444,135.663 256.986 C 136.135 257.529,136.673 257.878,136.860 257.763 C 137.047 257.647,137.200 257.844,137.200 258.200 C 137.200 258.556,137.380 258.736,137.600 258.600 C 137.820 258.464,138.000 258.549,138.000 258.790 C 138.000 259.358,140.642 262.000,141.210 262.000 C 141.451 262.000,141.536 262.180,141.400 262.400 C 141.264 262.620,141.444 262.800,141.800 262.800 C 142.156 262.800,142.353 262.953,142.237 263.140 C 142.122 263.327,142.471 263.865,143.014 264.337 C 143.556 264.809,144.000 265.376,144.000 265.597 C 144.000 265.819,144.300 266.000,144.667 266.000 C 145.033 266.000,145.224 266.109,145.091 266.242 C 144.788 266.546,146.605 268.400,147.205 268.400 C 147.448 268.400,147.572 268.535,147.480 268.700 C 147.259 269.096,149.852 271.615,150.161 271.306 C 150.292 271.174,150.400 271.290,150.400 271.562 C 150.400 271.834,150.670 272.327,151.000 272.657 C 151.330 272.987,151.601 273.109,151.603 272.929 C 151.604 272.748,151.933 273.096,152.333 273.703 C 152.733 274.310,153.182 274.685,153.330 274.537 C 153.479 274.388,153.600 274.487,153.600 274.757 C 153.600 275.027,153.780 275.136,154.000 275.000 C 154.220 274.864,154.400 274.949,154.400 275.190 C 154.400 275.758,157.042 278.400,157.610 278.400 C 157.851 278.400,157.936 278.580,157.800 278.800 C 157.664 279.020,157.844 279.200,158.200 279.200 C 158.556 279.200,158.736 279.380,158.600 279.600 C 158.464 279.820,158.573 280.000,158.843 280.000 C 159.113 280.000,159.232 280.101,159.109 280.224 C 158.830 280.504,160.688 282.400,161.242 282.400 C 161.465 282.400,161.536 282.580,161.400 282.800 C 161.264 283.020,161.463 283.200,161.843 283.200 C 162.223 283.200,162.422 283.311,162.286 283.448 C 161.976 283.758,162.985 284.800,163.595 284.800 C 163.844 284.800,163.965 284.935,163.866 285.100 C 163.629 285.491,164.640 286.426,164.957 286.109 C 165.091 285.976,165.200 286.090,165.200 286.362 C 165.200 287.005,166.231 288.036,166.552 287.714 C 166.689 287.578,166.800 287.777,166.800 288.157 C 166.800 288.537,166.980 288.736,167.200 288.600 C 167.420 288.464,167.600 288.535,167.600 288.758 C 167.600 289.312,169.496 291.170,169.776 290.891 C 169.899 290.768,170.000 290.887,170.000 291.157 C 170.000 291.427,170.180 291.536,170.400 291.400 C 170.620 291.264,170.800 291.444,170.800 291.800 C 170.800 292.156,170.980 292.336,171.200 292.200 C 171.420 292.064,171.600 292.149,171.600 292.390 C 171.600 292.958,174.242 295.600,174.810 295.600 C 175.051 295.600,175.136 295.780,175.000 296.000 C 174.864 296.220,174.973 296.400,175.243 296.400 C 175.513 296.400,175.612 296.521,175.463 296.670 C 175.315 296.818,175.690 297.267,176.297 297.667 C 176.904 298.067,177.252 298.396,177.071 298.397 C 176.891 298.399,177.013 298.670,177.343 299.000 C 177.673 299.330,178.166 299.600,178.438 299.600 C 178.710 299.600,178.826 299.708,178.694 299.839 C 178.385 300.148,180.904 302.741,181.300 302.520 C 181.465 302.428,181.600 302.552,181.600 302.795 C 181.600 303.477,183.363 305.079,183.912 304.896 C 184.218 304.794,184.310 304.970,184.157 305.367 C 184.016 305.735,184.122 306.000,184.411 306.000 C 184.685 306.000,185.334 306.459,185.854 307.021 C 186.374 307.582,186.800 307.938,186.800 307.811 C 186.800 307.685,187.288 307.901,187.885 308.291 C 188.539 308.719,188.840 308.790,188.643 308.470 C 188.374 308.035,188.461 308.032,189.132 308.451 C 189.581 308.731,189.859 309.104,189.751 309.280 C 189.642 309.456,190.013 309.600,190.576 309.600 C 191.139 309.600,191.600 309.780,191.600 310.000 C 191.600 310.220,191.870 310.400,192.200 310.400 C 192.530 310.400,192.800 310.580,192.800 310.800 C 192.800 311.024,193.907 311.200,195.320 311.200 C 196.782 311.200,198.066 311.410,198.379 311.700 C 198.812 312.102,198.859 312.096,198.617 311.670 C 198.368 311.232,198.461 311.231,199.158 311.667 C 199.854 312.101,200.146 312.101,200.842 311.667 C 201.539 311.231,201.632 311.232,201.383 311.670 C 201.141 312.096,201.188 312.102,201.621 311.700 C 201.918 311.425,203.035 311.200,204.104 311.200 C 205.173 311.200,205.953 311.047,205.837 310.860 C 205.722 310.674,206.201 310.505,206.901 310.485 C 207.602 310.465,208.361 310.211,208.588 309.921 C 208.814 309.631,209.418 309.454,209.929 309.529 C 210.599 309.626,210.919 309.431,211.076 308.832 C 211.195 308.374,211.463 308.000,211.670 308.000 C 211.878 308.000,211.916 308.225,211.755 308.500 C 211.594 308.775,211.823 308.685,212.264 308.299 C 212.704 307.914,213.185 307.719,213.332 307.866 C 213.480 308.013,213.600 307.877,213.600 307.564 C 213.600 307.251,214.152 306.751,214.826 306.453 C 215.647 306.089,215.975 305.713,215.821 305.311 C 215.677 304.936,215.780 304.779,216.095 304.891 C 216.656 305.092,220.082 301.815,219.705 301.438 C 219.574 301.307,219.685 301.200,219.952 301.200 C 220.583 301.200,222.425 299.358,222.109 299.042 C 221.976 298.909,222.197 298.800,222.600 298.800 C 223.003 298.800,223.212 298.679,223.063 298.530 C 222.915 298.382,223.290 297.933,223.897 297.533 C 224.504 297.133,224.820 296.801,224.600 296.796 C 224.380 296.791,224.752 296.295,225.426 295.694 C 226.100 295.092,226.769 294.285,226.913 293.900 C 227.057 293.515,227.408 293.200,227.693 293.200 C 227.977 293.200,228.548 292.750,228.961 292.200 C 229.374 291.650,229.859 291.200,230.038 291.200 C 230.527 291.200,232.400 289.230,232.400 288.715 C 232.400 288.468,232.507 288.374,232.638 288.505 C 232.946 288.813,236.337 285.496,236.118 285.100 C 236.027 284.935,236.152 284.800,236.395 284.800 C 236.995 284.800,238.812 282.946,238.509 282.642 C 238.376 282.509,238.468 282.400,238.715 282.400 C 239.202 282.400,241.345 280.409,240.882 280.387 C 240.727 280.379,240.997 280.042,241.483 279.636 C 241.969 279.231,242.254 278.787,242.116 278.650 C 241.979 278.512,242.167 278.400,242.533 278.400 C 242.900 278.400,243.200 278.124,243.200 277.787 C 243.200 277.451,243.515 277.056,243.900 276.910 C 244.812 276.564,245.600 275.774,245.600 275.205 C 245.600 274.956,245.780 274.864,246.000 275.000 C 246.220 275.136,246.400 275.027,246.400 274.757 C 246.400 274.487,246.521 274.388,246.670 274.537 C 246.818 274.685,247.267 274.310,247.667 273.703 C 248.067 273.096,248.396 272.748,248.397 272.929 C 248.399 273.109,248.670 272.987,249.000 272.657 C 249.330 272.327,249.600 271.834,249.600 271.562 C 249.600 271.290,249.708 271.174,249.839 271.306 C 250.148 271.615,252.741 269.096,252.520 268.700 C 252.428 268.535,252.588 268.392,252.876 268.382 C 253.164 268.371,254.030 267.642,254.800 266.760 C 256.447 264.874,264.157 257.150,267.535 254.000 C 268.833 252.790,269.818 251.665,269.724 251.500 C 269.630 251.335,269.752 251.200,269.995 251.200 C 270.595 251.200,272.412 249.346,272.109 249.042 C 271.976 248.909,272.197 248.800,272.600 248.800 C 273.003 248.800,273.212 248.679,273.063 248.530 C 272.915 248.382,273.290 247.933,273.897 247.533 C 274.504 247.133,274.820 246.801,274.600 246.796 C 274.380 246.791,274.752 246.295,275.426 245.694 C 276.100 245.092,276.769 244.285,276.913 243.900 C 277.057 243.515,277.408 243.200,277.693 243.200 C 277.977 243.200,278.548 242.750,278.961 242.200 C 279.374 241.650,279.859 241.200,280.038 241.200 C 280.527 241.200,282.400 239.230,282.400 238.715 C 282.400 238.468,282.509 238.376,282.642 238.509 C 282.958 238.825,284.800 236.983,284.800 236.352 C 284.800 236.085,284.907 235.974,285.038 236.105 C 285.346 236.413,288.737 233.096,288.518 232.700 C 288.427 232.535,288.535 232.400,288.758 232.400 C 289.241 232.400,291.200 230.505,291.200 230.038 C 291.200 229.859,291.650 229.374,292.200 228.961 C 292.750 228.548,293.200 227.977,293.200 227.693 C 293.200 227.408,293.515 227.057,293.900 226.913 C 294.285 226.769,295.092 226.100,295.694 225.426 C 296.295 224.752,296.791 224.380,296.796 224.600 C 296.801 224.820,297.133 224.504,297.533 223.897 C 297.933 223.290,298.382 222.915,298.530 223.063 C 298.679 223.212,298.800 223.003,298.800 222.600 C 298.800 222.197,298.909 221.976,299.042 222.109 C 299.358 222.425,301.200 220.583,301.200 219.952 C 301.200 219.685,301.307 219.574,301.438 219.705 C 301.746 220.013,305.137 216.696,304.918 216.300 C 304.827 216.135,305.063 216.000,305.443 216.000 C 305.823 216.000,306.025 215.892,305.894 215.760 C 305.762 215.628,306.188 214.998,306.841 214.360 C 307.493 213.722,307.909 213.200,307.765 213.200 C 307.620 213.200,307.743 212.910,308.037 212.556 C 308.331 212.201,308.631 211.465,308.704 210.919 C 308.777 210.373,309.189 209.549,309.619 209.088 C 310.347 208.306,310.599 207.356,310.421 206.060 C 310.378 205.746,310.539 205.639,310.806 205.804 C 311.133 206.006,311.232 205.536,311.148 204.172 C 311.072 202.935,311.202 202.199,311.515 202.095 C 312.104 201.899,312.185 198.000,311.600 198.000 C 311.380 198.000,311.200 197.021,311.200 195.824 C 311.200 194.610,310.996 193.521,310.738 193.362 C 310.454 193.186,310.385 193.252,310.559 193.534 C 310.749 193.841,310.611 193.903,310.141 193.722 C 309.710 193.557,309.625 193.392,309.920 193.293 C 310.498 193.101,310.569 191.600,310.000 191.600 C 309.780 191.600,309.600 191.139,309.600 190.576 C 309.600 189.996,309.427 189.660,309.200 189.800 C 308.980 189.936,308.800 189.868,308.800 189.650 C 308.800 189.431,308.642 188.835,308.448 188.326 C 308.254 187.817,308.074 187.265,308.048 187.100 C 307.964 186.575,306.214 184.995,305.851 185.116 C 305.659 185.180,305.608 184.955,305.738 184.616 C 305.907 184.176,305.721 183.998,305.087 183.994 C 304.368 183.989,304.313 183.914,304.800 183.600 C 305.278 183.291,305.197 183.205,304.400 183.175 C 303.850 183.154,303.608 183.052,303.861 182.948 C 304.151 182.830,303.958 182.394,303.343 181.780 C 302.181 180.618,301.945 180.557,302.255 181.500 C 302.381 181.885,302.107 181.660,301.645 181.000 C 301.183 180.340,300.798 179.980,300.790 180.200 C 300.781 180.420,300.555 180.322,300.287 179.981 C 299.724 179.266,297.552 178.307,296.748 178.419 C 295.736 178.559,295.151 178.403,295.369 178.050 C 295.488 177.857,295.139 177.669,294.593 177.632 C 292.310 177.476,292.000 177.414,292.000 177.110 C 292.000 176.828,291.285 176.878,287.723 177.408 C 287.241 177.480,286.780 177.341,286.700 177.099 C 286.606 176.819,286.342 176.790,285.976 177.018 C 285.309 177.434,284.601 177.614,283.200 177.722 C 282.650 177.765,282.094 177.944,281.964 178.120 C 281.834 178.297,281.204 178.509,280.564 178.593 C 279.924 178.677,279.310 178.760,279.200 178.779 C 279.090 178.797,279.270 178.989,279.600 179.206 C 280.022 179.482,279.795 179.521,278.833 179.336 C 277.682 179.115,277.505 179.175,277.712 179.716 C 277.886 180.167,277.786 180.293,277.380 180.137 C 277.061 180.014,276.800 180.114,276.800 180.357 C 276.800 180.601,276.540 180.800,276.223 180.800 C 275.905 180.800,275.365 181.200,275.023 181.689 C 274.609 182.280,274.399 182.381,274.397 181.989 C 274.396 181.657,274.078 181.881,273.667 182.503 C 273.267 183.110,272.818 183.485,272.670 183.337 C 272.521 183.188,272.400 183.377,272.400 183.757 C 272.400 184.137,272.220 184.336,272.000 184.200 C 271.780 184.064,271.600 184.263,271.600 184.643 C 271.600 185.023,271.489 185.222,271.352 185.086 C 271.048 184.781,270.248 185.555,269.890 186.500 C 269.744 186.885,269.427 187.200,269.184 187.200 C 268.582 187.200,267.579 188.245,267.886 188.552 C 268.022 188.689,267.823 188.800,267.443 188.800 C 267.063 188.800,266.864 188.980,267.000 189.200 C 267.136 189.420,266.956 189.600,266.600 189.600 C 266.244 189.600,266.064 189.780,266.200 190.000 C 266.336 190.220,266.145 190.400,265.775 190.400 C 265.230 190.400,265.195 190.511,265.587 190.984 C 265.988 191.467,265.931 191.541,265.259 191.411 C 264.649 191.294,264.507 191.414,264.691 191.893 C 264.854 192.317,264.779 192.434,264.468 192.242 C 264.187 192.068,264.000 192.202,264.000 192.576 C 264.000 193.138,263.533 193.379,262.700 193.247 C 262.535 193.221,262.400 193.470,262.400 193.800 C 262.400 194.130,262.209 194.400,261.976 194.400 C 261.743 194.400,261.651 194.559,261.771 194.753 C 261.891 194.947,261.406 195.393,260.694 195.744 C 259.982 196.095,259.533 196.386,259.696 196.391 C 260.241 196.408,258.630 198.000,258.068 198.000 C 257.723 198.000,257.608 198.243,257.762 198.645 C 257.939 199.106,257.837 199.223,257.405 199.057 C 257.028 198.912,256.800 199.055,256.800 199.436 C 256.800 199.772,256.620 199.936,256.400 199.800 C 256.180 199.664,256.000 199.863,256.000 200.243 C 256.000 200.623,255.889 200.822,255.752 200.686 C 255.442 200.376,254.400 201.385,254.400 201.995 C 254.400 202.244,254.220 202.336,254.000 202.200 C 253.780 202.064,253.600 202.239,253.600 202.589 C 253.600 202.939,253.285 203.344,252.900 203.490 C 251.955 203.848,251.181 204.648,251.486 204.952 C 251.622 205.089,251.423 205.200,251.043 205.200 C 250.663 205.200,250.464 205.380,250.600 205.600 C 250.736 205.820,250.556 206.000,250.200 206.000 C 249.844 206.000,249.664 206.180,249.800 206.400 C 249.936 206.620,249.745 206.800,249.375 206.800 C 248.839 206.800,248.798 206.915,249.174 207.369 C 249.561 207.835,249.497 207.898,248.817 207.720 C 248.149 207.546,248.041 207.642,248.262 208.217 C 248.427 208.646,248.378 208.834,248.141 208.687 C 247.924 208.553,247.500 208.784,247.200 209.200 C 246.900 209.616,246.479 209.849,246.265 209.717 C 246.051 209.584,246.004 209.683,246.161 209.936 C 246.488 210.466,244.570 212.400,243.718 212.400 C 243.407 212.400,243.256 212.566,243.381 212.769 C 243.507 212.973,243.065 213.526,242.400 214.000 C 241.735 214.474,241.312 215.058,241.461 215.299 C 241.634 215.579,241.492 215.644,241.066 215.481 C 240.624 215.311,240.400 215.431,240.400 215.836 C 240.400 216.172,240.220 216.336,240.000 216.200 C 239.780 216.064,239.600 216.244,239.600 216.600 C 239.600 216.956,239.420 217.136,239.200 217.000 C 238.980 216.864,238.800 217.044,238.800 217.400 C 238.800 217.756,238.620 217.936,238.400 217.800 C 238.180 217.664,238.000 217.844,238.000 218.200 C 238.000 218.556,237.840 218.749,237.645 218.628 C 237.450 218.508,237.197 218.767,237.083 219.204 C 236.969 219.642,236.577 220.000,236.214 220.000 C 235.850 220.000,235.664 220.180,235.800 220.400 C 235.936 220.620,235.756 220.800,235.400 220.800 C 235.044 220.800,234.864 220.980,235.000 221.200 C 235.136 221.420,234.956 221.600,234.600 221.600 C 234.244 221.600,234.064 221.780,234.200 222.000 C 234.336 222.220,234.156 222.400,233.800 222.400 C 233.444 222.400,233.264 222.580,233.400 222.800 C 233.536 223.020,233.356 223.200,233.000 223.200 C 232.644 223.200,232.464 223.380,232.600 223.600 C 232.736 223.820,232.547 224.000,232.181 224.000 C 231.743 224.000,231.596 224.213,231.753 224.621 C 231.884 224.962,231.846 225.152,231.668 225.042 C 231.491 224.933,231.100 225.184,230.800 225.600 C 230.500 226.016,230.107 226.266,229.927 226.155 C 229.747 226.044,229.597 226.368,229.594 226.876 C 229.589 227.575,229.501 227.662,229.230 227.235 C 228.955 226.801,228.841 226.894,228.736 227.635 C 228.642 228.301,228.301 228.642,227.635 228.736 C 226.894 228.841,226.801 228.955,227.235 229.230 C 227.662 229.501,227.575 229.589,226.876 229.594 C 226.368 229.597,226.044 229.747,226.155 229.927 C 226.266 230.107,226.016 230.500,225.600 230.800 C 225.184 231.100,224.933 231.491,225.042 231.668 C 225.152 231.846,224.962 231.884,224.621 231.753 C 224.213 231.596,224.000 231.743,224.000 232.181 C 224.000 232.547,223.820 232.736,223.600 232.600 C 223.380 232.464,223.200 232.543,223.200 232.776 C 223.200 233.009,223.018 233.200,222.796 233.200 C 222.279 233.200,222.452 21.436,222.970 20.037 C 223.257 19.260,223.218 19.140,222.763 19.414 C 222.283 19.703,222.281 19.653,222.749 19.077 C 223.051 18.705,223.135 18.400,222.936 18.400 C 222.737 18.400,222.534 17.912,222.485 17.314 C 222.435 16.717,222.132 16.082,221.810 15.902 C 221.406 15.676,221.299 15.207,221.463 14.387 C 221.613 13.634,221.536 13.200,221.250 13.200 C 221.003 13.200,220.800 12.913,220.800 12.563 C 220.800 12.212,220.440 11.831,220.000 11.716 C 219.082 11.476,219.000 11.160,219.680 10.480 C 220.053 10.107,220.004 10.000,219.456 10.000 C 219.069 10.000,218.864 9.820,219.000 9.600 C 219.136 9.380,218.946 9.200,218.577 9.200 C 218.103 9.200,217.968 8.965,218.116 8.399 C 218.231 7.959,218.162 7.700,217.963 7.823 C 217.763 7.946,217.600 7.902,217.600 7.724 C 217.599 7.198,215.874 5.365,214.889 4.843 C 214.388 4.577,214.064 4.221,214.169 4.050 C 214.274 3.880,213.964 3.754,213.480 3.770 C 212.978 3.787,212.643 3.585,212.700 3.300 C 212.755 3.025,212.440 2.800,212.000 2.800 C 211.560 2.800,211.200 2.599,211.200 2.353 C 211.200 2.099,210.845 2.000,210.377 2.122 C 209.666 2.308,209.625 2.251,210.077 1.704 C 210.536 1.149,210.468 1.096,209.520 1.276 C 208.897 1.395,208.474 1.309,208.520 1.074 C 208.708 0.119,196.348 -0.414,192.600 0.388 M16.800 266.488 C 16.800 266.660,16.429 266.800,15.976 266.800 C 15.434 266.800,15.249 266.970,15.435 267.300 C 15.654 267.688,15.602 267.694,15.204 267.326 C 14.807 266.958,14.559 266.983,14.104 267.439 C 13.756 267.787,13.166 267.929,12.658 267.787 C 12.036 267.614,11.953 267.653,12.354 267.931 C 12.973 268.359,11.827 269.200,10.626 269.200 C 10.282 269.200,10.000 269.380,10.000 269.600 C 10.000 269.820,9.751 270.000,9.446 270.000 C 9.141 270.000,8.587 270.466,8.214 271.035 C 7.841 271.604,7.443 271.976,7.329 271.863 C 6.995 271.528,3.617 275.102,3.179 276.254 C 2.958 276.836,2.661 277.194,2.518 277.052 C 2.198 276.732,1.167 279.623,1.443 280.069 C 1.552 280.246,1.364 280.284,1.024 280.154 C 0.532 279.965,0.435 280.171,0.550 281.158 C 0.630 281.841,0.545 282.400,0.362 282.400 C -0.034 282.400,-0.131 318.761,0.252 323.735 C 0.397 325.627,0.640 327.099,0.791 327.005 C 0.943 326.912,1.067 327.089,1.067 327.400 C 1.067 327.711,0.917 327.872,0.733 327.759 C 0.550 327.645,0.400 327.728,0.400 327.943 C 0.400 328.158,0.563 328.393,0.762 328.467 C 0.961 328.540,1.186 329.050,1.262 329.600 C 1.338 330.150,1.617 330.830,1.883 331.112 C 2.149 331.393,2.264 331.890,2.138 332.217 C 2.013 332.543,2.156 333.112,2.455 333.482 C 2.831 333.945,2.845 334.060,2.500 333.853 C 2.187 333.665,2.000 333.781,2.000 334.164 C 2.000 334.509,2.232 334.686,2.533 334.570 C 2.927 334.419,3.020 334.684,2.888 335.583 C 2.783 336.299,2.887 336.800,3.142 336.800 C 3.380 336.800,3.471 337.070,3.345 337.400 C 3.218 337.730,3.298 338.000,3.522 338.000 C 3.746 338.000,3.880 338.315,3.821 338.700 C 3.761 339.085,3.937 339.727,4.212 340.126 C 4.487 340.525,4.620 341.200,4.509 341.626 C 4.398 342.052,4.508 342.400,4.753 342.400 C 4.999 342.400,5.200 342.828,5.200 343.351 C 5.200 343.874,5.478 344.533,5.818 344.815 C 6.158 345.097,6.340 345.579,6.223 345.885 C 6.105 346.191,6.187 346.332,6.405 346.197 C 6.622 346.063,6.800 346.170,6.800 346.437 C 6.800 347.057,8.854 351.324,9.302 351.637 C 9.489 351.767,9.611 352.037,9.574 352.237 C 9.410 353.107,9.635 353.626,10.062 353.362 C 10.354 353.181,10.415 353.252,10.227 353.556 C 10.064 353.819,10.217 354.471,10.566 355.004 C 10.914 355.536,11.200 356.278,11.200 356.653 C 11.200 357.027,11.305 357.228,11.433 357.100 C 11.770 356.763,13.271 358.361,13.012 358.780 C 12.893 358.974,12.963 359.192,13.168 359.266 C 13.372 359.340,13.598 359.670,13.670 360.000 C 13.741 360.330,14.115 360.835,14.500 361.123 C 14.885 361.410,15.200 361.905,15.200 362.223 C 15.200 362.540,15.380 362.800,15.600 362.800 C 15.820 362.800,16.000 363.004,16.000 363.253 C 16.000 363.756,17.529 365.200,18.061 365.200 C 18.248 365.200,18.400 365.759,18.400 366.443 C 18.400 367.371,18.549 367.629,18.987 367.460 C 19.310 367.336,19.671 367.392,19.790 367.583 C 19.908 367.775,19.779 368.023,19.502 368.134 C 19.208 368.253,19.300 368.350,19.724 368.368 C 20.122 368.386,20.337 368.578,20.203 368.795 C 20.058 369.030,20.237 369.084,20.645 368.927 C 21.080 368.761,21.235 368.820,21.068 369.091 C 20.923 369.325,21.748 370.469,22.902 371.632 C 24.056 372.795,24.961 373.875,24.913 374.033 C 24.866 374.191,25.264 374.430,25.799 374.564 C 26.449 374.727,26.696 375.006,26.543 375.404 C 26.417 375.732,26.477 376.000,26.676 376.000 C 27.323 376.000,31.302 379.357,31.013 379.660 C 30.940 379.737,31.133 380.032,31.440 380.316 C 31.801 380.648,32.000 380.675,32.000 380.392 C 32.000 380.151,32.172 380.059,32.383 380.189 C 32.593 380.319,32.664 380.690,32.540 381.013 C 32.386 381.415,32.581 381.600,33.157 381.600 C 33.621 381.600,34.000 381.780,34.000 382.000 C 34.000 382.220,34.230 382.400,34.512 382.400 C 34.793 382.400,35.283 382.760,35.600 383.200 C 35.917 383.640,36.407 384.000,36.688 384.000 C 36.970 384.000,37.200 384.191,37.200 384.425 C 37.200 384.659,37.603 384.794,38.096 384.725 C 38.594 384.656,39.015 384.822,39.046 385.100 C 39.076 385.375,39.123 385.801,39.150 386.047 C 39.178 386.296,39.625 386.412,40.163 386.309 C 40.857 386.176,41.069 386.277,40.919 386.667 C 40.783 387.021,40.917 387.130,41.304 386.982 C 41.642 386.852,42.004 387.033,42.146 387.402 C 42.288 387.774,42.595 387.926,42.865 387.760 C 43.183 387.563,43.253 387.685,43.081 388.134 C 42.915 388.566,43.028 388.800,43.403 388.800 C 43.721 388.800,44.570 389.159,45.290 389.599 C 46.011 390.038,46.893 390.398,47.251 390.399 C 47.609 390.399,48.133 390.678,48.415 391.018 C 48.697 391.358,49.147 391.552,49.415 391.449 C 49.683 391.347,50.104 391.464,50.351 391.711 C 50.598 391.958,50.800 392.036,50.800 391.884 C 50.800 391.732,51.166 391.921,51.613 392.304 C 52.060 392.687,52.600 393.023,52.813 393.050 C 53.026 393.078,53.391 393.123,53.624 393.150 C 53.857 393.178,53.937 393.378,53.803 393.595 C 53.668 393.813,53.809 393.895,54.115 393.777 C 54.421 393.660,54.903 393.842,55.185 394.182 C 55.467 394.522,55.901 394.797,56.149 394.794 C 56.397 394.791,56.330 394.613,56.000 394.400 C 55.670 394.187,55.591 394.009,55.825 394.006 C 56.058 394.003,56.636 394.360,57.108 394.800 C 57.580 395.240,58.298 395.600,58.703 395.600 C 59.108 395.600,59.682 395.825,59.979 396.100 C 60.316 396.413,60.421 396.427,60.258 396.137 C 60.062 395.787,60.242 395.787,60.996 396.137 C 61.545 396.392,61.995 396.735,61.997 396.900 C 61.999 397.065,62.821 397.200,63.824 397.200 C 65.006 397.200,65.555 397.349,65.385 397.624 C 65.211 397.906,65.682 397.992,66.790 397.881 C 67.858 397.774,68.652 397.909,69.000 398.257 C 69.299 398.556,70.106 398.800,70.795 398.800 C 71.604 398.800,71.951 398.956,71.775 399.240 C 71.595 399.531,71.807 399.518,72.400 399.200 C 72.893 398.936,73.189 398.895,73.057 399.108 C 72.640 399.783,74.539 399.793,199.800 399.775 C 325.677 399.757,327.339 399.749,326.938 399.100 C 326.809 398.891,327.107 398.936,327.600 399.200 C 328.193 399.518,328.405 399.531,328.225 399.240 C 327.954 398.802,328.616 398.645,330.200 398.772 C 330.865 398.825,330.899 398.766,330.400 398.424 C 329.953 398.117,330.326 398.011,331.867 398.006 C 333.003 398.003,333.997 397.809,334.075 397.576 C 334.152 397.343,334.791 397.135,335.494 397.115 C 336.197 397.095,336.678 396.926,336.563 396.740 C 336.447 396.553,336.543 396.400,336.776 396.400 C 337.009 396.400,337.200 396.580,337.200 396.800 C 337.200 397.020,337.410 397.200,337.667 397.200 C 337.923 397.200,338.016 397.083,337.873 396.940 C 337.352 396.418,339.042 395.625,340.700 395.613 C 341.635 395.606,342.400 395.420,342.400 395.200 C 342.400 394.980,342.670 394.800,343.000 394.800 C 343.330 394.800,343.600 394.598,343.600 394.351 C 343.600 394.048,343.802 394.070,344.223 394.419 C 344.565 394.703,344.814 394.770,344.775 394.568 C 344.563 393.453,344.885 393.259,347.200 393.112 C 347.530 393.091,348.091 392.743,348.447 392.337 C 348.803 391.932,349.361 391.600,349.687 391.600 C 350.709 391.600,352.809 390.737,352.602 390.403 C 352.493 390.227,352.683 389.977,353.023 389.846 C 353.380 389.710,353.537 389.778,353.395 390.008 C 353.255 390.235,353.584 390.208,354.162 389.945 C 354.719 389.691,355.077 389.325,354.958 389.132 C 354.838 388.938,354.889 388.806,355.070 388.837 C 356.346 389.059,357.156 388.751,356.919 388.134 C 356.747 387.685,356.817 387.563,357.135 387.760 C 357.399 387.923,357.706 387.789,357.834 387.454 C 357.962 387.123,358.409 386.925,358.842 387.008 C 359.271 387.091,359.516 386.988,359.387 386.779 C 359.258 386.571,359.343 386.400,359.576 386.400 C 360.397 386.400,360.605 386.285,361.123 385.546 C 361.410 385.136,361.916 384.800,362.246 384.800 C 362.577 384.800,362.736 384.620,362.600 384.400 C 362.464 384.180,362.678 383.994,363.076 383.987 C 364.068 383.970,365.075 383.141,365.261 382.190 C 365.365 381.657,365.738 381.400,366.407 381.400 C 367.171 381.400,367.369 381.220,367.264 380.622 C 367.143 379.922,367.201 379.902,367.841 380.422 C 368.280 380.778,368.438 380.808,368.253 380.500 C 368.057 380.174,368.205 379.998,368.676 379.994 C 369.290 379.989,369.309 379.929,368.800 379.600 C 368.322 379.291,368.313 379.211,368.754 379.206 C 369.059 379.203,369.717 378.795,370.216 378.300 C 371.610 376.919,372.399 376.336,372.406 376.684 C 372.409 376.858,372.649 376.550,372.939 376.000 C 373.228 375.450,373.631 375.028,373.833 375.062 C 374.035 375.096,374.432 374.871,374.716 374.562 C 374.999 374.253,375.128 374.000,375.002 374.000 C 374.875 374.000,374.961 373.647,375.192 373.215 C 375.467 372.700,375.851 372.515,376.306 372.679 C 376.688 372.815,376.876 372.790,376.724 372.621 C 376.437 372.303,376.679 371.939,378.460 370.005 C 379.043 369.372,379.628 368.962,379.760 369.094 C 379.892 369.225,380.000 369.023,380.000 368.643 C 380.000 368.197,379.823 368.059,379.500 368.253 C 379.177 368.447,379.199 368.308,379.564 367.859 C 379.874 367.476,380.375 367.258,380.677 367.374 C 380.999 367.498,381.368 367.215,381.570 366.692 C 381.760 366.202,382.384 365.364,382.958 364.830 C 383.531 364.297,384.000 363.521,384.000 363.107 C 384.000 362.692,384.180 362.464,384.400 362.600 C 384.627 362.740,384.800 362.404,384.800 361.824 C 384.800 361.261,384.935 360.821,385.100 360.847 C 385.874 360.970,386.426 360.765,386.220 360.432 C 386.095 360.230,386.256 359.801,386.577 359.480 C 386.899 359.158,387.076 358.809,386.971 358.705 C 386.866 358.600,387.044 358.295,387.367 358.028 C 387.695 357.755,387.842 357.247,387.701 356.871 C 387.492 356.313,387.553 356.283,388.058 356.694 C 388.550 357.093,388.679 357.074,388.733 356.594 C 388.770 356.267,388.830 355.738,388.867 355.418 C 388.903 355.097,389.083 354.928,389.267 355.041 C 389.577 355.233,389.654 355.022,389.764 353.683 C 389.788 353.399,390.066 353.006,390.383 352.810 C 390.721 352.601,390.968 351.798,390.980 350.863 C 390.991 349.988,391.066 349.337,391.148 349.417 C 391.383 349.649,392.400 348.502,392.400 348.005 C 392.400 347.756,392.580 347.664,392.800 347.800 C 393.135 348.007,393.428 346.242,393.247 345.100 C 393.204 344.825,393.805 344.650,394.472 344.743 C 394.621 344.764,394.665 344.345,394.568 343.813 C 394.452 343.175,394.633 342.702,395.096 342.429 C 395.710 342.068,395.723 341.963,395.200 341.613 C 394.870 341.393,394.782 341.209,395.004 341.206 C 395.226 341.203,395.644 340.821,395.933 340.358 C 396.222 339.895,396.266 339.636,396.030 339.782 C 395.793 339.928,395.600 339.857,395.600 339.624 C 395.600 339.391,395.788 339.200,396.018 339.200 C 396.247 339.200,396.382 338.885,396.318 338.500 C 396.252 338.109,396.421 337.844,396.700 337.900 C 396.975 337.955,397.200 337.820,397.200 337.600 C 397.200 337.380,397.020 337.200,396.800 337.200 C 396.580 337.200,396.400 337.009,396.400 336.776 C 396.400 336.543,396.550 336.445,396.733 336.559 C 396.917 336.672,397.067 336.198,397.067 335.505 C 397.067 334.812,397.277 334.174,397.533 334.089 C 397.790 334.003,398.000 333.308,398.000 332.543 C 398.000 331.537,398.138 331.236,398.500 331.453 C 398.791 331.628,398.750 331.439,398.400 331.000 C 397.983 330.476,397.963 330.344,398.333 330.567 C 398.707 330.792,398.842 330.666,398.786 330.144 C 398.625 328.618,398.801 327.953,399.300 328.206 C 399.575 328.345,399.480 328.197,399.088 327.877 C 398.490 327.388,398.471 327.258,398.965 327.069 C 399.714 326.781,399.637 328.786,399.847 304.100 C 399.960 290.836,399.885 282.800,399.650 282.800 C 399.441 282.800,399.322 282.485,399.384 282.100 C 399.446 281.715,399.295 281.140,399.049 280.823 C 398.706 280.382,398.718 280.317,399.100 280.547 C 399.797 280.966,399.725 280.468,398.980 279.723 C 398.640 279.382,398.258 278.588,398.132 277.958 C 398.006 277.328,397.783 276.887,397.636 276.978 C 397.490 277.068,397.136 276.615,396.851 275.971 C 396.566 275.327,396.048 274.800,395.700 274.800 C 395.352 274.800,395.177 274.689,395.313 274.554 C 395.667 274.199,391.610 270.347,391.169 270.619 C 390.966 270.745,390.800 270.567,390.800 270.224 C 390.800 269.881,390.665 269.619,390.500 269.643 C 389.896 269.730,388.400 269.097,388.400 268.753 C 388.400 268.559,388.265 268.421,388.100 268.447 C 387.342 268.567,387.050 268.356,387.543 268.044 C 387.922 267.803,387.758 267.700,386.997 267.700 C 386.399 267.700,385.794 267.523,385.655 267.307 C 385.515 267.090,385.082 266.962,384.694 267.022 C 384.306 267.082,383.766 266.916,383.494 266.654 C 382.955 266.133,374.196 265.829,373.436 266.305 C 372.989 266.585,372.909 266.604,371.200 266.854 C 370.650 266.934,369.960 267.227,369.668 267.504 C 369.375 267.781,368.982 267.913,368.795 267.797 C 368.286 267.482,365.783 269.033,365.910 269.583 C 365.970 269.845,365.835 269.945,365.610 269.806 C 365.384 269.667,365.200 269.738,365.200 269.964 C 365.200 270.190,364.975 270.296,364.700 270.199 C 364.130 269.998,362.738 270.934,362.832 271.455 C 363.021 272.496,362.753 272.839,361.950 272.584 C 361.378 272.403,361.189 272.459,361.374 272.757 C 361.531 273.011,361.371 273.200,361.000 273.200 C 360.644 273.200,360.452 273.361,360.574 273.558 C 360.696 273.755,360.508 274.027,360.156 274.161 C 359.804 274.297,359.616 274.665,359.738 274.983 C 359.883 275.361,359.766 275.485,359.396 275.343 C 359.032 275.203,358.742 275.491,358.574 276.161 C 358.416 276.791,358.136 277.087,357.857 276.920 C 357.606 276.770,357.664 276.996,357.987 277.423 C 358.310 277.850,358.416 278.066,358.223 277.903 C 357.838 277.576,356.582 279.115,356.940 279.473 C 357.062 279.595,356.900 279.957,356.581 280.276 C 356.248 280.609,356.000 281.613,356.000 282.629 C 356.000 283.603,355.820 284.400,355.600 284.400 C 355.341 284.400,355.200 289.467,355.200 298.800 C 355.200 306.720,355.047 313.200,354.861 313.200 C 354.674 313.200,354.483 314.499,354.437 316.088 C 354.391 317.676,354.161 319.206,353.927 319.488 C 353.617 319.862,353.650 320.002,354.051 320.006 C 354.382 320.010,354.441 320.129,354.200 320.306 C 353.980 320.468,353.740 320.960,353.667 321.400 C 353.593 321.840,353.368 322.371,353.167 322.580 C 352.965 322.789,352.800 323.554,352.800 324.280 C 352.800 325.006,352.599 325.600,352.353 325.600 C 352.104 325.600,351.999 325.953,352.116 326.400 C 352.231 326.839,352.134 327.317,351.901 327.461 C 351.633 327.627,351.596 327.530,351.800 327.200 C 352.005 326.869,351.967 326.773,351.697 326.940 C 351.463 327.085,351.320 327.648,351.379 328.191 C 351.439 328.734,351.352 329.094,351.186 328.991 C 350.797 328.751,350.327 329.958,350.622 330.436 C 350.746 330.636,350.584 330.800,350.263 330.800 C 349.941 330.800,349.488 331.346,349.255 332.014 C 349.004 332.733,348.988 333.131,349.216 332.990 C 349.427 332.860,349.600 332.943,349.600 333.176 C 349.600 333.565,349.047 333.765,348.300 333.647 C 348.135 333.621,348.000 333.870,348.000 334.200 C 348.000 334.530,347.809 334.800,347.576 334.800 C 347.343 334.800,347.264 334.980,347.400 335.200 C 347.536 335.420,347.354 335.600,346.997 335.600 C 346.529 335.600,346.417 335.824,346.599 336.397 C 346.789 336.995,346.599 337.309,345.838 337.655 C 345.281 337.909,344.920 338.271,345.036 338.458 C 345.152 338.646,344.922 338.803,344.524 338.806 C 343.910 338.811,343.891 338.871,344.400 339.200 C 344.922 339.537,344.915 339.589,344.349 339.594 C 343.991 339.597,343.451 339.905,343.149 340.277 C 342.676 340.859,342.683 340.911,343.200 340.647 C 343.557 340.465,343.520 340.571,343.106 340.910 C 342.725 341.223,342.545 341.611,342.706 341.773 C 342.868 341.934,342.730 342.007,342.400 341.933 C 342.068 341.860,341.849 342.036,341.910 342.330 C 341.970 342.621,341.865 342.764,341.675 342.646 C 341.144 342.318,339.601 343.561,339.594 344.323 C 339.589 344.906,339.534 344.917,339.200 344.400 C 338.871 343.891,338.811 343.910,338.806 344.524 C 338.803 344.922,338.625 345.139,338.412 345.007 C 338.198 344.875,337.905 345.240,337.760 345.817 C 337.562 346.606,337.305 346.816,336.724 346.664 C 336.273 346.546,335.861 346.698,335.734 347.029 C 335.614 347.340,335.355 347.496,335.158 347.374 C 334.961 347.252,334.800 347.428,334.800 347.764 C 334.800 348.169,334.576 348.289,334.134 348.119 C 333.731 347.965,333.568 348.025,333.721 348.273 C 333.864 348.503,333.266 348.893,332.348 349.168 C 330.832 349.622,330.773 349.694,331.461 350.233 C 332.136 350.760,332.061 350.801,330.600 350.705 C 329.444 350.629,329.030 350.747,329.110 351.130 C 329.170 351.421,329.027 351.541,328.792 351.395 C 328.557 351.250,328.068 351.372,327.706 351.666 C 327.336 351.966,327.168 351.997,327.324 351.737 C 327.534 351.387,327.358 351.387,326.604 351.737 C 326.055 351.992,325.605 352.335,325.603 352.500 C 325.601 352.665,324.964 352.800,324.187 352.800 C 323.370 352.800,322.688 353.028,322.567 353.341 C 322.436 353.682,321.976 353.808,321.321 353.683 C 320.508 353.527,320.355 353.606,320.617 354.042 C 320.897 354.507,320.847 354.513,320.312 354.081 C 319.881 353.731,319.586 353.699,319.412 353.981 C 319.269 354.211,317.993 354.400,316.576 354.400 C 315.125 354.400,314.000 354.575,314.000 354.800 C 314.000 355.066,275.733 355.200,200.000 355.200 C 130.952 355.200,86.000 355.055,86.000 354.832 C 86.000 354.630,84.905 354.459,83.566 354.453 C 82.227 354.447,80.880 354.232,80.571 353.976 C 80.263 353.720,79.579 353.619,79.051 353.751 C 78.442 353.904,77.911 353.775,77.597 353.396 C 77.325 353.068,76.494 352.800,75.751 352.800 C 75.008 352.800,74.399 352.665,74.397 352.500 C 74.395 352.335,73.945 351.992,73.396 351.737 C 72.642 351.387,72.464 351.387,72.668 351.737 C 72.816 351.992,72.544 351.855,72.064 351.433 C 71.560 350.991,70.599 350.667,69.795 350.667 C 68.393 350.667,67.970 350.271,68.900 349.829 C 69.175 349.698,69.001 349.665,68.514 349.755 C 67.991 349.851,67.663 349.729,67.714 349.459 C 67.761 349.207,67.285 348.941,66.654 348.869 C 65.947 348.788,65.435 348.454,65.315 347.997 C 65.201 347.562,64.889 347.344,64.561 347.470 C 64.214 347.603,64.000 347.424,64.000 347.000 C 64.000 346.583,63.785 346.397,63.451 346.525 C 63.136 346.646,62.683 346.328,62.390 345.782 C 62.109 345.257,61.727 344.922,61.540 345.037 C 61.353 345.153,61.200 344.977,61.200 344.647 C 61.200 344.261,60.913 344.101,60.400 344.200 C 59.654 344.344,59.393 343.958,59.586 343.000 C 59.630 342.780,59.533 342.734,59.369 342.897 C 59.206 343.061,58.818 342.833,58.509 342.391 C 58.199 341.948,57.750 341.707,57.511 341.855 C 57.267 342.006,57.190 341.939,57.336 341.703 C 57.479 341.472,57.236 340.860,56.797 340.342 C 56.314 339.772,56.089 339.661,56.226 340.060 C 56.352 340.422,56.264 340.837,56.032 340.980 C 55.783 341.134,55.699 341.008,55.828 340.672 C 55.948 340.359,55.774 339.999,55.442 339.872 C 55.107 339.743,54.904 339.297,54.987 338.869 C 55.087 338.350,54.806 337.949,54.128 337.640 C 53.475 337.342,53.203 336.969,53.354 336.576 C 53.484 336.236,53.327 335.870,52.996 335.743 C 52.671 335.618,52.492 335.375,52.598 335.204 C 52.704 335.032,52.478 334.809,52.095 334.709 C 51.667 334.597,51.209 333.815,50.904 332.674 C 50.527 331.262,50.260 330.879,49.784 331.061 C 49.290 331.251,49.210 331.100,49.402 330.333 C 49.571 329.662,49.365 329.009,48.730 328.202 C 48.227 327.562,48.081 327.199,48.407 327.396 C 48.916 327.703,48.923 327.659,48.455 327.081 C 48.155 326.711,47.705 326.531,47.455 326.681 C 47.205 326.831,47.270 326.614,47.600 326.200 C 47.950 325.761,47.991 325.572,47.700 325.747 C 47.176 326.062,47.056 325.673,47.187 324.079 C 47.229 323.572,47.024 322.869,46.731 322.517 C 46.439 322.165,46.200 321.320,46.200 320.638 C 46.200 319.957,46.015 319.432,45.789 319.470 C 45.563 319.509,45.399 318.879,45.424 318.070 C 45.448 317.262,45.273 316.468,45.034 316.306 C 44.738 316.106,44.759 316.010,45.100 316.006 C 45.375 316.003,45.597 315.685,45.594 315.300 C 45.589 314.702,45.531 314.687,45.200 315.200 C 44.987 315.530,44.809 315.611,44.806 315.380 C 44.803 315.149,45.016 314.744,45.280 314.480 C 45.653 314.107,45.631 314.000,45.180 314.000 C 44.682 314.000,44.613 311.840,44.690 298.700 C 44.748 288.820,44.644 283.613,44.396 284.000 C 44.108 284.451,44.003 284.252,43.976 283.200 C 43.922 281.156,43.699 280.233,43.219 280.073 C 42.986 279.995,42.897 279.767,43.021 279.567 C 43.337 279.055,42.205 277.540,41.777 277.903 C 41.584 278.066,41.690 277.850,42.013 277.423 C 42.336 276.996,42.395 276.769,42.145 276.919 C 41.895 277.069,41.468 276.923,41.196 276.596 C 40.800 276.117,40.810 275.998,41.251 275.988 C 41.554 275.982,41.214 275.444,40.494 274.788 C 39.775 274.135,39.293 273.600,39.422 273.600 C 39.551 273.600,39.387 273.330,39.057 273.000 C 38.727 272.670,38.234 272.400,37.962 272.400 C 37.690 272.400,37.583 272.283,37.726 272.140 C 38.023 271.843,36.011 270.001,35.388 270.000 C 35.162 270.000,34.717 269.640,34.400 269.200 C 34.022 268.675,33.365 268.400,32.488 268.400 C 31.700 268.400,31.254 268.236,31.400 268.000 C 31.536 267.780,31.277 267.600,30.824 267.600 C 30.371 267.600,30.000 267.434,30.000 267.230 C 30.000 267.027,29.377 266.918,28.615 266.989 C 27.797 267.065,27.046 266.896,26.781 266.578 C 26.288 265.982,16.800 265.897,16.800 266.488"/><path id="path1" fill="#8434ec" fill-rule="evenodd" stroke="none" d="M186.176 3.775 C 185.487 4.285,185.479 4.338,186.104 4.251 C 186.883 4.141,188.005 3.200,187.356 3.200 C 187.135 3.200,186.604 3.459,186.176 3.775 M212.400 3.371 C 212.400 3.564,214.795 4.801,215.161 4.797 C 215.293 4.796,214.860 4.437,214.200 4.000 C 213.046 3.236,212.400 3.010,212.400 3.371 M181.400 8.400 C 180.701 9.172,180.701 9.200,181.405 9.200 C 181.805 9.200,182.015 9.082,181.870 8.937 C 181.725 8.792,181.807 8.432,182.052 8.137 C 182.756 7.289,182.204 7.512,181.400 8.400 M217.884 8.400 C 217.999 8.840,218.370 9.200,218.709 9.200 C 219.226 9.200,219.209 9.073,218.600 8.400 C 218.202 7.960,217.831 7.600,217.775 7.600 C 217.720 7.600,217.769 7.960,217.884 8.400 M219.467 10.667 C 218.995 11.138,219.180 11.501,220.000 11.716 C 220.440 11.831,220.800 11.762,220.800 11.563 C 220.800 11.363,220.519 11.200,220.176 11.200 C 219.833 11.200,219.664 11.020,219.800 10.800 C 220.080 10.347,219.870 10.263,219.467 10.667 M177.949 14.620 C 177.726 16.279,177.761 16.800,178.097 16.800 C 178.311 16.800,178.386 16.542,178.265 16.226 C 178.144 15.910,178.260 15.573,178.522 15.476 C 178.887 15.342,178.882 15.175,178.500 14.770 C 178.225 14.479,177.977 14.411,177.949 14.620 M221.400 14.800 C 221.108 15.272,221.487 16.000,222.024 16.000 C 222.231 16.000,222.400 15.809,222.400 15.576 C 222.400 15.343,222.189 15.283,221.932 15.442 C 221.617 15.636,221.548 15.513,221.719 15.066 C 221.999 14.336,221.793 14.164,221.400 14.800 M176.830 126.600 L 176.768 233.000 173.884 229.954 C 170.814 226.712,165.682 221.886,166.136 222.668 C 166.286 222.926,167.413 224.096,168.642 225.268 C 171.802 228.284,172.309 228.795,174.983 231.648 C 176.294 233.047,177.228 233.969,177.059 233.696 C 176.889 233.421,176.941 233.200,177.176 233.200 C 177.692 233.200,177.738 24.289,177.223 21.800 C 177.041 20.920,176.864 68.080,176.830 126.600 M222.649 21.017 C 222.214 22.150,222.362 233.200,222.797 233.200 C 223.067 233.200,223.200 197.983,223.200 126.800 C 223.200 68.280,223.129 20.400,223.043 20.400 C 222.956 20.400,222.779 20.678,222.649 21.017 M109.303 177.037 C 109.671 177.405,113.200 177.480,113.200 177.120 C 113.200 176.944,112.270 176.800,111.133 176.800 C 109.997 176.800,109.173 176.906,109.303 177.037 M286.800 177.140 C 286.800 177.459,290.407 177.292,290.767 176.956 C 290.858 176.870,290.003 176.800,288.867 176.800 C 287.730 176.800,286.800 176.953,286.800 177.140 M101.200 179.200 C 101.200 179.446,101.012 179.531,100.782 179.389 C 100.221 179.042,99.194 179.939,99.225 180.749 C 99.242 181.170,99.384 181.068,99.628 180.458 C 99.845 179.916,100.232 179.603,100.539 179.721 C 101.270 180.002,102.237 179.394,101.643 179.026 C 101.399 178.876,101.200 178.954,101.200 179.200 M132.800 189.239 C 132.800 189.673,138.352 195.114,138.571 194.896 C 138.697 194.770,138.800 194.832,138.800 195.033 C 138.801 195.491,140.102 196.923,142.406 199.000 C 144.468 200.859,140.655 196.524,138.037 194.032 C 137.247 193.280,135.745 191.847,134.700 190.847 C 133.655 189.848,132.800 189.124,132.800 189.239 M263.260 192.666 C 262.619 193.361,262.799 193.695,263.560 193.225 C 263.856 193.042,264.031 192.709,263.949 192.486 C 263.863 192.250,263.572 192.326,263.260 192.666 M310.047 193.171 C 309.646 193.419,309.669 193.541,310.154 193.727 C 310.495 193.858,310.873 193.805,310.994 193.610 C 311.309 193.100,310.654 192.796,310.047 193.171 M260.996 194.804 C 260.366 195.462,260.019 195.994,260.225 195.987 C 260.733 195.970,262.252 194.802,261.776 194.794 C 261.569 194.791,261.665 194.620,261.988 194.416 C 262.312 194.211,262.479 193.946,262.359 193.826 C 262.240 193.706,261.626 194.146,260.996 194.804 M311.017 202.372 C 310.744 202.814,311.375 203.292,311.744 202.922 C 312.125 202.542,312.054 202.000,311.624 202.000 C 311.417 202.000,311.144 202.168,311.017 202.372 M153.000 209.642 C 153.880 210.642,154.735 211.391,154.900 211.307 C 155.065 211.222,155.200 211.317,155.200 211.518 C 155.200 211.929,156.471 213.307,158.225 214.799 L 159.400 215.797 158.353 214.599 C 157.777 213.939,156.967 212.983,156.553 212.473 C 156.139 211.964,154.810 210.709,153.600 209.685 L 151.400 207.824 153.000 209.642 M245.000 210.817 C 244.120 211.684,243.611 212.396,243.869 212.397 C 244.422 212.401,246.800 210.106,246.800 209.569 C 246.800 209.049,246.778 209.064,245.000 210.817 M227.802 227.998 C 227.140 228.730,227.135 228.800,227.751 228.800 C 228.122 228.800,228.532 228.522,228.662 228.183 C 229.034 227.212,228.598 227.118,227.802 227.998 M26.800 266.600 C 27.074 266.930,27.501 267.186,27.749 267.168 C 28.030 267.149,28.011 267.060,27.698 266.934 C 27.421 266.823,27.297 266.567,27.421 266.366 C 27.545 266.165,27.345 266.000,26.975 266.000 C 26.422 266.000,26.391 266.107,26.800 266.600 M11.600 268.400 C 10.830 268.822,10.470 269.173,10.800 269.181 C 11.130 269.188,11.940 268.837,12.600 268.400 C 14.125 267.390,13.445 267.390,11.600 268.400 M388.403 268.709 C 388.405 268.869,388.855 269.208,389.403 269.462 C 389.951 269.717,390.400 269.791,390.400 269.627 C 390.400 269.463,389.950 269.123,389.400 268.873 C 388.850 268.622,388.401 268.548,388.403 268.709 M41.339 276.732 C 41.703 277.135,41.866 277.614,41.701 277.797 C 41.535 277.979,41.621 278.001,41.892 277.846 C 42.440 277.530,41.736 276.000,41.042 276.000 C 40.841 276.000,40.974 276.330,41.339 276.732 M355.412 283.317 C 355.241 283.712,355.213 284.147,355.351 284.284 C 355.757 284.690,356.084 284.120,355.897 283.331 C 355.732 282.633,355.710 282.632,355.412 283.317 M196.985 311.576 C 197.125 311.802,197.672 311.952,198.201 311.908 C 199.376 311.811,199.134 311.485,197.750 311.300 C 197.124 311.216,196.829 311.323,196.985 311.576 M200.997 311.605 C 200.920 311.729,201.286 311.866,201.809 311.909 C 202.332 311.952,202.869 311.812,203.002 311.597 C 203.141 311.373,202.793 311.243,202.190 311.293 C 201.610 311.341,201.073 311.481,200.997 311.605 M44.688 313.184 C 44.553 313.701,44.668 314.000,45.002 314.000 C 45.292 314.000,45.490 313.735,45.443 313.412 C 45.299 312.434,44.915 312.318,44.688 313.184 M47.172 325.547 C 47.392 325.958,47.533 326.363,47.486 326.447 C 47.439 326.531,47.480 326.550,47.577 326.490 C 48.087 326.172,47.929 324.800,47.383 324.800 C 46.910 324.800,46.862 324.969,47.172 325.547 M398.800 327.207 C 398.365 327.483,398.344 327.589,398.724 327.594 C 399.026 327.597,399.128 327.811,398.965 328.100 C 398.749 328.483,398.800 328.491,399.186 328.135 C 399.890 327.486,399.570 326.718,398.800 327.207 M348.948 332.475 C 349.079 332.901,348.905 333.200,348.478 333.284 C 348.079 333.363,347.972 333.527,348.219 333.683 C 349.026 334.191,349.743 333.374,349.216 332.548 C 348.842 331.960,348.784 331.945,348.948 332.475 M397.063 334.883 C 396.738 336.125,396.985 336.189,397.526 335.002 C 397.777 334.451,397.828 334.000,397.638 334.000 C 397.448 334.000,397.189 334.397,397.063 334.883 M52.900 335.865 C 52.625 335.976,52.400 336.242,52.400 336.457 C 52.400 336.672,52.561 336.748,52.758 336.626 C 52.955 336.504,53.219 336.674,53.346 337.002 C 53.472 337.331,53.788 337.600,54.049 337.600 C 54.347 337.600,54.277 337.327,53.861 336.868 C 53.497 336.465,53.319 336.015,53.466 335.868 C 53.765 335.569,53.636 335.568,52.900 335.865 M346.200 336.800 C 345.802 337.240,345.644 337.600,345.849 337.600 C 346.054 337.600,346.530 337.240,346.907 336.800 C 347.284 336.360,347.442 336.000,347.258 336.000 C 347.074 336.000,346.598 336.360,346.200 336.800 M54.954 338.932 C 55.010 339.335,55.292 339.809,55.579 339.987 C 55.881 340.173,55.970 340.525,55.789 340.817 C 55.586 341.147,55.638 341.224,55.938 341.038 C 56.585 340.639,56.518 340.232,55.626 339.144 C 54.983 338.359,54.870 338.323,54.954 338.932 M59.236 343.509 C 59.496 343.926,59.947 344.267,60.237 344.267 C 60.916 344.267,60.578 343.723,59.559 343.178 C 58.844 342.796,58.811 342.829,59.236 343.509 M394.000 344.513 C 393.435 344.972,392.945 346.400,393.353 346.400 C 393.457 346.400,393.811 345.860,394.140 345.200 C 394.469 344.540,394.707 344.006,394.669 344.013 C 394.631 344.020,394.330 344.245,394.000 344.513 M336.804 346.196 C 336.532 346.523,336.152 346.694,335.959 346.575 C 335.767 346.456,335.730 346.674,335.878 347.059 C 336.043 347.490,336.208 347.575,336.307 347.280 C 336.395 347.016,336.722 346.800,337.033 346.800 C 337.345 346.800,337.600 346.530,337.600 346.200 C 337.600 345.445,337.427 345.445,336.804 346.196 M391.600 349.224 C 391.600 349.457,391.446 349.552,391.258 349.436 C 391.070 349.319,391.002 349.676,391.107 350.227 L 391.299 351.231 391.850 350.170 C 392.507 348.903,392.518 348.800,392.000 348.800 C 391.780 348.800,391.600 348.991,391.600 349.224 M68.400 350.375 C 68.400 350.581,68.748 350.724,69.172 350.692 C 69.597 350.660,69.856 350.491,69.749 350.317 C 69.475 349.873,68.400 349.920,68.400 350.375 M330.400 350.400 C 330.400 350.620,330.771 350.800,331.224 350.800 C 331.677 350.800,331.936 350.620,331.800 350.400 C 331.664 350.180,331.293 350.000,330.976 350.000 C 330.659 350.000,330.400 350.180,330.400 350.400 M17.501 365.609 C 17.920 366.099,18.254 366.239,18.346 365.963 C 18.429 365.712,18.251 365.351,17.949 365.160 C 16.996 364.556,16.782 364.770,17.501 365.609 M379.627 367.768 C 379.248 368.224,379.293 368.316,379.856 368.233 C 380.241 368.176,380.626 367.921,380.712 367.665 C 380.929 367.014,380.194 367.084,379.627 367.768 M377.632 370.739 C 376.979 371.960,377.114 372.300,377.841 371.263 C 378.193 370.760,378.388 370.254,378.273 370.140 C 378.159 370.025,377.870 370.295,377.632 370.739 M366.993 380.483 C 366.777 380.675,366.240 381.081,365.801 381.384 C 365.361 381.687,365.151 382.084,365.333 382.267 C 365.516 382.449,365.909 382.266,366.206 381.859 C 366.536 381.408,366.952 381.239,367.273 381.424 C 367.563 381.591,367.668 381.582,367.506 381.404 C 367.345 381.225,367.503 380.866,367.859 380.606 C 368.356 380.243,368.377 380.133,367.946 380.133 C 367.638 380.133,367.210 380.291,366.993 380.483 M38.244 384.728 C 38.115 384.938,38.262 385.320,38.572 385.577 C 39.017 385.946,39.117 385.916,39.046 385.434 C 38.925 384.608,38.532 384.262,38.244 384.728 M344.613 393.910 C 344.499 394.207,344.224 394.339,344.003 394.202 C 343.781 394.065,343.600 394.143,343.600 394.376 C 343.600 394.609,343.662 394.800,343.739 394.800 C 344.010 394.800,346.400 393.539,346.400 393.396 C 346.400 392.983,344.791 393.446,344.613 393.910 M338.600 396.000 C 338.464 396.220,338.713 396.400,339.153 396.400 C 339.593 396.400,340.064 396.220,340.200 396.000 C 340.336 395.780,340.087 395.600,339.647 395.600 C 339.207 395.600,338.736 395.780,338.600 396.000 M330.000 398.157 C 330.000 398.546,331.127 398.692,331.636 398.369 C 332.047 398.109,331.901 398.011,331.100 398.006 C 330.495 398.003,330.000 398.071,330.000 398.157"/></g></svg>