<svg width="19" height="19" viewBox="0 0 19 19" fill="none" xmlns="http://www.w3.org/2000/svg">
<g clip-path="url(#clip0_1984_13445)">
<path d="M19 9.5C19 4.24946 14.7511 0 9.5 0C4.24946 0 0 4.24888 0 9.5C0 14.704 4.21336 19 9.5 19C14.7649 19 19 14.7279 19 9.5ZM9.5 1.11328C14.1245 1.11328 17.8867 4.87553 17.8867 9.5C17.8867 11.1917 17.3836 12.8177 16.4505 14.1949C12.7036 10.1645 6.30323 10.1572 2.54953 14.1949C1.61643 12.8177 1.11328 11.1917 1.11328 9.5C1.11328 4.87553 4.87553 1.11328 9.5 1.11328ZM3.24388 15.085C6.57532 11.3482 12.4256 11.3491 15.756 15.085C12.4134 18.8246 6.58793 18.8258 3.24388 15.085Z" fill="#393F46"/>
<path d="M9.5 10.0566C11.3416 10.0566 12.8398 8.55835 12.8398 6.7168V5.60352C12.8398 3.76196 11.3416 2.26367 9.5 2.26367C7.65845 2.26367 6.16016 3.76196 6.16016 5.60352V6.7168C6.16016 8.55835 7.65845 10.0566 9.5 10.0566ZM7.27344 5.60352C7.27344 4.37572 8.2722 3.37695 9.5 3.37695C10.7278 3.37695 11.7266 4.37572 11.7266 5.60352V6.7168C11.7266 7.9446 10.7278 8.94336 9.5 8.94336C8.2722 8.94336 7.27344 7.9446 7.27344 6.7168V5.60352Z" fill="#393F46"/>
</g>
<defs>
<clipPath id="clip0_1984_13445">
<rect width="19" height="19" fill="white"/>
</clipPath>
</defs>
</svg>
