<svg width="16" height="24" viewBox="0 0 16 24" fill="none" xmlns="http://www.w3.org/2000/svg">
<path d="M7.23629 0.0706902C5.75035 0.35194 4.49879 1.44413 4.02535 2.87381C3.78629 3.59569 3.77223 3.89569 3.79098 8.69569C3.80973 13.0223 3.80973 13.0598 3.91285 13.4488C4.42848 15.3894 6.05504 16.6551 8.02379 16.6504C8.46441 16.6504 8.68473 16.6223 9.03629 16.5332C10.6207 16.1254 11.8347 14.8316 12.1347 13.2332C12.1816 12.9848 12.1957 11.8691 12.1957 8.29725C12.1957 3.20663 12.2097 3.45975 11.8957 2.64882C11.4363 1.44882 10.3207 0.469128 9.03629 0.136314C8.55816 0.00975227 7.7191 -0.0183735 7.23629 0.0706902ZM8.63316 1.83788C9.18629 1.97381 9.83316 2.48475 10.1332 3.01913C10.4472 3.58632 10.4379 3.38475 10.4379 8.34413C10.4379 13.3035 10.4472 13.1066 10.1332 13.6644C9.49098 14.8035 8.08004 15.2301 6.88941 14.6441C6.53316 14.466 6.00348 13.9363 5.82535 13.5801C5.55348 13.0269 5.56285 13.2051 5.56285 8.34413C5.56285 3.38475 5.55348 3.58632 5.86754 3.01913C6.4066 2.0535 7.54566 1.566 8.63316 1.83788Z" fill="white"/>
<path d="M0.977814 11.1141C0.855939 11.175 0.720001 11.2969 0.649689 11.4047C0.532501 11.5828 0.523126 11.6344 0.509064 12.225C0.452814 14.3813 1.13719 16.2047 2.5575 17.7281C3.66844 18.9141 5.34188 19.7953 6.86531 19.9922L7.10906 20.025V21.1453V22.2656H6.27938C5.4825 22.2656 5.445 22.2703 5.25281 22.3828C4.64344 22.7391 4.695 23.6156 5.35125 23.9109C5.52469 23.9906 5.71219 24 7.99969 24C10.2872 24 10.4747 23.9906 10.6481 23.9109C11.3044 23.6156 11.3559 22.7391 10.7466 22.3828C10.5544 22.2703 10.5169 22.2656 9.72 22.2656H8.89031V21.1453V20.025L9.13875 19.9922C10.6575 19.7953 12.3309 18.9141 13.4419 17.7281C14.8388 16.2328 15.4997 14.5078 15.4997 12.3328C15.4997 11.7844 15.4856 11.6766 15.4013 11.4938C15.0966 10.8703 14.1778 10.8656 13.8591 11.4891C13.7841 11.6297 13.7653 11.7609 13.7653 12.1266C13.7653 14.0016 13.2544 15.3891 12.1388 16.5516C11.3138 17.4094 10.3059 17.9672 9.12469 18.2203C8.57156 18.3375 7.42781 18.3375 6.87469 18.2203C5.69344 17.9672 4.68563 17.4094 3.86063 16.5516C2.745 15.3891 2.23406 14.0016 2.23406 12.1266C2.23406 11.5031 2.11219 11.2547 1.70438 11.0859C1.46531 10.9875 1.21688 10.9969 0.977814 11.1141Z" fill="white"/>
</svg>
