<svg xmlns="http://www.w3.org/2000/svg" xmlns:svgjs="http://svgjs.com/svgjs" xmlns:xlink="http://www.w3.org/1999/xlink" width="512" height="512" x="0" y="0" version="1.1" viewBox="0 0 512 512" style="enable-background:new 0 0 512 512" xml:space="preserve"><rect width="512" height="512" fill="#f7b3da" rx="20" ry="20" shape="rounded"/><g><g xmlns="http://www.w3.org/2000/svg"><g><path fill="#fce7f3" d="M256,0C114.844,0,0,114.844,0,256s114.844,256,256,256s256-114.844,256-256S397.156,0,256,0z M256,448 c-105.865,0-192-86.135-192-192c0-40.406,12.25-78.604,35.542-111.198l267.656,267.656C334.604,435.75,296.406,448,256,448z M412.458,367.198L144.802,99.542C177.396,76.25,215.594,64,256,64c105.865,0,192,86.135,192,192 C448,296.406,435.75,334.604,412.458,367.198z" data-original="#000000" transform="matrix(0.7,0,0,0.7,76.80000000000001,76.80000000000001)"/></g></g></g></svg>