<svg width="41" height="41" viewBox="0 0 41 41" fill="none" xmlns="http://www.w3.org/2000/svg">
<path d="M9.29702 38.3094C7.9437 37.9491 6.88667 36.868 6.52632 35.4987C6.34214 34.81 6.34214 6.19009 6.52632 5.50142C6.88667 4.11606 7.95171 3.04302 9.32905 2.68267C10.0177 2.50649 14.3259 2.50649 15.0146 2.68267C16.3919 3.04302 17.457 4.11606 17.8173 5.50142C17.9214 5.90181 17.9375 7.87173 17.9375 20.5C17.9375 33.2965 17.9214 35.0983 17.8173 35.5147C17.457 36.892 16.3839 37.9571 14.9986 38.3174C14.35 38.4856 9.92964 38.4776 9.29702 38.3094Z" fill="#393F46"/>
<path d="M25.9533 38.3094C24.6 37.9491 23.5429 36.868 23.1826 35.4987C22.9984 34.81 22.9984 6.19009 23.1826 5.50142C23.5429 4.11606 24.608 3.04302 25.9853 2.68267C26.674 2.50649 30.9822 2.50649 31.6709 2.68267C33.0482 3.04302 34.1132 4.11606 34.4736 5.50142C34.5777 5.90181 34.5937 7.87173 34.5937 20.5C34.5937 33.2965 34.5777 35.0983 34.4736 35.5147C34.1132 36.892 33.0402 37.9571 31.6548 38.3174C31.0062 38.4856 26.5859 38.4776 25.9533 38.3094Z" fill="#393F46"/>
</svg>
