<svg xmlns="http://www.w3.org/2000/svg" width="41" height="41" fill="none" viewBox="0 0 41 41"><path fill="#393F46" d="M4.96479 0.0800476C4.39624 0.200165 3.75562 0.560516 3.31519 1.00095C2.62651 1.68161 2.21812 2.68259 2.08198 4.00388C1.97788 5.03688 1.97788 35.9631 2.08198 36.9961C2.21812 38.3174 2.62651 39.3183 3.31519 39.999C4.50835 41.1922 6.3021 41.3043 8.27202 40.3113C8.88062 40.015 35.955 24.4959 36.6677 24.0474C36.916 23.8873 37.3884 23.4869 37.7167 23.1506C38.99 21.8613 39.2863 20.4279 38.5736 18.9785C38.2773 18.3699 37.3564 17.3929 36.6677 16.9525C35.955 16.5041 8.88062 0.984928 8.27202 0.688641C7.97573 0.536491 7.49526 0.336296 7.20698 0.240204C6.6144 0.0480156 5.49331 -0.0320625 4.96479 0.0800476Z"/></svg>