<svg xmlns="http://www.w3.org/2000/svg" width="20" height="20" fill="none" viewBox="0 0 20 20"><g clip-path="url(#clip0_1984_7589)"><path fill="#393F46" d="M19.3203 19.9182C19.5938 19.8128 19.8555 19.5315 19.9375 19.2542C19.9922 19.0706 20 18.1214 20 9.97684C20 1.012 20 0.898718 19.9219 0.695593C19.7773 0.304968 19.3398 -0.00362543 18.9336 0.000280818C18.6172 0.00418707 18.4219 0.117468 17.4688 0.844031C14.9805 2.74247 6.58594 9.10965 6.50391 9.16434C6.35938 9.25809 6.17969 9.55497 6.12891 9.78934C6.07031 10.0511 6.12891 10.3518 6.28125 10.5823C6.37891 10.7268 8.26172 12.1682 16.8477 18.6839C18.5039 19.9378 18.6094 20.0042 18.9609 19.9964C19.0508 19.9964 19.2109 19.9612 19.3203 19.9182Z"/><path fill="#393F46" d="M2.39844 19.9375C3.07031 19.7735 3.62891 19.2188 3.80859 18.5352C3.85937 18.3321 3.86719 17.3282 3.86719 9.98051C3.86719 3.17192 3.85547 1.62504 3.8125 1.46489C3.62891 0.773481 3.09375 0.238325 2.40234 0.058637C1.37891 -0.206988 0.304687 0.449262 0.0585933 1.48832C-0.0273442 1.86332 -0.0273442 18.1329 0.0585933 18.5079C0.140625 18.8555 0.289062 19.1211 0.554687 19.3985C1.03906 19.9024 1.71875 20.1016 2.39844 19.9375Z"/></g><defs><clipPath id="clip0_1984_7589"><rect width="20" height="20" fill="#fff" transform="matrix(-1 0 0 -1 20 20)"/></clipPath></defs></svg>