<svg xmlns="http://www.w3.org/2000/svg" width="15" height="15" fill="none" viewBox="0 0 15 15"><g clip-path="url(#clip0_2010_2775)"><path fill="#393F46" d="M6.78222 0.0322604C5.99706 0.105503 5.04198 0.377963 4.28905 0.744174C3.07323 1.33304 2.09179 2.19144 1.333 3.32523C1.07225 3.71488 0.861317 4.10746 0.83495 4.25101C0.805653 4.41507 0.870106 4.59671 1.0078 4.73441C1.15136 4.88089 1.31542 4.93656 1.50292 4.91019C1.72264 4.87796 1.8369 4.76664 2.05956 4.37699C3.07323 2.58695 4.84276 1.42679 6.89061 1.20413C8.42284 1.03714 10.084 1.52054 11.3379 2.49906C11.6074 2.71292 12.041 3.1348 12.293 3.43363C12.5039 3.68851 12.7617 4.043 12.7295 4.043C12.7207 4.043 12.5303 3.91117 12.3047 3.75003C11.7949 3.38675 11.7978 3.38968 11.5986 3.38675C11.0683 3.38089 10.8164 4.04007 11.209 4.39749C11.3642 4.53519 13.7812 6.24906 13.9014 6.30179C14.1973 6.43656 14.5342 6.30179 14.6631 5.9971C14.6953 5.92093 14.7539 5.37308 14.8594 4.22171L15.0117 2.55765L14.9385 2.41703C14.9004 2.33792 14.8183 2.23246 14.7568 2.18558C14.6514 2.10062 14.625 2.09476 14.4141 2.09476C14.2031 2.09476 14.1767 2.10062 14.0713 2.18558C13.8838 2.33206 13.8369 2.46976 13.7959 2.98538C13.7578 3.4307 13.7578 3.43656 13.7051 3.36624C13.1953 2.66312 12.8555 2.27054 12.4453 1.90433C11.3174 0.902377 10.0195 0.293003 8.55468 0.073276C8.17968 0.017612 7.18358 -0.00582552 6.78222 0.0322604Z"/><path fill="#393F46" d="M0.644531 8.68961C0.588867 8.71305 0.512695 8.76285 0.474609 8.79801C0.307617 8.95328 0.304688 8.97086 0.143555 10.758L-0.0117188 12.4425L0.0615234 12.5832C0.0996094 12.6623 0.181641 12.7677 0.243164 12.8146C0.348633 12.8996 0.375 12.9054 0.585938 12.9054C0.796875 12.9054 0.823242 12.8996 0.928711 12.8146C1.11621 12.6681 1.16309 12.5304 1.2041 12.0148C1.24219 11.5695 1.24219 11.5636 1.29492 11.6339C1.32129 11.672 1.44434 11.8361 1.56152 11.9972C3.01758 13.9572 5.2998 15.0705 7.70508 14.9884C8.51953 14.9621 9.08789 14.8625 9.84082 14.6105C11.3848 14.1007 12.7383 13.0636 13.667 11.675C13.9277 11.2853 14.1387 10.8927 14.165 10.7492C14.1943 10.5851 14.1299 10.4035 13.9922 10.2658C13.8486 10.1193 13.6846 10.0636 13.4971 10.09C13.2773 10.1222 13.1631 10.2336 12.9404 10.6232C11.9238 12.4191 10.1309 13.591 8.08887 13.799C6.04102 14.0041 3.98145 13.131 2.64258 11.4904C2.4668 11.2765 2.24414 10.9572 2.27051 10.9572C2.28223 10.9572 2.47266 11.089 2.69531 11.2472C3.19922 11.6076 3.20215 11.6105 3.40137 11.6134C3.93164 11.6193 4.18359 10.9601 3.79102 10.6027C3.63574 10.465 1.21875 8.75113 1.09863 8.6984C0.958008 8.63395 0.782227 8.63102 0.644531 8.68961Z"/></g><defs><clipPath id="clip0_2010_2775"><rect width="15" height="15" fill="#fff"/></clipPath></defs></svg>