<svg width="17" height="18" viewBox="0 0 17 18" fill="none" xmlns="http://www.w3.org/2000/svg">
<path d="M13.113 0.0630951C12.7563 0.189789 12.4795 0.579258 12.4748 0.954649C12.4748 1.05788 12.5076 1.32065 12.5452 1.5412C12.5827 1.76174 12.6156 1.9682 12.6156 2.00105C12.6156 2.03859 12.517 2.01043 12.3293 1.91659C10.199 0.837337 7.6041 0.720028 5.36583 1.59751C3.4138 2.35767 1.79023 3.85454 0.865832 5.73619C0.302746 6.87174 0.0493575 7.90876 0.00712603 9.18978C-0.0210283 10.1517 0.030588 10.7242 0.227668 11.536C0.781369 13.8071 2.25947 15.7497 4.30535 16.9088C7.32255 18.6168 11.1562 18.2977 13.8403 16.1064C14.3142 15.7169 15.0884 14.8957 15.4404 14.3983C15.797 13.8962 16.3413 12.8311 16.5337 12.2633C16.712 11.7284 16.8856 10.9447 16.8856 10.6538C16.8856 10.1236 16.5806 9.75287 16.0504 9.63556C15.7031 9.56048 15.1964 9.80918 15.0321 10.133C14.9899 10.208 14.9195 10.4755 14.8679 10.7336C14.5441 12.3478 13.6854 13.7132 12.3856 14.6939C11.2829 15.5245 10.1286 15.928 8.72088 15.9797C7.51025 16.0172 6.65623 15.8389 5.60045 15.3133C3.72819 14.3843 2.47063 12.7091 2.07647 10.621C1.96854 10.0626 1.96854 8.98801 2.07177 8.41085C2.49878 6.02711 4.1505 4.09385 6.39346 3.35246C7.13955 3.10376 7.64633 3.02399 8.48626 3.02399C9.33089 3.02399 9.89398 3.11314 10.5603 3.35246C10.9357 3.48854 11.6959 3.83577 11.6677 3.86393C11.6583 3.87331 11.3345 3.93431 10.9498 4.0047C10.4571 4.09385 10.1849 4.16424 10.0488 4.24401C9.80013 4.38947 9.60774 4.70856 9.5749 5.01825C9.52797 5.49218 9.92213 5.98488 10.4054 6.06935C10.5791 6.0975 14.0233 5.5438 14.3893 5.42649C14.7459 5.31387 15.0509 4.89625 15.0556 4.52086C15.0556 4.31439 14.4737 0.851416 14.3987 0.621489C14.3705 0.541718 14.2814 0.40564 14.1969 0.321177C13.9013 0.0208645 13.5024 -0.0776768 13.113 0.0630951Z" fill="#5F6E84"/>
</svg>
