<svg width="16" height="16" viewBox="0 0 16 16" fill="none" xmlns="http://www.w3.org/2000/svg">
<path d="M15.9719 4.18748C15.8594 3.81873 15.4844 3.56248 15.1219 3.60311C15.0376 3.61248 14.9157 3.64686 14.8532 3.67498C14.7751 3.70936 13.6094 4.85311 11.3657 7.09061L8.00007 10.4531L4.63132 7.09061C2.39069 4.85311 1.22507 3.70936 1.14694 3.67498C0.725065 3.48436 0.22194 3.68748 0.0625652 4.11248C-0.0124348 4.31873 -0.0155598 4.46873 0.0500652 4.67498C0.0969402 4.81561 0.40319 5.13123 3.82507 8.55623C7.24069 11.9781 7.55944 12.2875 7.71257 12.3437C7.80319 12.3781 7.93132 12.4062 8.00007 12.4062C8.06882 12.4062 8.19694 12.3781 8.28757 12.3437C8.44069 12.2875 8.75944 11.9781 12.1751 8.55623C15.5969 5.13123 15.9032 4.81561 15.9501 4.67498C16.0032 4.51248 16.0126 4.31873 15.9719 4.18748Z" fill="#566677"/>
</svg>
