<svg xmlns="http://www.w3.org/2000/svg" width="16" height="16" fill="none" viewBox="0 0 16 16"><path fill="#566677" d="M0.0280581 11.8125C0.140558 12.1813 0.515558 12.4375 0.878058 12.3969C0.962433 12.3875 1.08431 12.3531 1.14681 12.325C1.22493 12.2906 2.39056 11.1469 4.63431 8.90939L7.99993 5.54689L11.3687 8.90939C13.6093 11.1469 14.7749 12.2906 14.8531 12.325C15.2749 12.5156 15.7781 12.3125 15.9374 11.8875C16.0124 11.6813 16.0156 11.5313 15.9499 11.325C15.9031 11.1844 15.5968 10.8688 12.1749 7.44377C8.75931 4.02189 8.44056 3.71252 8.28743 3.65627C8.19681 3.62189 8.06868 3.59377 7.99993 3.59377C7.93118 3.59377 7.80306 3.62189 7.71243 3.65627C7.55931 3.71252 7.24056 4.02189 3.82493 7.44377C0.403059 10.8688 0.0968084 11.1844 0.0499334 11.325C-0.00319195 11.4875 -0.0125675 11.6813 0.0280581 11.8125Z"/></svg>