<svg xmlns="http://www.w3.org/2000/svg" width="18" height="18" fill="none" viewBox="0 0 18 18"><path fill="#5F6E84" d="M1.36049 0.0597649C1.32182 0.0949211 1.33237 17.9297 1.36753 17.9297C1.3851 17.9297 3.10776 16.9348 5.19956 15.7184L9.00346 13.507L12.8039 15.7184C14.8957 16.9348 16.6183 17.9297 16.6359 17.9297C16.6499 17.9297 16.6605 13.9078 16.657 8.98945L16.6464 0.0527344L9.01401 0.0421867C4.81635 0.0386715 1.37104 0.045702 1.36049 0.0597649ZM15.3632 8.51133C15.3632 15.0082 15.3597 15.6867 15.307 15.6656C15.2789 15.6551 13.8515 14.8289 12.1394 13.834C10.4308 12.8391 9.01753 12.0234 8.99995 12.0234C8.98589 12.0234 7.56206 12.8461 5.83237 13.8516C4.10268 14.857 2.67885 15.6797 2.66479 15.6797C2.64721 15.6797 2.63667 12.4523 2.63667 8.50781V1.33594H8.99995H15.3632V8.51133Z"/></svg>