<svg xmlns="http://www.w3.org/2000/svg" width="24" height="24" fill="none" viewBox="0 0 24 24"><g clip-path="url(#clip0_1984_8815)"><path fill="#393F46" d="M23.0623 0.0468616C22.6873 0.164049 0.379461 9.11717 0.276336 9.19217C0.102898 9.31405 -0.0189767 9.64686 0.0185234 9.86717C0.0888359 10.2281 0.0747734 10.2234 4.79977 12.5109C7.24665 13.6969 9.26696 14.6859 9.2904 14.7094C9.31384 14.7328 10.3029 16.7531 11.4888 19.2C13.7763 23.925 13.7716 23.9109 14.1326 23.9812C14.3529 24.0187 14.6857 23.8969 14.8076 23.7234C14.9295 23.5547 23.906 1.11561 23.9716 0.829674C24.0138 0.628111 24.0091 0.581236 23.9154 0.403111C23.742 0.0796738 23.4045 -0.0609512 23.0623 0.0468616ZM14.9998 7.99217L9.67946 13.3125L6.07946 11.5687C3.57634 10.3547 2.49821 9.80623 2.5404 9.77811C2.62477 9.72655 20.2123 2.68124 20.2732 2.67655C20.2966 2.67186 17.9248 5.06717 14.9998 7.99217ZM17.7841 12.5906C15.8341 17.4609 14.2263 21.4594 14.2076 21.4781C14.1888 21.5015 13.392 19.8984 12.431 17.9203L10.6873 14.3203L15.9935 9.01405C18.9138 6.09373 21.3045 3.71249 21.3138 3.72186C21.3185 3.72655 19.7341 7.71561 17.7841 12.5906Z"/></g><defs><clipPath id="clip0_1984_8815"><rect width="24" height="24" fill="#fff"/></clipPath></defs></svg>