<svg xmlns="http://www.w3.org/2000/svg" width="24" height="24" fill="none" viewBox="0 0 24 24"><path fill="#393F46" d="M19.7111 0.0468769C20.2829 0.187502 20.7283 0.604689 20.9064 1.16719C21.0001 1.45781 21.0001 1.57969 21.0001 11.9953C21.0001 23.6766 21.0236 22.7859 20.6908 23.2781C20.5126 23.5406 20.2361 23.7609 19.9173 23.8922C19.7204 23.9719 19.3314 23.9766 11.9767 23.9766H4.24232L4.01732 23.8734C3.68451 23.7141 3.31419 23.3438 3.15951 23.0016L3.02357 22.7109L3.00951 13.9688C3.00482 9.15938 3.00951 5.15156 3.02357 5.0625C3.05169 4.92188 3.40794 4.54688 5.42826 2.5125C6.78763 1.14844 7.87044 0.103127 7.95482 0.0656261C8.08138 0.00937653 9.03294 1.90735e-06 13.8376 0.00468826C16.9923 0.00937653 19.6314 0.0234394 19.7111 0.0468769ZM8.99076 3.51094C8.97669 5.46094 8.97201 5.52656 8.87826 5.65313C8.82669 5.72344 8.72357 5.82656 8.65326 5.87813C8.52669 5.97188 8.46107 5.97656 6.51107 5.99063L4.50013 6.00469V14.1938C4.50013 20.5031 4.51419 22.4016 4.55638 22.4438C4.63607 22.5234 19.3642 22.5234 19.4439 22.4438C19.5236 22.3641 19.5236 1.63594 19.4439 1.55625C19.4017 1.51406 18.1736 1.5 14.1939 1.5H9.00482L8.99076 3.51094ZM6.51576 3.53906L5.55482 4.5H6.52982H7.50013V3.53906C7.50013 3.00938 7.49544 2.57813 7.48607 2.57813C7.48138 2.57813 7.04544 3.00938 6.51576 3.53906Z"/><path fill="#393F46" d="M16.8611 8.34844C17.1189 8.475 17.2736 8.77031 17.2361 9.07969C17.2127 9.30937 17.1096 9.47812 16.9033 9.62812C16.7768 9.72656 16.7486 9.72656 12.0002 9.72656C7.25175 9.72656 7.22363 9.72656 7.09706 9.62812C6.84863 9.44531 6.77363 9.29531 6.77363 9C6.77363 8.70469 6.84863 8.55469 7.09706 8.37187C7.22363 8.27344 7.26113 8.27344 11.9439 8.25937C16.6455 8.25 16.6643 8.25 16.8611 8.34844Z"/><path fill="#393F46" d="M16.8891 12.1031C17.1282 12.2437 17.2688 12.5391 17.236 12.8297C17.2126 13.0594 17.1094 13.2281 16.9032 13.3781C16.7766 13.4766 16.7485 13.4766 12.0001 13.4766C7.25163 13.4766 7.2235 13.4766 7.09694 13.3781C6.89069 13.2281 6.78756 13.0594 6.76413 12.8297C6.72663 12.5156 6.88131 12.225 7.14381 12.0984C7.34069 12 7.39225 12 12.0282 12H16.711L16.8891 12.1031Z"/><path fill="#393F46" d="M16.8047 15.8156C17.3672 16.064 17.3954 16.8937 16.8563 17.1562C16.6547 17.25 16.6266 17.25 11.9391 17.2406C7.26098 17.2265 7.22348 17.2265 7.09692 17.1281C6.84848 16.9453 6.77348 16.7953 6.77348 16.5C6.77348 16.2047 6.84848 16.0547 7.09692 15.8719C7.22348 15.7734 7.26098 15.7734 11.9438 15.764C15.8063 15.7547 16.6875 15.764 16.8047 15.8156Z"/></svg>