<svg xmlns="http://www.w3.org/2000/svg" width="24" height="24" fill="none" viewBox="0 0 24 24"><path fill="#fff" d="M11.2358 0.0703239C9.74986 0.351574 8.4983 1.44376 8.02486 2.87345C7.7858 3.59532 7.77174 3.89532 7.79049 8.69532C7.80924 13.0219 7.80924 13.0594 7.91236 13.4484C8.42799 15.3891 10.0546 16.6547 12.0233 16.65C12.4639 16.65 12.6842 16.6219 13.0358 16.5328C14.6202 16.125 15.8342 14.8313 16.1342 13.2328C16.1811 12.9844 16.1952 11.8688 16.1952 8.29689C16.1952 3.20626 16.2092 3.45939 15.8952 2.64845C15.4358 1.44845 14.3202 0.468761 13.0358 0.135948C12.5577 0.00938606 11.7186 -0.0187397 11.2358 0.0703239ZM12.6327 1.83751C13.1858 1.97345 13.8327 2.48439 14.1327 3.01876C14.4467 3.58595 14.4374 3.38439 14.4374 8.34376C14.4374 13.3031 14.4467 13.1063 14.1327 13.6641C13.4905 14.8031 12.0796 15.2297 10.8889 14.6438C10.5327 14.4656 10.003 13.9359 9.82486 13.5797C9.55299 13.0266 9.56236 13.2047 9.56236 8.34376C9.56236 3.38439 9.55299 3.58595 9.86705 3.01876C10.4061 2.05314 11.5452 1.56564 12.6327 1.83751Z"/><path fill="#fff" d="M4.97806 11.1141C4.85618 11.175 4.72025 11.2969 4.64993 11.4047C4.53275 11.5828 4.52337 11.6344 4.50931 12.225C4.45306 14.3813 5.13743 16.2047 6.55775 17.7281C7.66868 18.9141 9.34212 19.7953 10.8656 19.9922L11.1093 20.025V21.1453V22.2656H10.2796C9.48275 22.2656 9.44525 22.2703 9.25306 22.3828C8.64368 22.7391 8.69525 23.6156 9.3515 23.9109C9.52493 23.9906 9.71243 24 11.9999 24C14.2874 24 14.4749 23.9906 14.6484 23.9109C15.3046 23.6156 15.3562 22.7391 14.7468 22.3828C14.5546 22.2703 14.5171 22.2656 13.7202 22.2656H12.8906V21.1453V20.025L13.139 19.9922C14.6577 19.7953 16.3312 18.9141 17.4421 17.7281C18.839 16.2328 19.4999 14.5078 19.4999 12.3328C19.4999 11.7844 19.4859 11.6766 19.4015 11.4938C19.0968 10.8703 18.1781 10.8656 17.8593 11.4891C17.7843 11.6297 17.7656 11.7609 17.7656 12.1266C17.7656 14.0016 17.2546 15.3891 16.139 16.5516C15.314 17.4094 14.3062 17.9672 13.1249 18.2203C12.5718 18.3375 11.4281 18.3375 10.8749 18.2203C9.69368 17.9672 8.68587 17.4094 7.86087 16.5516C6.74525 15.3891 6.23431 14.0016 6.23431 12.1266C6.23431 11.5031 6.11243 11.2547 5.70462 11.0859C5.46556 10.9875 5.21712 10.9969 4.97806 11.1141Z"/></svg>