<svg width="24" height="24" viewBox="0 0 24 24" fill="none" xmlns="http://www.w3.org/2000/svg">
<path d="M11.2363 0.0703239C9.75035 0.351574 8.49879 1.44376 8.02535 2.87345C7.78629 3.59532 7.77223 3.89532 7.79098 8.69532C7.80973 13.0219 7.80973 13.0594 7.91285 13.4484C8.42848 15.3891 10.055 16.6547 12.0238 16.65C12.4644 16.65 12.6847 16.6219 13.0363 16.5328C14.6207 16.125 15.8347 14.8313 16.1347 13.2328C16.1816 12.9844 16.1957 11.8688 16.1957 8.29689C16.1957 3.20626 16.2097 3.45939 15.8957 2.64845C15.4363 1.44845 14.3207 0.468761 13.0363 0.135948C12.5582 0.00938606 11.7191 -0.0187397 11.2363 0.0703239ZM12.6332 1.83751C13.1863 1.97345 13.8332 2.48439 14.1332 3.01876C14.4472 3.58595 14.4379 3.38439 14.4379 8.34376C14.4379 13.3031 14.4472 13.1063 14.1332 13.6641C13.491 14.8031 12.08 15.2297 10.8894 14.6438C10.5332 14.4656 10.0035 13.9359 9.82535 13.5797C9.55348 13.0266 9.56285 13.2047 9.56285 8.34376C9.56285 3.38439 9.55348 3.58595 9.86754 3.01876C10.4066 2.05314 11.5457 1.56564 12.6332 1.83751Z" fill="#393F46"/>
<path d="M4.9783 11.1141C4.85643 11.175 4.72049 11.2969 4.65018 11.4047C4.53299 11.5828 4.52361 11.6344 4.50955 12.225C4.4533 14.3813 5.13768 16.2047 6.55799 17.7281C7.66893 18.9141 9.34236 19.7953 10.8658 19.9922L11.1096 20.025V21.1453V22.2656H10.2799C9.48299 22.2656 9.44549 22.2703 9.2533 22.3828C8.64393 22.7391 8.69549 23.6156 9.35174 23.9109C9.52518 23.9906 9.71268 24 12.0002 24C14.2877 24 14.4752 23.9906 14.6486 23.9109C15.3049 23.6156 15.3564 22.7391 14.7471 22.3828C14.5549 22.2703 14.5174 22.2656 13.7205 22.2656H12.8908V21.1453V20.025L13.1392 19.9922C14.658 19.7953 16.3314 18.9141 17.4424 17.7281C18.8392 16.2328 19.5002 14.5078 19.5002 12.3328C19.5002 11.7844 19.4861 11.6766 19.4017 11.4938C19.0971 10.8703 18.1783 10.8656 17.8596 11.4891C17.7846 11.6297 17.7658 11.7609 17.7658 12.1266C17.7658 14.0016 17.2549 15.3891 16.1392 16.5516C15.3142 17.4094 14.3064 17.9672 13.1252 18.2203C12.5721 18.3375 11.4283 18.3375 10.8752 18.2203C9.69393 17.9672 8.68611 17.4094 7.86111 16.5516C6.74549 15.3891 6.23455 14.0016 6.23455 12.1266C6.23455 11.5031 6.11268 11.2547 5.70486 11.0859C5.4658 10.9875 5.21736 10.9969 4.9783 11.1141Z" fill="#393F46"/>
</svg>
