<svg width="19" height="17" viewBox="0 0 19 17" fill="none" xmlns="http://www.w3.org/2000/svg">
<path d="M9.2418 0.076355C9.17127 0.120898 7.09261 1.63164 4.62421 3.43932C1.72894 5.56252 0.110557 6.76889 0.0660143 6.84312C-0.175258 7.23658 0.292439 7.73398 0.700747 7.5224C0.752713 7.49642 2.73857 6.04878 5.11789 4.30419C7.49721 2.56332 9.46822 1.13424 9.49792 1.13424C9.52761 1.13424 11.5246 2.57817 13.9299 4.34131C18.0278 7.34052 18.3174 7.54467 18.477 7.55952C18.8779 7.59292 19.1414 7.15863 18.9187 6.82828C18.8667 6.75033 17.1741 5.48829 14.4533 3.495C12.0443 1.73186 9.97304 0.221119 9.85426 0.143169C9.59814 -0.0238657 9.43481 -0.0424252 9.2418 0.076355Z" fill="#393F46"/>
<path d="M2.31913 7.68197C2.07786 7.83787 2.09271 7.54834 2.08157 12.0991C2.07415 14.3745 2.08157 16.3269 2.09271 16.4383C2.11127 16.5905 2.14467 16.6647 2.24118 16.7724L2.36367 16.906L5.00283 16.9171C7.92037 16.9283 7.79045 16.9357 7.93893 16.6907C8.00945 16.5756 8.01316 16.4866 8.01316 14.059C8.01316 12.3404 8.02801 11.4829 8.054 11.3493C8.21732 10.5772 8.97826 10.0613 9.7429 10.2023C10.3517 10.3137 10.8156 10.7554 10.9418 11.3493C10.9678 11.4829 10.9827 12.3404 10.9827 14.059C10.9827 16.4866 10.9864 16.5756 11.0569 16.6907C11.2054 16.9357 11.0755 16.9283 13.993 16.9171L16.6322 16.906L16.7547 16.7724C16.8512 16.6647 16.8846 16.5905 16.9031 16.4383C16.9143 16.3269 16.9217 14.3745 16.9143 12.0991C16.9031 8.2239 16.8994 7.95294 16.8363 7.84158C16.6581 7.51122 16.1496 7.52978 15.9752 7.86756C15.9269 7.96036 15.9195 8.51714 15.9195 11.9692V15.9595H13.9559H11.9886L11.9737 13.6284C11.9589 11.0301 11.9589 11.0561 11.6954 10.5438C11.3613 9.90168 10.76 9.41913 10.0881 9.25952C9.7726 9.18528 9.18612 9.18899 8.88175 9.26323C8.21732 9.43027 7.57145 9.96478 7.2745 10.5884C7.03323 11.1006 7.03694 11.0301 7.02209 13.6136L7.00724 15.9595H5.03994H3.07636V11.9692C3.07636 7.61515 3.08749 7.86014 2.86849 7.68568C2.73857 7.58175 2.46761 7.58175 2.31913 7.68197Z" fill="#393F46"/>
</svg>
