<svg width="24" height="22" viewBox="0 0 24 22" fill="none" xmlns="http://www.w3.org/2000/svg">
<path d="M11.6738 0.0961409C11.5848 0.152405 8.95909 2.06071 5.84111 4.3441C2.18392 7.02604 0.139651 8.54986 0.0833865 8.64364C-0.221379 9.14064 0.369397 9.76892 0.885154 9.50167C0.950796 9.46885 3.45925 7.64026 6.4647 5.43657C9.47016 3.23757 11.9599 1.43242 11.9974 1.43242C12.0349 1.43242 14.5574 3.25632 17.5957 5.48345C22.772 9.27192 23.1377 9.5298 23.3393 9.54856C23.8457 9.59075 24.1786 9.04218 23.8973 8.62488C23.8316 8.52642 21.6936 6.93226 18.2568 4.41443C15.2138 2.1873 12.5975 0.279 12.4475 0.180537C12.124 -0.0304537 11.9177 -0.0538979 11.6738 0.0961409Z" fill="#395666"/>
<path d="M2.92885 9.70318C2.62409 9.9001 2.64284 9.53438 2.62877 15.2827C2.6194 18.1569 2.62877 20.6232 2.64284 20.7638C2.66628 20.9561 2.70848 21.0498 2.83039 21.1858L2.98512 21.3546L6.31878 21.3687C10.0041 21.3827 9.83999 21.3921 10.0275 21.0826C10.1166 20.9373 10.1213 20.8248 10.1213 17.7584C10.1213 15.5875 10.1401 14.5044 10.1729 14.3356C10.3792 13.3604 11.3404 12.7086 12.3062 12.8868C13.0752 13.0275 13.6613 13.5854 13.8207 14.3356C13.8535 14.5044 13.8723 15.5875 13.8723 17.7584C13.8723 20.8248 13.877 20.9373 13.966 21.0826C14.1536 21.3921 13.9895 21.3827 17.6748 21.3687L21.0085 21.3546L21.1632 21.1858C21.2851 21.0498 21.3273 20.9561 21.3507 20.7638C21.3648 20.6232 21.3742 18.1569 21.3648 15.2827C21.3507 10.3877 21.3461 10.0455 21.2663 9.90479C21.0413 9.4875 20.3989 9.51094 20.1786 9.93761C20.1176 10.0548 20.1082 10.7581 20.1082 15.1186V20.159H17.6279H15.1429L15.1242 17.2145C15.1054 13.9324 15.1054 13.9652 14.7725 13.3182C14.3505 12.507 13.591 11.8975 12.7423 11.6959C12.3438 11.6021 11.6029 11.6068 11.2185 11.7006C10.3792 11.9116 9.56336 12.5867 9.18826 13.3744C8.8835 14.0215 8.88819 13.9324 8.86943 17.1957L8.85068 20.159H6.36567H3.88535V15.1186C3.88535 9.61878 3.89941 9.92824 3.62278 9.70787C3.45867 9.57658 3.1164 9.57658 2.92885 9.70318Z" fill="#395666"/>
</svg>
