<svg width="24" height="22" viewBox="0 0 24 22" fill="none" xmlns="http://www.w3.org/2000/svg">
<path d="M11.6738 0.0960188C11.5848 0.152283 8.95909 2.06058 5.84111 4.34398C2.18392 7.02591 0.139651 8.54974 0.0833865 8.64351C-0.221379 9.14052 0.369397 9.7688 0.885154 9.50155C0.950796 9.46873 3.45925 7.64013 6.4647 5.43645C9.47016 3.23745 11.9599 1.4323 11.9974 1.4323C12.0349 1.4323 14.5574 3.2562 17.5957 5.48333C22.772 9.2718 23.1377 9.52968 23.3393 9.54843C23.8457 9.59063 24.1786 9.04205 23.8973 8.62476C23.8316 8.5263 21.6936 6.93214 18.2568 4.41431C15.2138 2.18718 12.5975 0.278878 12.4475 0.180415C12.124 -0.0305758 11.9177 -0.0540199 11.6738 0.0960188Z" fill="#8338EC"/>
<path d="M2.92885 9.7033C2.62409 9.90023 2.64284 9.53451 2.62877 15.2829C2.6194 18.157 2.62877 20.6233 2.64284 20.7639C2.66628 20.9562 2.70848 21.0499 2.83039 21.1859L2.98512 21.3547L6.31878 21.3688C10.0041 21.3828 9.83999 21.3922 10.0275 21.0828C10.1166 20.9374 10.1213 20.8249 10.1213 17.7585C10.1213 15.5876 10.1401 14.5045 10.1729 14.3357C10.3792 13.3605 11.3404 12.7088 12.3062 12.8869C13.0752 13.0276 13.6613 13.5855 13.8207 14.3357C13.8535 14.5045 13.8723 15.5876 13.8723 17.7585C13.8723 20.8249 13.877 20.9374 13.966 21.0828C14.1536 21.3922 13.9895 21.3828 17.6748 21.3688L21.0085 21.3547L21.1632 21.1859C21.2851 21.0499 21.3273 20.9562 21.3507 20.7639C21.3648 20.6233 21.3742 18.157 21.3648 15.2829C21.3507 10.3878 21.3461 10.0456 21.2663 9.90491C21.0413 9.48762 20.3989 9.51106 20.1786 9.93773C20.1176 10.055 20.1082 10.7583 20.1082 15.1187V20.1591H17.6279H15.1429L15.1242 17.2146C15.1054 13.9325 15.1054 13.9653 14.7725 13.3183C14.3505 12.5071 13.591 11.8976 12.7423 11.696C12.3438 11.6022 11.6029 11.6069 11.2185 11.7007C10.3792 11.9117 9.56336 12.5868 9.18826 13.3746C8.8835 14.0216 8.88819 13.9325 8.86943 17.1958L8.85068 20.1591H6.36567H3.88535V15.1187C3.88535 9.6189 3.89941 9.92836 3.62278 9.70799C3.45867 9.5767 3.1164 9.5767 2.92885 9.7033Z" fill="#8338EC"/>
</svg>
