<svg xmlns="http://www.w3.org/2000/svg" width="12" height="12" fill="none" viewBox="0 0 12 12"><path fill="#566677" d="M11.5968 1.23984C12.0914 1.41094 12.1359 2.09531 11.6672 2.32969L11.5453 2.39062H5.99996H0.454649L0.332774 2.32969C-0.0469131 2.13984 -0.110194 1.64062 0.208555 1.35234C0.396055 1.18359 -0.0633192 1.19531 6.00934 1.19531C11.2476 1.19766 11.4773 1.19766 11.5968 1.23984Z"/><path fill="#566677" d="M11.5617 5.42344C11.7023 5.46094 11.8266 5.56172 11.918 5.70703C11.9789 5.80781 11.9883 5.84063 11.9883 5.99766C11.9883 6.15 11.9789 6.19219 11.925 6.28359C11.8523 6.40781 11.7469 6.50391 11.625 6.56016C11.55 6.59531 11.0297 6.59766 6 6.59766C0.970312 6.59766 0.45 6.59531 0.375 6.56016C0.253124 6.50391 0.147655 6.40781 0.0749998 6.28359C0.0210934 6.19219 0.0117188 6.15 0.0117188 5.99766C0.0117188 5.84063 0.0210934 5.80781 0.0820312 5.70703C0.175781 5.55703 0.318749 5.44922 0.46875 5.41641C0.65625 5.37656 11.4117 5.38359 11.5617 5.42344Z"/><path fill="#566677" d="M11.6671 9.67014C12.0468 9.85998 12.1101 10.3592 11.7913 10.6475C11.6038 10.8162 12.0609 10.8045 5.99994 10.8045C-0.0609989 10.8045 0.396033 10.8162 0.208533 10.6475C-0.112561 10.3569 -0.0422487 9.84358 0.33744 9.66545L0.45697 9.6092H6.00228H11.5453L11.6671 9.67014Z"/></svg>