<svg width="472" height="116" viewBox="0 0 472 116" fill="none" xmlns="http://www.w3.org/2000/svg">
<path d="M27.648 43.424C31.296 43.424 34.624 44.064 37.632 45.344C40.704 46.56 43.328 48.288 45.504 50.528C47.744 52.704 49.472 55.328 50.688 58.4C51.968 61.472 52.608 64.832 52.608 68.48C52.608 72.128 51.968 75.488 50.688 78.56C49.472 81.632 47.744 84.288 45.504 86.528C43.328 88.704 40.704 90.432 37.632 91.712C34.624 92.928 31.296 93.536 27.648 93.536C24 93.536 20.64 92.928 17.568 91.712C14.56 90.432 11.936 88.704 9.696 86.528C7.52 84.288 5.792 81.632 4.512 78.56C3.296 75.488 2.688 72.128 2.688 68.48C2.688 64.832 3.296 61.472 4.512 58.4C5.792 55.328 7.52 52.704 9.696 50.528C11.936 48.288 14.56 46.56 17.568 45.344C20.64 44.064 24 43.424 27.648 43.424ZM27.648 81.92C29.248 81.92 30.784 81.632 32.256 81.056C33.792 80.416 35.136 79.52 36.288 78.368C37.44 77.216 38.336 75.808 38.976 74.144C39.68 72.48 40.032 70.592 40.032 68.48C40.032 66.368 39.68 64.48 38.976 62.816C38.336 61.152 37.44 59.744 36.288 58.592C35.136 57.44 33.792 56.576 32.256 56C30.784 55.36 29.248 55.04 27.648 55.04C25.984 55.04 24.416 55.36 22.944 56C21.472 56.576 20.16 57.44 19.008 58.592C17.856 59.744 16.928 61.152 16.224 62.816C15.584 64.48 15.264 66.368 15.264 68.48C15.264 70.592 15.584 72.48 16.224 74.144C16.928 75.808 17.856 77.216 19.008 78.368C20.16 79.52 21.472 80.416 22.944 81.056C24.416 81.632 25.984 81.92 27.648 81.92ZM71.559 51.104H72.327C73.799 48.736 75.783 46.88 78.279 45.536C80.775 44.128 83.623 43.424 86.823 43.424C89.767 43.424 92.359 43.904 94.599 44.864C96.839 45.824 98.663 47.2 100.071 48.992C101.543 50.72 102.631 52.832 103.335 55.328C104.103 57.76 104.487 60.48 104.487 63.488V92H91.911V65.024C91.911 61.632 91.143 59.136 89.607 57.536C88.135 55.872 85.959 55.04 83.079 55.04C81.351 55.04 79.815 55.424 78.471 56.192C77.191 56.896 76.071 57.888 75.111 59.168C74.215 60.384 73.511 61.856 72.999 63.584C72.551 65.248 72.327 67.04 72.327 68.96V92H59.751V44.96H71.559V51.104ZM159.42 80.672C157.244 84.512 154.3 87.616 150.588 89.984C146.94 92.352 142.46 93.536 137.148 93.536C133.564 93.536 130.236 92.928 127.164 91.712C124.156 90.432 121.532 88.672 119.292 86.432C117.052 84.192 115.292 81.568 114.012 78.56C112.796 75.488 112.188 72.128 112.188 68.48C112.188 65.088 112.796 61.888 114.012 58.88C115.228 55.808 116.924 53.152 119.1 50.912C121.276 48.608 123.836 46.784 126.78 45.44C129.788 44.096 133.084 43.424 136.668 43.424C140.444 43.424 143.804 44.064 146.748 45.344C149.692 46.56 152.156 48.288 154.14 50.528C156.124 52.704 157.628 55.296 158.652 58.304C159.676 61.312 160.188 64.576 160.188 68.096C160.188 68.544 160.188 68.928 160.188 69.248C160.124 69.632 160.092 69.984 160.092 70.304C160.028 70.624 159.996 70.976 159.996 71.36H124.572C124.828 73.28 125.34 74.944 126.108 76.352C126.94 77.696 127.932 78.848 129.084 79.808C130.3 80.704 131.612 81.376 133.02 81.824C134.428 82.208 135.868 82.4 137.34 82.4C140.22 82.4 142.588 81.76 144.444 80.48C146.364 79.136 147.868 77.472 148.956 75.488L159.42 80.672ZM147.996 62.432C147.932 61.6 147.644 60.672 147.132 59.648C146.684 58.624 145.98 57.664 145.02 56.768C144.124 55.872 142.972 55.136 141.564 54.56C140.22 53.984 138.588 53.696 136.668 53.696C133.98 53.696 131.612 54.464 129.564 56C127.516 57.536 126.076 59.68 125.244 62.432H147.996ZM213.329 80C211.281 83.968 208.401 87.232 204.689 89.792C201.041 92.288 196.465 93.536 190.961 93.536C187.313 93.536 183.953 92.928 180.881 91.712C177.873 90.432 175.249 88.672 173.009 86.432C170.833 84.192 169.105 81.568 167.825 78.56C166.609 75.488 166.001 72.128 166.001 68.48C166.001 64.832 166.609 61.472 167.825 58.4C169.105 55.328 170.833 52.704 173.009 50.528C175.249 48.288 177.873 46.56 180.881 45.344C183.953 44.064 187.313 43.424 190.961 43.424C196.401 43.424 200.977 44.672 204.689 47.168C208.401 49.664 211.121 52.896 212.849 56.864L201.329 61.664C200.241 59.488 198.833 57.856 197.105 56.768C195.441 55.616 193.329 55.04 190.769 55.04C189.105 55.04 187.537 55.36 186.065 56C184.593 56.64 183.281 57.536 182.129 58.688C181.041 59.84 180.177 61.248 179.537 62.912C178.897 64.576 178.577 66.432 178.577 68.48C178.577 70.528 178.897 72.384 179.537 74.048C180.177 75.712 181.041 77.12 182.129 78.272C183.281 79.424 184.593 80.32 186.065 80.96C187.537 81.6 189.105 81.92 190.769 81.92C193.393 81.92 195.601 81.344 197.393 80.192C199.249 78.976 200.721 77.248 201.809 75.008L213.329 80ZM242.804 43.424C246.452 43.424 249.78 44.064 252.788 45.344C255.86 46.56 258.484 48.288 260.66 50.528C262.9 52.704 264.628 55.328 265.844 58.4C267.124 61.472 267.764 64.832 267.764 68.48C267.764 72.128 267.124 75.488 265.844 78.56C264.628 81.632 262.9 84.288 260.66 86.528C258.484 88.704 255.86 90.432 252.788 91.712C249.78 92.928 246.452 93.536 242.804 93.536C239.156 93.536 235.796 92.928 232.724 91.712C229.716 90.432 227.092 88.704 224.852 86.528C222.676 84.288 220.948 81.632 219.668 78.56C218.452 75.488 217.844 72.128 217.844 68.48C217.844 64.832 218.452 61.472 219.668 58.4C220.948 55.328 222.676 52.704 224.852 50.528C227.092 48.288 229.716 46.56 232.724 45.344C235.796 44.064 239.156 43.424 242.804 43.424ZM242.804 81.92C244.404 81.92 245.94 81.632 247.412 81.056C248.948 80.416 250.292 79.52 251.444 78.368C252.596 77.216 253.492 75.808 254.132 74.144C254.836 72.48 255.188 70.592 255.188 68.48C255.188 66.368 254.836 64.48 254.132 62.816C253.492 61.152 252.596 59.744 251.444 58.592C250.292 57.44 248.948 56.576 247.412 56C245.94 55.36 244.404 55.04 242.804 55.04C241.14 55.04 239.572 55.36 238.1 56C236.628 56.576 235.316 57.44 234.164 58.592C233.012 59.744 232.084 61.152 231.38 62.816C230.74 64.48 230.42 66.368 230.42 68.48C230.42 70.592 230.74 72.48 231.38 74.144C232.084 75.808 233.012 77.216 234.164 78.368C235.316 79.52 236.628 80.416 238.1 81.056C239.572 81.632 241.14 81.92 242.804 81.92ZM274.992 44.96H286.8V50.624H287.568C288.72 48.64 290.512 46.944 292.944 45.536C295.376 44.128 298.384 43.424 301.968 43.424C304.976 43.424 307.824 44.064 310.512 45.344C313.264 46.56 315.664 48.288 317.712 50.528C319.824 52.704 321.488 55.328 322.704 58.4C323.92 61.472 324.528 64.832 324.528 68.48C324.528 72.128 323.92 75.488 322.704 78.56C321.488 81.632 319.824 84.288 317.712 86.528C315.664 88.704 313.264 90.432 310.512 91.712C307.824 92.928 304.976 93.536 301.968 93.536C298.384 93.536 295.376 92.832 292.944 91.424C290.512 90.016 288.72 88.32 287.568 86.336H286.8L287.568 93.056V112.736H274.992V44.96ZM299.376 81.92C301.04 81.92 302.608 81.6 304.08 80.96C305.616 80.32 306.96 79.424 308.112 78.272C309.264 77.12 310.192 75.712 310.896 74.048C311.6 72.384 311.952 70.528 311.952 68.48C311.952 66.432 311.6 64.576 310.896 62.912C310.192 61.248 309.264 59.84 308.112 58.688C306.96 57.536 305.616 56.64 304.08 56C302.608 55.36 301.04 55.04 299.376 55.04C297.712 55.04 296.112 55.36 294.576 56C293.104 56.576 291.792 57.44 290.64 58.592C289.488 59.744 288.56 61.152 287.856 62.816C287.152 64.48 286.8 66.368 286.8 68.48C286.8 70.592 287.152 72.48 287.856 74.144C288.56 75.808 289.488 77.216 290.64 78.368C291.792 79.52 293.104 80.416 294.576 81.056C296.112 81.632 297.712 81.92 299.376 81.92ZM345.473 89.696L325.697 44.96H340.001L351.905 73.472H352.577L364.001 44.96H378.017L348.545 112.736H335.009L345.473 89.696Z" fill="white"/>
<path d="M382.96 92.576C380.656 92.576 378.672 91.776 377.008 90.176C375.408 88.512 374.608 86.528 374.608 84.224C374.608 81.92 375.408 79.968 377.008 78.368C378.672 76.768 380.656 75.968 382.96 75.968C385.264 75.968 387.216 76.768 388.816 78.368C390.416 79.968 391.216 81.92 391.216 84.224C391.216 86.528 390.416 88.512 388.816 90.176C387.216 91.776 385.264 92.576 382.96 92.576ZM430.149 87.008H429.381C427.909 88.8 426.117 90.336 424.005 91.616C421.957 92.896 419.301 93.536 416.037 93.536C413.605 93.536 411.301 93.12 409.125 92.288C407.013 91.52 405.157 90.432 403.557 89.024C401.957 87.616 400.709 85.92 399.813 83.936C398.917 81.952 398.469 79.776 398.469 77.408C398.469 74.976 398.949 72.8 399.909 70.88C400.869 68.896 402.213 67.2 403.941 65.792C405.669 64.384 407.685 63.328 409.989 62.624C412.357 61.856 414.917 61.472 417.669 61.472C420.741 61.472 423.269 61.728 425.253 62.24C427.237 62.688 428.869 63.168 430.149 63.68V62.24C430.149 59.744 429.157 57.696 427.173 56.096C425.189 54.432 422.725 53.6 419.781 53.6C415.429 53.6 411.749 55.424 408.741 59.072L399.621 52.832C404.613 46.56 411.429 43.424 420.069 43.424C427.365 43.424 432.933 45.152 436.773 48.608C440.613 52 442.533 57.056 442.533 63.776V92H430.149V87.008ZM430.149 72.896C428.677 72.192 427.141 71.648 425.541 71.264C424.005 70.816 422.309 70.592 420.453 70.592C417.445 70.592 415.109 71.264 413.445 72.608C411.845 73.888 411.045 75.488 411.045 77.408C411.045 79.328 411.813 80.864 413.349 82.016C414.949 83.168 416.773 83.744 418.821 83.744C420.485 83.744 422.021 83.456 423.429 82.88C424.837 82.24 426.021 81.44 426.981 80.48C428.005 79.456 428.773 78.304 429.285 77.024C429.861 75.68 430.149 74.304 430.149 72.896ZM459.54 38.144C458.452 38.144 457.396 37.952 456.372 37.568C455.412 37.12 454.548 36.544 453.78 35.84C453.076 35.072 452.5 34.208 452.052 33.248C451.668 32.288 451.476 31.232 451.476 30.08C451.476 28.928 451.668 27.872 452.052 26.912C452.5 25.952 453.076 25.12 453.78 24.416C454.548 23.648 455.412 23.072 456.372 22.688C457.396 22.24 458.452 22.016 459.54 22.016C461.78 22.016 463.7 22.816 465.3 24.416C466.9 25.952 467.7 27.84 467.7 30.08C467.7 32.32 466.9 34.24 465.3 35.84C463.7 37.376 461.78 38.144 459.54 38.144ZM453.3 92V44.96H465.876V92H453.3Z" fill="#8338EC"/>
</svg>
