<svg xmlns="http://www.w3.org/2000/svg" width="24" height="25" fill="none" viewBox="0 0 24 25"><g clip-path="url(#clip0_304:83)"><path fill="#566677" d="M21.1758 9.17925H16.5574C16.7998 8.76295 16.9395 8.27971 16.9395 7.76418C16.9395 6.2085 15.6738 4.94287 14.1181 4.94287C13.2749 4.94287 12.5174 5.3152 12 5.90357C11.4825 5.3152 10.725 4.94287 9.88177 4.94287C8.32608 4.94287 7.06045 6.2085 7.06045 7.76418C7.06045 8.27967 7.20009 8.7629 7.44253 9.17925H2.82422V13.4097H4.23633V24.7066H19.7637V13.4097H21.1758V9.17925ZM14.1182 6.34917C14.8985 6.34917 15.5333 6.98395 15.5333 7.76423C15.5333 8.54451 14.8985 9.17929 14.1182 9.17929H14.1153H12.7031V7.76423C12.7031 6.98395 13.3379 6.34917 14.1182 6.34917V6.34917ZM12.709 12.0035H11.291V10.5855H11.2969H12.7031H12.709V12.0035ZM8.4668 7.76418C8.4668 6.9839 9.10158 6.34912 9.88186 6.34912C10.6621 6.34912 11.2969 6.98395 11.2969 7.76418V9.17925H9.88477H9.88186C9.10158 9.17925 8.4668 8.54446 8.4668 7.76418ZM4.23047 12.0035V10.5855H9.88181H9.88472V12.0035H4.23628H4.23047ZM5.64258 23.3003V13.4097H9.88477V23.3003H5.64258ZM11.291 23.3003V13.4097H12.709V23.3003H11.291ZM18.3574 23.3003H14.1152V13.4097H18.3574V23.3003ZM19.7695 12.0035H19.7637H14.1152V10.5855H14.1181H19.7695V12.0035Z"/><path fill="#566677" d="M6.6543 2.20068L7.88758 1.52568L9.01821 3.59143L7.78492 4.26643L6.6543 2.20068Z"/><path fill="#566677" d="M14.9805 3.59827L16.1111 1.53252L17.3444 2.20752L16.2138 4.27327L14.9805 3.59827Z"/><path fill="#566677" d="M11.2969 0.705688H12.7031V2.44592H11.2969V0.705688Z"/><path fill="#566677" d="M18.7969 4.95483L20.0272 3.72449L21.0214 4.71871L19.7911 5.94905L18.7969 4.95483Z"/><path fill="#566677" d="M3.05859 4.71729L4.05281 3.72307L5.28316 4.95341L4.28894 5.94763L3.05859 4.71729Z"/></g><defs><clipPath id="clip0_304:83"><rect width="24" height="24" fill="#fff" transform="translate(0 0.705688)"/></clipPath></defs></svg>