<svg xmlns="http://www.w3.org/2000/svg" width="24" height="24" fill="none" viewBox="0 0 24 24"><g clip-path="url(#clip0_304:18)"><path fill="#566677" d="M19.8931 0.968867C18.8054 0.316273 17.6459 -0.000976562 16.3482 -0.000976562C14.7956 -0.000976562 13.2715 0.456195 11.7977 0.89832C10.3579 1.33023 8.99791 1.73818 7.6518 1.73827C7.65161 1.73827 7.65147 1.73827 7.65128 1.73827C6.75133 1.73827 5.93645 1.54777 5.17188 1.15787V0.702148C5.17188 0.313836 4.85706 -0.000976562 4.46875 -0.000976562C4.08044 -0.000976562 3.76562 0.313836 3.76562 0.702148V1.57173V11.1294V23.2959C3.76562 23.6842 4.08044 23.999 4.46875 23.999C4.85706 23.999 5.17188 23.6842 5.17188 23.2959V12.2546C5.94845 12.5546 6.76806 12.7021 7.65184 12.7021C9.20439 12.7021 10.7283 12.245 12.202 11.8029C13.642 11.3709 15.002 10.9629 16.3482 10.9629C17.3837 10.9629 18.3066 11.2146 19.1695 11.7324C19.3867 11.8627 19.6572 11.8661 19.8777 11.7413C20.0981 11.6165 20.2344 11.3828 20.2344 11.1294V1.57177C20.2344 1.32479 20.1048 1.0959 19.8931 0.968867ZM11.798 10.4559C10.3581 10.8879 8.998 11.2959 7.65189 11.2959C6.75161 11.2959 5.93655 11.1057 5.17192 10.7158V2.69743C5.94836 2.99738 6.76783 3.14457 7.65133 3.14452C7.65147 3.14452 7.6518 3.14452 7.65198 3.14452C9.20439 3.14443 10.7282 2.6873 12.2018 2.24523C13.6418 1.81327 15.002 1.40527 16.3482 1.40527C17.2485 1.40527 18.0635 1.59549 18.8281 1.98535V10.0038C18.0516 9.70379 17.2319 9.55665 16.3482 9.55665C14.7957 9.55665 13.2717 10.0138 11.798 10.4559Z"/></g><defs><clipPath id="clip0_304:18"><rect width="24" height="24" fill="#fff" transform="translate(0 -0.000976562)"/></clipPath></defs></svg>