<svg width="24" height="24" viewBox="0 0 24 24" fill="none" xmlns="http://www.w3.org/2000/svg">
<g clip-path="url(#clip0_125:822)">
<path d="M17.4349 10.3894V5.84747C17.4349 5.71747 17.3749 5.59735 17.2899 5.50232L12.1978 0.15509C12.1027 0.0551147 11.9676 0 11.8326 0H3.75916C2.26868 0 1.07812 1.21545 1.07812 2.70612V17.9725C1.07812 19.4632 2.26868 20.6587 3.75916 20.6587H10.132C11.3373 22.6595 13.5284 24 16.0243 24C19.8159 24 22.9122 20.9187 22.9122 17.1222C22.9173 13.8058 20.5362 11.0347 17.4349 10.3894ZM12.3329 1.7558L15.7493 5.35217H13.5333C12.873 5.35217 12.3329 4.80707 12.3329 4.14679V1.7558ZM3.75916 19.6582C2.82385 19.6582 2.07861 18.9078 2.07861 17.9725V2.70612C2.07861 1.76569 2.82385 1.00049 3.75916 1.00049H11.3324V4.14679C11.3324 5.36224 12.3179 6.35266 13.5333 6.35266H16.4344V10.2592C16.2845 10.2543 16.1644 10.2393 16.0344 10.2393C14.2886 10.2393 12.683 10.9096 11.4725 11.9601H5.11981C4.8446 11.9601 4.61957 12.1851 4.61957 12.4601C4.61957 12.7354 4.8446 12.9604 5.11981 12.9604H10.5421C10.1869 13.4606 9.89172 13.9609 9.66174 14.5111H5.11981C4.8446 14.5111 4.61957 14.7361 4.61957 15.0114C4.61957 15.2864 4.8446 15.5116 5.11981 15.5116H9.33655C9.21149 16.0118 9.14648 16.567 9.14648 17.1222C9.14648 18.0225 9.32153 18.913 9.63666 19.6633H3.75916V19.6582ZM16.0294 23.0046C12.7881 23.0046 10.1519 20.3685 10.1519 17.1271C10.1519 13.8858 12.783 11.2496 16.0294 11.2496C19.2757 11.2496 21.9067 13.8858 21.9067 17.1271C21.9067 20.3685 19.2708 23.0046 16.0294 23.0046Z" fill="#5F6E84"/>
<path d="M5.11938 10.4544H10.1865C10.4617 10.4544 10.6867 10.2292 10.6867 9.95416C10.6867 9.67896 10.4617 9.45392 10.1865 9.45392H5.11938C4.84418 9.45392 4.61914 9.67896 4.61914 9.95416C4.61914 10.2292 4.84418 10.4544 5.11938 10.4544Z" fill="#5F6E84"/>
<path d="M18.0655 16.6569H16.5349V15.1013C16.5349 14.8262 16.3097 14.601 16.0347 14.601C15.7595 14.601 15.5344 14.8262 15.5344 15.1013V16.6569H13.9788C13.7036 16.6569 13.4785 16.8821 13.4785 17.1572C13.4785 17.4324 13.7036 17.6574 13.9788 17.6574H15.5344V19.188C15.5344 19.4632 15.7595 19.6882 16.0347 19.6882C16.3097 19.6882 16.5349 19.4632 16.5349 19.188V17.6574H18.0655C18.3407 17.6574 18.5657 17.4324 18.5657 17.1572C18.5657 16.8821 18.3407 16.6569 18.0655 16.6569Z" fill="#5F6E84"/>
</g>
<defs>
<clipPath id="clip0_125:822">
<rect width="24" height="24" fill="white"/>
</clipPath>
</defs>
</svg>
