<svg width="24" height="24" viewBox="0 0 24 24" fill="none" xmlns="http://www.w3.org/2000/svg">
<path d="M10.9218 0.0516288C7.18589 0.459441 4.04527 2.3485 2.01558 5.39538C-0.117232 8.611 -0.576607 12.5719 0.773393 16.1954C1.37339 17.8126 2.52183 19.5329 3.78746 20.7141C5.79371 22.5891 8.20777 23.6766 10.9875 23.9485C13.4765 24.1969 16.3406 23.4751 18.4921 22.0688C19.9218 21.136 21.014 20.0532 21.9796 18.6048C24.6234 14.6485 24.6609 9.53913 22.0781 5.53131C20.175 2.57819 17.2312 0.679754 13.7343 0.140691C13.0078 0.0281913 11.55 -0.0186837 10.9218 0.0516288ZM10.1203 1.97819C10.0875 2.03913 9.93277 2.29694 9.77339 2.55475C9.15464 3.55319 8.54996 4.76256 8.10933 5.88288C7.99683 6.16413 7.89371 6.41256 7.87496 6.436C7.81871 6.50163 6.38902 6.136 5.55464 5.84538C5.25933 5.74225 4.34527 5.36725 4.24683 5.311C4.22808 5.29694 4.38746 5.10475 4.59839 4.88913C5.69058 3.78756 6.88121 2.986 8.24996 2.44694C8.76558 2.24538 9.68902 1.96413 10.0312 1.90788C10.0968 1.8985 10.1531 1.88444 10.1625 1.87975C10.1671 1.87975 10.1484 1.92194 10.1203 1.97819ZM14.6015 2.05788C15.9609 2.41882 17.2968 3.09382 18.4218 3.98913C18.8906 4.36413 19.8093 5.2735 19.7531 5.311C19.5093 5.45631 18.1781 5.95319 17.55 6.136C17.2921 6.211 16.2046 6.46881 16.1484 6.46881C16.139 6.46881 16.0218 6.18756 15.8859 5.84538C15.4265 4.69225 14.7703 3.38913 14.1562 2.41882C14.0015 2.17507 13.875 1.95944 13.875 1.94538C13.875 1.89382 14.1093 1.92663 14.6015 2.05788ZM12.3843 2.85007C12.9 3.63757 13.3312 4.39225 13.65 5.06256C13.964 5.71881 14.4 6.71256 14.3812 6.72663C14.3296 6.76413 12.7453 6.84381 12 6.84381C10.9125 6.84381 9.6562 6.75944 9.6562 6.68444C9.6562 6.50631 10.5 4.72507 10.9687 3.91413C11.2687 3.39382 11.9671 2.29694 12 2.29694C12.014 2.29694 12.1875 2.54538 12.3843 2.85007ZM3.68433 6.91881C4.66871 7.37819 5.71871 7.73913 6.81089 7.99225C7.32652 8.10944 7.36871 8.12819 7.34527 8.22194C7.13902 9.12663 7.01246 9.91881 6.91402 10.8844L6.88589 11.1563H4.33121H1.78121V11.0016C1.78121 10.7719 1.91246 10.0126 2.03902 9.511C2.17964 8.95319 2.35308 8.44694 2.58277 7.90788C2.74683 7.5235 3.17339 6.70319 3.20621 6.70319C3.21558 6.70319 3.43121 6.80163 3.68433 6.91881ZM21.1968 7.4485C21.7171 8.47975 22.0781 9.66569 22.2093 10.7719C22.2328 10.9594 22.2375 11.1188 22.2281 11.1329C22.214 11.1469 21.0609 11.1563 19.6593 11.1563H17.1187L17.0859 10.8141C17.0156 10.0079 16.8328 8.90163 16.664 8.24538C16.6312 8.11881 16.6359 8.11881 17.0953 8.01569C18.1406 7.78131 19.4015 7.35475 20.264 6.94225C20.5265 6.81569 20.7656 6.71725 20.789 6.72194C20.8171 6.72663 21 7.05475 21.1968 7.4485ZM10.0546 8.49381C10.9406 8.5735 13.2656 8.55944 14.175 8.46569C14.5875 8.4235 14.925 8.39538 14.9343 8.40475C14.939 8.40944 15 8.65319 15.0656 8.94381C15.2109 9.55319 15.375 10.6079 15.375 10.9313V11.1563H11.9953H8.61089L8.64371 10.7813C8.69527 10.1579 8.93902 8.836 9.07027 8.44694C9.08433 8.40944 9.14996 8.39538 9.26714 8.41413C9.36558 8.4235 9.72183 8.461 10.0546 8.49381ZM6.91402 13.111C7.01246 14.0813 7.13902 14.8735 7.34527 15.7782C7.36871 15.8719 7.32652 15.8907 6.81089 16.0079C5.71871 16.261 4.66871 16.6219 3.67964 17.0813C3.12652 17.3391 3.22027 17.4001 2.78902 16.5235C2.25464 15.4219 1.89371 14.2173 1.79996 13.1813L1.76714 12.8438H4.32652H6.88589L6.91402 13.111ZM15.3609 13.2516C15.3281 13.6969 15.1968 14.4798 15.0375 15.1782L14.9343 15.6141L14.7703 15.5907C13.7671 15.4407 11.0578 15.4079 9.82027 15.5298C9.43589 15.5673 9.10308 15.586 9.08902 15.5673C8.99527 15.4735 8.70464 13.9407 8.64371 13.2282L8.61089 12.8438H12H15.389L15.3609 13.2516ZM22.2281 12.8673C22.3125 12.9516 22.0265 14.3907 21.7687 15.1876C21.5859 15.7454 21.0234 16.9876 20.85 17.2173C20.789 17.2969 20.7562 17.2876 20.2734 17.0579C19.3453 16.6266 18.1031 16.2048 17.0953 15.9844C16.664 15.886 16.6359 15.8719 16.6593 15.7782C16.8 15.2813 17.0156 13.9876 17.0859 13.1813L17.1187 12.8438H19.6593C21.0609 12.8438 22.214 12.8532 22.2281 12.8673ZM13.664 17.2079C14.0531 17.2407 14.3718 17.2688 14.3765 17.2735C14.4328 17.311 13.439 19.3969 12.9843 20.1798C12.7125 20.6579 12.0375 21.7032 12 21.7032C11.9625 21.7032 11.2921 20.6579 10.9828 20.1094C10.4718 19.2188 9.6562 17.4985 9.6562 17.3157C9.6562 17.1798 12.3656 17.1094 13.664 17.2079ZM8.19839 18.3282C8.72808 19.6126 9.11245 20.3766 9.79683 21.4923C9.97027 21.7735 10.125 22.0313 10.139 22.0594C10.2093 22.186 9.07027 21.8813 8.25464 21.5532C6.89058 21.0141 5.70933 20.2313 4.66871 19.1766C4.21402 18.7219 4.20464 18.7079 4.31714 18.661C4.37808 18.6376 4.55621 18.5626 4.71089 18.4923C5.11402 18.3094 5.90621 18.0282 6.42183 17.8782C6.91871 17.7376 7.78121 17.536 7.84214 17.5501C7.86558 17.5548 8.02496 17.9063 8.19839 18.3282ZM16.6875 17.6485C17.3156 17.7891 17.7234 17.9063 18.3421 18.1219C18.7406 18.2579 19.6359 18.6235 19.7531 18.6891C19.8046 18.7219 19.064 19.4719 18.5484 19.9032C17.4796 20.8032 16.1625 21.4969 14.7703 21.8907C14.4984 21.9657 14.1703 22.0501 14.0484 22.0735C13.8281 22.111 13.8234 22.111 13.889 22.0126C14.55 21.0094 15.4406 19.2844 15.8906 18.1501C16.0265 17.8126 16.139 17.5313 16.1484 17.5313C16.1531 17.5313 16.3968 17.5829 16.6875 17.6485Z" fill="#5F6E84"/>
</svg>
