<svg xmlns="http://www.w3.org/2000/svg" width="24" height="24" fill="none" viewBox="0 0 24 24"><g clip-path="url(#clip0_304:93)"><path fill="#5F6E84" d="M19.4571 11.7269C21.9168 9.51563 22.1183 5.72907 19.907 3.26935C17.8789 1.01338 14.4843 0.630129 12.0043 2.37719C9.30076 0.469214 5.56246 1.11413 3.65449 3.81758C1.90377 6.29824 2.28547 9.69638 4.54289 11.7268C1.73798 13.2054 -0.0126377 16.1204 6.87043e-05 19.2911V21.8625C6.87043e-05 22.3359 0.383823 22.7196 0.857224 22.7196H23.1428C23.6162 22.7196 24 22.3359 24 21.8625V19.2911C24.0126 16.1204 22.262 13.2054 19.4571 11.7269ZM15.4285 3.00547C17.7921 3.00286 19.7103 4.91681 19.713 7.2804C19.7148 8.96609 18.7271 10.4958 17.1899 11.1877C17.1239 11.2177 17.0579 11.2451 16.9911 11.2734C16.7796 11.3588 16.5614 11.4267 16.3388 11.4766C16.296 11.486 16.2531 11.4911 16.2094 11.4997C15.9607 11.5474 15.7083 11.5729 15.4551 11.576C15.3411 11.576 15.2262 11.5674 15.1122 11.5572C15.0694 11.5572 15.0265 11.5572 14.9836 11.5486C14.4965 11.4912 14.0226 11.3516 13.5822 11.1355C13.5659 11.1277 13.5471 11.1286 13.5308 11.1218C13.4451 11.0806 13.3594 11.0446 13.2831 10.9983C13.29 10.9897 13.2942 10.9803 13.3011 10.9717C13.6941 10.4667 14.004 9.90219 14.219 9.29947L14.2456 9.22745C14.3434 8.93957 14.4193 8.64476 14.4728 8.34543C14.4805 8.30174 14.4865 8.2597 14.4934 8.21259C14.5429 7.90789 14.569 7.59987 14.5714 7.29115C14.5689 6.98303 14.5428 6.67557 14.4934 6.37142C14.4865 6.32687 14.4805 6.28569 14.4728 6.23858C14.4193 5.9393 14.3434 5.64444 14.2456 5.35656L14.219 5.28454C14.004 4.68182 13.6941 4.11731 13.3011 3.61227C13.2942 3.60368 13.2899 3.59429 13.2831 3.5857C13.9343 3.20581 14.6746 3.00552 15.4285 3.00547ZM4.28575 7.2912C4.27967 4.93042 6.18849 3.0117 8.54928 3.00563C9.65589 3.00276 10.7205 3.42921 11.5192 4.19521C11.5689 4.24322 11.6177 4.29118 11.6657 4.3409C11.8129 4.49514 11.9487 4.65987 12.072 4.83374C12.1097 4.88688 12.144 4.94348 12.1791 4.99832C12.2989 5.18269 12.4041 5.37615 12.4937 5.57689C12.5151 5.62576 12.5314 5.67548 12.5502 5.7243C12.6406 5.94633 12.7117 6.17575 12.7628 6.40999C12.7689 6.4357 12.7706 6.46142 12.7757 6.48799C12.8843 7.0202 12.8843 7.56888 12.7757 8.1011C12.7706 8.12767 12.7688 8.15338 12.7628 8.17909C12.7118 8.41333 12.6406 8.64275 12.5502 8.86479C12.5314 8.91365 12.5151 8.96338 12.4937 9.01219C12.404 9.21263 12.2988 9.40579 12.1791 9.58991C12.144 9.64475 12.1097 9.70135 12.072 9.75449C11.9487 9.92841 11.8129 10.0931 11.6657 10.2473C11.6177 10.297 11.5688 10.3451 11.5192 10.393C11.1721 10.7237 10.772 10.9938 10.3355 11.1919C10.266 11.2236 10.1957 11.2527 10.1246 11.2776C9.918 11.3596 9.70541 11.4255 9.48865 11.4747C9.43466 11.4867 9.37891 11.4936 9.32406 11.503C9.09133 11.5463 8.85533 11.5701 8.61863 11.5742H8.52436C8.28766 11.5701 8.05167 11.5463 7.81893 11.503C7.76409 11.4936 7.70834 11.4867 7.65435 11.4747C7.43759 11.4255 7.22494 11.3596 7.01838 11.2776C6.94721 11.2493 6.87695 11.2202 6.80754 11.1919C5.27403 10.4995 4.2877 8.97372 4.28575 7.2912ZM15.4285 21.0054H1.71433V19.2911C1.70177 16.3866 3.5318 13.7933 6.27257 12.8317C7.7439 13.4443 9.3989 13.4443 10.8703 12.8317C11.1564 12.9363 11.4353 13.0597 11.7051 13.2012C11.8834 13.2929 12.048 13.3975 12.2194 13.5029C12.3309 13.5723 12.444 13.64 12.5511 13.7163C12.7166 13.8337 12.8726 13.9615 13.026 14.0926C13.1246 14.1783 13.2223 14.264 13.3148 14.3497C13.4563 14.4834 13.5891 14.6249 13.7168 14.7698C13.8085 14.8743 13.8977 14.9806 13.9825 15.0903C14.0948 15.2343 14.202 15.3818 14.3014 15.5334C14.3871 15.662 14.4634 15.7957 14.5388 15.9295C14.6245 16.0769 14.7034 16.2243 14.7754 16.3777C14.8474 16.5312 14.9108 16.6992 14.9725 16.8629C15.0265 17.0052 15.0839 17.1466 15.1285 17.2914C15.1885 17.4903 15.2305 17.696 15.2725 17.9017C15.2982 18.0234 15.3316 18.1426 15.3505 18.266C15.4012 18.6053 15.4273 18.948 15.4285 19.2911V21.0054H15.4285ZM22.2857 21.0054H17.1428V19.2911C17.1428 19.0228 17.1274 18.7571 17.1034 18.494C17.0965 18.4168 17.0846 18.3406 17.076 18.2634C17.0528 18.074 17.0263 17.8863 16.9902 17.7003C16.9748 17.6209 16.9586 17.5411 16.9414 17.4611C16.9003 17.2703 16.8525 17.0811 16.7982 16.8937C16.7803 16.832 16.7639 16.7694 16.7451 16.7086C16.5051 15.9413 16.1573 15.2121 15.7123 14.5426L15.6788 14.4937C15.5314 14.2749 15.374 14.0632 15.2065 13.8586L15.2006 13.8509C15.0291 13.6383 14.8431 13.4317 14.6477 13.2363C14.6588 13.2363 14.6709 13.2363 14.6829 13.2363C14.9247 13.2681 15.1683 13.2853 15.4123 13.2877H15.4595C15.6853 13.2858 15.9107 13.2712 16.1349 13.244C16.2052 13.2354 16.2746 13.2226 16.3449 13.2114C16.5272 13.1835 16.7072 13.1471 16.8849 13.1026C16.9355 13.0897 16.9869 13.0777 17.0383 13.0632C17.2715 12.9997 17.5005 12.9218 17.724 12.83C20.4668 13.7907 22.2985 16.3851 22.2857 19.2912V21.0054H22.2857Z"/></g><defs><clipPath id="clip0_304:93"><rect width="24" height="24" fill="#fff"/></clipPath></defs></svg>