<svg xmlns="http://www.w3.org/2000/svg" width="24" height="24" fill="none" viewBox="0 0 24 24"><path fill="#5F6E84" d="M18.8907 0.0418815C18.675 0.112194 18.4922 0.224694 18.3469 0.384069C18.0985 0.641881 18.0282 0.829381 18.0282 1.19501C18.0282 1.63094 18.1313 1.82313 18.675 2.39032C19.2328 2.97157 19.4157 3.19657 19.8469 3.82938C20.7094 5.11375 21.2719 6.60906 21.5203 8.29656C21.6094 8.89187 21.5953 10.3637 21.4969 11.0387C21.1735 13.27 20.2219 15.2012 18.6188 16.8794C18.1407 17.3809 18.0516 17.5356 18.0141 17.8825C17.9391 18.5856 18.4969 19.1809 19.2282 19.1762C19.65 19.1762 19.8375 19.0591 20.4469 18.4262C22.3266 16.4762 23.4704 14.0997 23.8922 11.2731C24.0188 10.42 24.0047 8.64344 23.8641 7.73875C23.5594 5.75594 22.8282 3.90438 21.7125 2.30125C21.0891 1.40126 20.1563 0.374694 19.7813 0.168444C19.5235 0.027819 19.111 -0.0331184 18.8907 0.0418815Z"/><path fill="#5F6E84" d="M15.225 4.18595C14.7188 4.3547 14.3906 4.80001 14.3906 5.31564C14.3953 5.68595 14.5031 5.9297 14.8406 6.29532C15.7031 7.24689 16.1297 8.32501 16.1297 9.56251C16.1344 10.1859 16.0781 10.5563 15.9047 11.0859C15.6844 11.7703 15.3609 12.3188 14.85 12.8813C14.5031 13.2609 14.3953 13.4906 14.3906 13.8234C14.3906 14.175 14.4703 14.4094 14.6813 14.6484C14.9297 14.9297 15.1875 15.0469 15.5672 15.0469C16.0172 15.0469 16.275 14.9016 16.7156 14.4C18.75 12.0797 19.1203 8.8172 17.6578 6.12657C17.2406 5.36251 16.4813 4.44845 16.1063 4.25626C15.8813 4.13908 15.4594 4.10626 15.225 4.18595Z"/><path fill="#5F6E84" d="M7.86091 4.83287C6.11716 5.01569 4.53279 6.25319 3.90935 7.91725C3.58591 8.77506 3.52497 9.8813 3.74997 10.7813C4.0031 11.7938 4.64997 12.7735 5.49372 13.4063C8.20779 15.45 12.0703 14.161 13.0078 10.8985C13.2281 10.1391 13.2375 9.11256 13.0359 8.35787C12.7922 7.46256 12.15 6.46881 11.4609 5.911C10.6593 5.26412 9.86247 4.936 8.85466 4.82819C8.36716 4.77663 8.37654 4.77663 7.86091 4.83287ZM9.1031 7.31256C9.87185 7.54693 10.5093 8.21256 10.7109 8.97662C11.1422 10.636 9.74529 12.211 8.06247 11.9626C7.51872 11.8829 7.12966 11.686 6.72185 11.2782C5.94841 10.5047 5.78904 9.46412 6.28591 8.47037C6.55779 7.936 7.22341 7.40631 7.80935 7.27037C8.14685 7.19068 8.77966 7.20943 9.1031 7.31256Z"/><path fill="#5F6E84" d="M3.82031 15.703C3.30469 15.8109 3.09375 15.8905 2.57344 16.153C1.41563 16.7484 0.510938 17.8874 0.154688 19.1952L0.028125 19.664L0.0234375 21.3983C0.0234375 23.0905 0.028125 23.1374 0.126563 23.3202C0.35625 23.7515 0.721875 23.9718 1.19531 23.9765C1.46719 23.9765 1.56094 23.953 1.76719 23.8405C2.02031 23.6999 2.24531 23.4327 2.33438 23.1608C2.37188 23.053 2.39063 22.5374 2.39063 21.614C2.39063 20.0999 2.42344 19.814 2.65313 19.3265C2.925 18.7452 3.64688 18.1874 4.30313 18.0515C4.47188 18.014 5.77031 17.9999 8.40469 17.9999C12.6469 17.9999 12.5859 17.9952 13.1391 18.2905C13.65 18.5624 14.1188 19.139 14.3016 19.7108C14.3391 19.8374 14.3672 20.414 14.3859 21.5155C14.4141 23.0577 14.4188 23.1421 14.5172 23.3202C14.6344 23.5405 14.8688 23.7702 15.0844 23.878C15.6234 24.1499 16.3641 23.9015 16.65 23.3483L16.7813 23.0999V21.4733C16.7813 20.0765 16.7672 19.7952 16.6922 19.4296C16.3219 17.639 15.0047 16.2515 13.1766 15.7359C12.825 15.6374 12.7594 15.6327 8.53125 15.6234C4.46719 15.614 4.21875 15.6187 3.82031 15.703Z"/></svg>