<svg width="24" height="24" viewBox="0 0 24 24" fill="none" xmlns="http://www.w3.org/2000/svg">
<g clip-path="url(#clip0_304:41)">
<path d="M22.9088 12.0996V8.72646C22.9088 7.58266 22.0216 6.65246 20.9006 6.56225L17.7681 1.09075C17.4778 0.584717 17.009 0.223035 16.4481 0.0728499C15.8899 -0.0763124 15.3061 0.00202721 14.8064 0.292835L4.06783 6.54466H2.1818C0.978529 6.54466 0 7.52314 0 8.72646V21.8172C0 23.0204 0.978478 23.999 2.1818 23.999H20.727C21.9302 23.999 22.9088 23.0205 22.9088 21.8172V18.444C23.5423 18.2181 23.9996 17.6183 23.9996 16.9081V13.6355C23.9996 12.9253 23.5423 12.3255 22.9088 12.0996ZM19.633 6.54466H14.8789L18.4445 4.46877L19.633 6.54466ZM17.9025 3.52209L12.7108 6.54466H10.5573L17.3641 2.58166L17.9025 3.52209ZM15.3556 1.23562C15.6022 1.09127 15.8904 1.05291 16.1658 1.12645C16.4444 1.201 16.6766 1.38105 16.821 1.63299L16.8221 1.63499L8.38935 6.54466H6.23598L15.3556 1.23562ZM21.8178 21.8172C21.8178 22.4185 21.3283 22.908 20.727 22.908H2.1818C1.58045 22.908 1.09093 22.4185 1.09093 21.8172V8.72646C1.09093 8.12511 1.58045 7.63559 2.1818 7.63559H20.727C21.3283 7.63559 21.8178 8.12511 21.8178 8.72646V11.9991H18.5452C16.7405 11.9991 15.2725 13.4671 15.2725 15.2718C15.2725 17.0765 16.7405 18.5445 18.5452 18.5445H21.8178V21.8172V21.8172ZM22.9088 16.9081C22.9088 17.2091 22.6643 17.4536 22.3633 17.4536H18.5452C17.3419 17.4536 16.3634 16.4751 16.3634 15.2718C16.3634 14.0685 17.3418 13.09 18.5452 13.09H22.3633C22.6642 13.09 22.9088 13.3345 22.9088 13.6355V16.9081V16.9081Z" fill="#566677"/>
<path d="M18.546 14.1809C17.9446 14.1809 17.4551 14.6704 17.4551 15.2718C17.4551 15.8731 17.9446 16.3627 18.546 16.3627C19.1473 16.3627 19.6368 15.8731 19.6368 15.2718C19.6369 14.6704 19.1474 14.1809 18.546 14.1809Z" fill="#566677"/>
</g>
<defs>
<clipPath id="clip0_304:41">
<rect width="24" height="24" fill="white" transform="translate(0 -0.0010376)"/>
</clipPath>
</defs>
</svg>
