<svg width="24" height="25" viewBox="0 0 24 25" fill="none" xmlns="http://www.w3.org/2000/svg">
<g clip-path="url(#clip0_304:76)">
<path d="M22.5347 3.31202C22.5347 1.87269 21.3677 0.705688 19.9283 0.705688H4.07313C2.63379 0.705688 1.4668 1.87269 1.4668 3.31202V22.0994C1.4668 23.5387 2.63379 24.7057 4.07313 24.7057H19.9283C21.3677 24.7057 22.5347 23.5387 22.5347 22.0994V3.31202ZM2.33558 22.1025V3.30884C2.33706 2.35034 3.11485 1.57404 4.07356 1.57447H4.72472V23.8369H4.07356C3.11485 23.8373 2.33706 23.061 2.33558 22.1025V22.1025ZM21.6659 22.1025C21.6644 23.061 20.8866 23.8373 19.9279 23.8369H5.59349V1.57447H19.9279C20.8866 1.57404 21.6644 2.35034 21.6659 3.30884V22.1025Z" fill="#566677"/>
<path d="M19.3305 4.28937C19.3305 4.04948 19.136 3.85498 18.8961 3.85498H7.81915C7.57927 3.85498 7.38477 4.04948 7.38477 4.28937V17.8097C7.38477 18.0496 7.57927 18.2441 7.81915 18.2441H18.8961C19.136 18.2441 19.3305 18.0496 19.3305 17.8097V4.28937ZM8.25354 4.72376H18.4617V17.321H8.25354V4.72376Z" fill="#566677"/>
<path d="M18.8948 20.6333H7.81915C7.57905 20.6333 7.38477 20.8278 7.38477 21.0677C7.38477 21.3076 7.57905 21.5021 7.81915 21.5021H18.8948C19.1349 21.5021 19.3292 21.3076 19.3292 21.0677C19.3292 20.8278 19.1349 20.6333 18.8948 20.6333Z" fill="#566677"/>
<path d="M15.9048 10.589L11.3438 8.03702C11.2093 7.96172 11.0449 7.96342 10.9119 8.04126C10.7789 8.11931 10.6973 8.26185 10.6973 8.41605V13.5201C10.6973 13.6743 10.7789 13.8168 10.9119 13.8949C11.0449 13.9727 11.2093 13.9744 11.3438 13.8991L15.9048 11.3471C16.0421 11.2703 16.1271 11.1252 16.1271 10.9681C16.1271 10.8109 16.0421 10.6658 15.9048 10.589ZM11.566 12.7792V9.15692L14.8032 10.9681L11.566 12.7792Z" fill="#566677"/>
</g>
<defs>
<clipPath id="clip0_304:76">
<rect width="24" height="24" fill="white" transform="translate(0 0.705688)"/>
</clipPath>
</defs>
</svg>
