<svg width="24" height="24" viewBox="0 0 24 24" fill="none" xmlns="http://www.w3.org/2000/svg">
<g clip-path="url(#clip0)">
<path d="M23.3467 20.5975L20.0202 17.271V0H3.4737V3.92641L0.0698242 4.87429L3.4737 17.0981V20.9369H4.54265L5.38901 23.9763L16.304 20.9369H18.0471L20.5273 23.417C20.9159 23.8057 21.4265 24 21.937 24C22.4476 24 22.9581 23.8056 23.3468 23.417C24.1241 22.6396 24.1241 21.3748 23.3467 20.5975V20.5975ZM1.80308 5.85247L3.47365 5.38725V11.8519L1.80308 5.85247ZM6.36719 22.243L6.00349 20.9368H11.0577L6.36719 22.243ZM4.88102 19.5295V1.40732H18.613V15.8636L16.3064 13.5571H16.6427V12.1498H14.8991L13.398 10.6487H16.6427V9.24138H10.7232L8.25403 8.32423L8.59469 9.24138H7.07296V10.6487H9.11742L9.67499 12.1498H7.07296V13.5571H10.6674L12.1686 15.0583H7.07291V16.4656H13.5758L16.6398 19.5295H4.88102ZM11.1324 12.0319L10.6424 10.7126L11.9617 11.2026L20.9419 20.1828L20.5272 20.5975L20.1126 21.0121L11.1324 12.0319ZM22.3516 22.4219C22.1229 22.6505 21.751 22.6505 21.5223 22.4219L21.1077 22.0072L21.5223 21.5926L21.937 21.178L22.3516 21.5926C22.5803 21.8212 22.5803 22.1932 22.3516 22.4219Z" fill="#8338EC"/>
<path d="M7.16699 3.42383H12.4679V4.83115H7.16699V3.42383Z" fill="#8338EC"/>
<path d="M7.16699 6.33203H16.6429V7.73935H7.16699V6.33203Z" fill="#8338EC"/>
</g>
<defs>
<clipPath id="clip0">
<rect width="24" height="24" fill="white"/>
</clipPath>
</defs>
</svg>
