<svg width="24" height="24" viewBox="0 0 24 24" fill="none" xmlns="http://www.w3.org/2000/svg">
<g clip-path="url(#clip0)">
<path d="M21.5 4H2.49998C1.122 4 0 5.122 0 6.50003V17.5C0 18.878 1.122 20 2.49998 20H21.5C22.878 20 24 18.878 24 17.5V6.50003C24 5.122 22.878 4 21.5 4ZM23 17.5C23 18.327 22.327 19 21.5 19H2.49998C1.67297 19 0.999984 18.327 0.999984 17.5V6.50003C0.999984 5.67302 1.67297 5.00003 2.49998 5.00003H21.5C22.327 5.00003 23 5.67302 23 6.50003V17.5H23Z" fill="#8338EC"/>
<path d="M23.5 7H0.500016C0.224016 7 0 7.22402 0 7.50002V10.5C0 10.776 0.224016 11 0.500016 11H23.5C23.776 11 24 10.776 24 10.5V7.50002C24 7.22402 23.776 7 23.5 7ZM23 10H0.999984V7.99998H23V10H23Z" fill="#8338EC"/>
<path d="M7.5 14H3.50002C3.22402 14 3 14.224 3 14.5C3 14.776 3.22402 15 3.50002 15H7.5C7.776 15 8.00002 14.776 8.00002 14.5C8.00002 14.224 7.776 14 7.5 14Z" fill="#8338EC"/>
<path d="M10.5 16H3.50002C3.22402 16 3 16.224 3 16.5C3 16.776 3.22402 17 3.50002 17H10.5C10.776 17 11 16.776 11 16.5C11 16.224 10.776 16 10.5 16Z" fill="#8338EC"/>
<rect x="0.75" y="4.75" width="22.5" height="14.5" rx="1.25" stroke="#8338EC" stroke-width="1.5"/>
</g>
<defs>
<clipPath id="clip0">
<rect width="24" height="24" fill="white"/>
</clipPath>
</defs>
</svg>
