<svg width="24" height="24" viewBox="0 0 24 24" fill="none" xmlns="http://www.w3.org/2000/svg">
<path d="M21.4282 0H10.2853C8.86518 0 7.71392 1.15127 7.71392 2.57143V7.71428C7.71392 8.18768 8.09767 8.57144 8.57108 8.57144C9.04448 8.57144 9.42824 8.18768 9.42824 7.71428V2.57143C9.42824 2.09802 9.81199 1.71427 10.2854 1.71427H21.4283C21.9017 1.71427 22.2854 2.09802 22.2854 2.57143V21.4286C22.2854 21.902 21.9017 22.2857 21.4283 22.2857H10.2853C9.81194 22.2857 9.42819 21.902 9.42819 21.4286V16.2857C9.42819 15.8123 9.04443 15.4286 8.57103 15.4286C8.09762 15.4286 7.71387 15.8123 7.71387 16.2857V21.4286C7.71387 22.8487 8.86513 24 10.2853 24H21.4282C22.8483 24 23.9996 22.8487 23.9996 21.4286V2.57143C23.9996 1.15127 22.8484 0 21.4282 0Z" fill="#8338EC"/>
<path d="M17.1423 11.1423H2.92576L5.74836 8.31975C6.07722 7.97924 6.06778 7.43663 5.72726 7.10777C5.39509 6.78699 4.8685 6.78699 4.53637 7.10777L0.250625 11.3935C0.171021 11.4731 0.108091 11.5678 0.0655022 11.672C-0.021183 11.8817 -0.021183 12.1172 0.0655022 12.3269C0.108292 12.4315 0.171523 12.5265 0.251479 12.6063L4.53717 16.892C4.86603 17.2325 5.40865 17.242 5.74916 16.9131C6.08967 16.5843 6.09911 16.0417 5.77025 15.7011C5.76337 15.694 5.75634 15.687 5.74916 15.68L2.92576 12.8566H17.1423C17.6157 12.8566 17.9995 12.4729 17.9995 11.9994C17.9995 11.526 17.6157 11.1423 17.1423 11.1423Z" fill="#8338EC"/>
</svg>
