<svg xmlns="http://www.w3.org/2000/svg" width="24" height="24" fill="none" viewBox="0 0 24 24"><g clip-path="url(#clip0)"><path fill="#8338EC" d="M23.25 6H0.75C0.336 6 0 5.664 0 5.25C0 4.836 0.336 4.5 0.75 4.5H23.25C23.664 4.5 24 4.836 24 5.25C24 5.664 23.664 6 23.25 6Z"/><path fill="#8338EC" d="M20.5601 14C18.6631 14 17.1201 12.457 17.1201 10.56V5.25C17.1201 4.836 17.4561 4.5 17.8701 4.5H23.2511C23.6641 4.5 24.0001 4.836 24.0001 5.25V10.56C24.0001 12.457 22.4571 14 20.5601 14V14ZM18.6191 6V10.56C18.6191 11.63 19.4891 12.5 20.5591 12.5C21.6291 12.5 22.4991 11.629 22.4991 10.56V6H18.6191Z"/><path fill="#8338EC" d="M14.935 14C12.904 14 11.25 12.347 11.25 10.315V5.25C11.25 4.836 11.586 4.5 12 4.5H17.869C18.283 4.5 18.619 4.836 18.619 5.25V10.315C18.619 12.347 16.966 14 14.935 14V14ZM12.75 6V10.315C12.75 11.52 13.73 12.5 14.935 12.5C16.14 12.5 17.12 11.52 17.12 10.315V6H12.75Z"/><path fill="#8338EC" d="M9.06488 14C7.03388 14 5.37988 12.347 5.37988 10.315V5.25C5.37988 4.836 5.71588 4.5 6.12988 4.5H11.9999C12.4139 4.5 12.7499 4.836 12.7499 5.25V10.315C12.7499 12.347 11.0969 14 9.06488 14ZM6.88088 6V10.315C6.88088 11.52 7.86088 12.5 9.06588 12.5C10.2709 12.5 11.2509 11.52 11.2509 10.315V6H6.88088Z"/><path fill="#8338EC" d="M3.44 14C1.543 14 0 12.457 0 10.56V5.25C0 4.836 0.336 4.5 0.75 4.5H6.131C6.545 4.5 6.881 4.836 6.881 5.25V10.56C6.881 12.457 5.338 14 3.44 14V14ZM1.5 6V10.56C1.5 11.63 2.37 12.5 3.44 12.5C4.51 12.5 5.38 11.629 5.38 10.56V6H1.5Z"/><path fill="#8338EC" d="M21.25 23H2.75C1.233 23 0 21.767 0 20.25V15.75C0 15.336 0.336 15 0.75 15C1.164 15 1.5 15.336 1.5 15.75V20.25C1.5 20.939 2.061 21.5 2.75 21.5H21.25C21.939 21.5 22.5 20.939 22.5 20.25V15.75C22.5 15.336 22.836 15 23.25 15C23.664 15 24 15.335 24 15.75V20.25C24 21.767 22.767 23 21.25 23Z"/><path fill="#8338EC" d="M0.75 7.25C0.336 7.25 0 6.915 0 6.5V3.75C0 2.233 1.233 1 2.75 1H21.25C22.767 1 24 2.233 24 3.75V5.417C24 5.831 23.664 6.167 23.25 6.167C22.836 6.167 22.5 5.831 22.5 5.417V3.75C22.5 3.061 21.939 2.5 21.25 2.5H2.75C2.061 2.5 1.5 3.061 1.5 3.75V6.5C1.5 6.915 1.164 7.25 0.75 7.25Z"/></g><defs><clipPath id="clip0"><rect width="24" height="24" fill="#fff"/></clipPath></defs></svg>