<svg width="24" height="24" viewBox="0 0 24 24" fill="none" xmlns="http://www.w3.org/2000/svg">
<g clip-path="url(#clip0)">
<path d="M5.3722 23.5154C5.10925 23.5154 4.84814 23.4333 4.62529 23.2722C4.21018 22.9713 4.01627 22.4542 4.12925 21.9553L5.67323 15.154L0.437013 10.562C0.0521155 10.226 -0.094922 9.69384 0.0631021 9.20695C0.221126 8.72097 0.651069 8.37691 1.16012 8.32985L8.08827 7.70087L10.8274 1.29073C11.0294 0.819771 11.4894 0.515625 12.0004 0.515625C12.5115 0.515625 12.9715 0.819771 13.1734 1.28963L15.9126 7.70087L22.8396 8.32985C23.3498 8.37581 23.7797 8.72097 23.9377 9.20695C24.0958 9.69292 23.9496 10.226 23.5647 10.562L18.3285 15.1531L19.8725 21.9542C19.9857 22.4542 19.7916 22.9713 19.3766 23.2713C18.9626 23.5712 18.4106 23.5943 17.9746 23.3322L12.0004 19.7622L6.02627 23.3343C5.8243 23.4542 5.59925 23.5154 5.3722 23.5154V23.5154ZM12.0004 18.2242C12.2275 18.2242 12.4523 18.2852 12.6545 18.4051L18.2926 21.7773L16.8354 15.358C16.7314 14.9011 16.8865 14.4241 17.2396 14.115L22.1837 9.77898L15.6425 9.18498C15.1715 9.14194 14.7665 8.84586 14.5825 8.41188L12.0004 2.36266L9.41527 8.4128C9.23326 8.84384 8.82822 9.13993 8.35836 9.18296L1.8162 9.77697L6.76017 14.113C7.11431 14.423 7.26922 14.8991 7.1643 15.3571L5.70821 21.7762L11.3464 18.4051C11.5483 18.2852 11.7734 18.2242 12.0004 18.2242V18.2242ZM8.03535 7.82483C8.03535 7.82483 8.03535 7.82593 8.03425 7.82685L8.03535 7.82483ZM15.9635 7.8219L15.9646 7.82392C15.9646 7.82282 15.9646 7.82282 15.9635 7.8219Z" fill="#8338EC"/>
</g>
<defs>
<clipPath id="clip0">
<rect width="24" height="24" fill="white"/>
</clipPath>
</defs>
</svg>
