<svg xmlns="http://www.w3.org/2000/svg" width="24" height="24" fill="none" viewBox="0 0 24 24"><path fill="#8338EC" d="M12.8871 0.886719C8.50384 0.886719 4.63553 3.41596 2.83422 7.25015L1.58118 4.64834L0 5.40994L2.60226 10.8116L8.00393 8.20921L7.24218 6.62832L4.42822 7.98366C5.94832 4.7639 9.20145 2.64174 12.8871 2.64174C18.0474 2.64174 22.2454 6.83992 22.2454 12.0001C22.2454 17.1603 18.0474 21.3586 12.8871 21.3586C9.84867 21.3586 6.98764 19.8742 5.23424 17.388L3.79978 18.3997C5.88231 21.3513 9.27925 23.1135 12.8871 23.1135C19.0146 23.1135 23.9999 18.1281 23.9999 12.0001C23.9999 5.87214 19.0146 0.886719 12.8871 0.886719Z"/></svg>