<svg xmlns="http://www.w3.org/2000/svg" width="24" height="27" fill="none" viewBox="0 0 24 27"><path fill="#8338EC" d="M4.941 22.8469C1.836 20.6059 0 16.9609 0 13.1539C0 6.56593 5.373 1.19293 11.961 1.19293V0.139929C11.961 0.0319291 12.096 -0.0490709 12.177 0.0319291L14.985 1.97593C15.066 2.02993 15.066 2.13793 14.985 2.19193L12.177 4.13593C12.096 4.18993 11.961 4.13593 11.961 4.02793V2.97493C6.345 2.97493 1.782 7.53793 1.782 13.1539C1.782 16.3939 3.348 19.4989 5.994 21.3889L4.941 22.8469ZM18.981 3.46093L17.928 4.89193C20.574 6.80893 22.14 9.91393 22.14 13.1539C22.14 18.7699 17.577 23.3329 11.961 23.3329V22.2799C11.961 22.1719 11.826 22.0909 11.745 22.1719L8.937 24.1159C8.856 24.1699 8.856 24.2779 8.937 24.3319L11.745 26.2759C11.826 26.3299 11.961 26.2759 11.961 26.1679V25.1149C18.549 25.1149 23.922 19.7419 23.922 13.1539C23.922 9.34693 22.086 5.70193 18.981 3.46093ZM6.129 17.2849L6.939 16.1509C6.642 15.6649 6.453 15.1789 6.318 14.6659L4.914 14.4229C4.644 14.3689 4.455 14.1529 4.455 13.9099V13.2079V12.5059C4.455 12.2359 4.644 12.0199 4.914 11.9659L6.291 11.7499C6.426 11.2369 6.615 10.7239 6.912 10.2379L6.075 9.07693C5.913 8.86093 5.94 8.56393 6.129 8.37493L6.615 7.88893L7.101 7.40293C7.29 7.21393 7.587 7.18693 7.803 7.34893L8.937 8.15893C9.423 7.86193 9.936 7.64593 10.476 7.51093L10.719 6.10693C10.773 5.83693 10.989 5.64793 11.232 5.64793H11.934H12.636C12.906 5.64793 13.122 5.83693 13.176 6.10693L13.419 7.51093C13.932 7.64593 14.445 7.86193 14.931 8.13193L16.092 7.32193C16.308 7.18693 16.578 7.18693 16.767 7.37593L17.253 7.86193L17.739 8.34793C17.928 8.53693 17.955 8.83393 17.793 9.04993L16.983 10.2109C17.253 10.6969 17.469 11.1829 17.604 11.7229L19.008 11.9659C19.278 12.0199 19.467 12.2359 19.467 12.4789V13.1809V13.8829C19.467 14.1529 19.278 14.3689 19.008 14.4229L17.631 14.6119C17.496 15.1249 17.28 15.6379 17.01 16.1239L17.82 17.2849C17.982 17.5009 17.955 17.7979 17.766 17.9869L17.28 18.4729L16.794 18.9589C16.605 19.1479 16.308 19.1749 16.092 19.0129L14.931 18.2029C14.472 18.4729 13.959 18.6889 13.473 18.8239L13.23 20.2279C13.176 20.4979 12.96 20.6869 12.717 20.6869H12.015H11.313C11.043 20.6869 10.827 20.4979 10.773 20.2279L10.557 18.8239C10.044 18.6889 9.531 18.4999 9.045 18.2029L7.884 19.0399C7.668 19.2019 7.371 19.1749 7.182 18.9859L6.696 18.4999L6.21 18.0139C6.021 17.7979 5.994 17.5009 6.129 17.2849ZM9.774 13.5049L11.826 16.0159C11.907 16.0969 12.015 16.0969 12.096 16.0159L14.148 13.5049C14.229 13.4239 14.148 13.2889 14.04 13.2889H12.96V10.4539C12.96 10.3189 12.852 10.2379 12.744 10.2379H11.151C11.016 10.2379 10.935 10.3459 10.935 10.4539V13.2619H9.855C9.747 13.2619 9.693 13.3969 9.774 13.5049Z"/></svg>