<svg xmlns="http://www.w3.org/2000/svg" width="24" height="24" fill="none" viewBox="0 0 24 24"><path fill="#8338EC" d="M10.9218 0.0513846C7.18589 0.459197 4.04527 2.34826 2.01558 5.39513C-0.117232 8.61076 -0.576607 12.5717 0.773393 16.1951C1.37339 17.8123 2.52183 19.5326 3.78746 20.7139C5.79371 22.5889 8.20777 23.6764 10.9875 23.9483C13.4765 24.1967 16.3406 23.4748 18.4921 22.0686C19.9218 21.1358 21.014 20.0529 21.9796 18.6045C24.6234 14.6483 24.6609 9.53888 22.0781 5.53107C20.175 2.57795 17.2312 0.67951 13.7343 0.140447C13.0078 0.0279471 11.55 -0.0189279 10.9218 0.0513846ZM10.1203 1.97795C10.0875 2.03888 9.93277 2.2967 9.77339 2.55451C9.15464 3.55295 8.54996 4.76232 8.10933 5.88263C7.99683 6.16388 7.89371 6.41232 7.87496 6.43576C7.81871 6.50138 6.38902 6.13576 5.55464 5.84513C5.25933 5.74201 4.34527 5.36701 4.24683 5.31076C4.22808 5.2967 4.38746 5.10451 4.59839 4.88888C5.69058 3.78732 6.88121 2.98576 8.24996 2.4467C8.76558 2.24513 9.68902 1.96388 10.0312 1.90763C10.0968 1.89826 10.1531 1.8842 10.1625 1.87951C10.1671 1.87951 10.1484 1.9217 10.1203 1.97795ZM14.6015 2.05763C15.9609 2.41857 17.2968 3.09357 18.4218 3.98888C18.8906 4.36388 19.8093 5.27326 19.7531 5.31076C19.5093 5.45607 18.1781 5.95295 17.55 6.13576C17.2921 6.21076 16.2046 6.46857 16.1484 6.46857C16.139 6.46857 16.0218 6.18732 15.8859 5.84513C15.4265 4.69201 14.7703 3.38888 14.1562 2.41857C14.0015 2.17482 13.875 1.9592 13.875 1.94513C13.875 1.89357 14.1093 1.92638 14.6015 2.05763ZM12.3843 2.84982C12.9 3.63732 13.3312 4.39201 13.65 5.06232C13.964 5.71857 14.4 6.71232 14.3812 6.72638C14.3296 6.76388 12.7453 6.84357 12 6.84357C10.9125 6.84357 9.6562 6.7592 9.6562 6.6842C9.6562 6.50607 10.5 4.72482 10.9687 3.91388C11.2687 3.39357 11.9671 2.2967 12 2.2967C12.014 2.2967 12.1875 2.54513 12.3843 2.84982ZM3.68433 6.91857C4.66871 7.37795 5.71871 7.73888 6.81089 7.99201C7.32652 8.1092 7.36871 8.12795 7.34527 8.2217C7.13902 9.12638 7.01246 9.91857 6.91402 10.8842L6.88589 11.1561H4.33121H1.78121V11.0014C1.78121 10.7717 1.91246 10.0123 2.03902 9.51076C2.17964 8.95295 2.35308 8.4467 2.58277 7.90763C2.74683 7.52326 3.17339 6.70295 3.20621 6.70295C3.21558 6.70295 3.43121 6.80138 3.68433 6.91857ZM21.1968 7.44826C21.7171 8.47951 22.0781 9.66545 22.2093 10.7717C22.2328 10.9592 22.2375 11.1186 22.2281 11.1326C22.214 11.1467 21.0609 11.1561 19.6593 11.1561H17.1187L17.0859 10.8139C17.0156 10.0076 16.8328 8.90138 16.664 8.24513C16.6312 8.11857 16.6359 8.11857 17.0953 8.01545C18.1406 7.78107 19.4015 7.35451 20.264 6.94201C20.5265 6.81545 20.7656 6.71701 20.789 6.7217C20.8171 6.72638 21 7.05451 21.1968 7.44826ZM10.0546 8.49357C10.9406 8.57326 13.2656 8.5592 14.175 8.46545C14.5875 8.42326 14.925 8.39513 14.9343 8.40451C14.939 8.4092 15 8.65295 15.0656 8.94357C15.2109 9.55295 15.375 10.6076 15.375 10.9311V11.1561H11.9953H8.61089L8.64371 10.7811C8.69527 10.1576 8.93902 8.83576 9.07027 8.4467C9.08433 8.4092 9.14996 8.39513 9.26714 8.41388C9.36558 8.42326 9.72183 8.46076 10.0546 8.49357ZM6.91402 13.1108C7.01246 14.0811 7.13902 14.8733 7.34527 15.7779C7.36871 15.8717 7.32652 15.8904 6.81089 16.0076C5.71871 16.2608 4.66871 16.6217 3.67964 17.0811C3.12652 17.3389 3.22027 17.3998 2.78902 16.5233C2.25464 15.4217 1.89371 14.217 1.79996 13.1811L1.76714 12.8436H4.32652H6.88589L6.91402 13.1108ZM15.3609 13.2514C15.3281 13.6967 15.1968 14.4795 15.0375 15.1779L14.9343 15.6139L14.7703 15.5904C13.7671 15.4404 11.0578 15.4076 9.82027 15.5295C9.43589 15.567 9.10308 15.5858 9.08902 15.567C8.99527 15.4733 8.70464 13.9404 8.64371 13.2279L8.61089 12.8436H12H15.389L15.3609 13.2514ZM22.2281 12.867C22.3125 12.9514 22.0265 14.3904 21.7687 15.1873C21.5859 15.7451 21.0234 16.9873 20.85 17.217C20.789 17.2967 20.7562 17.2873 20.2734 17.0576C19.3453 16.6264 18.1031 16.2045 17.0953 15.9842C16.664 15.8858 16.6359 15.8717 16.6593 15.7779C16.8 15.2811 17.0156 13.9873 17.0859 13.1811L17.1187 12.8436H19.6593C21.0609 12.8436 22.214 12.8529 22.2281 12.867ZM13.664 17.2076C14.0531 17.2404 14.3718 17.2686 14.3765 17.2733C14.4328 17.3108 13.439 19.3967 12.9843 20.1795C12.7125 20.6576 12.0375 21.7029 12 21.7029C11.9625 21.7029 11.2921 20.6576 10.9828 20.1092C10.4718 19.2186 9.6562 17.4983 9.6562 17.3154C9.6562 17.1795 12.3656 17.1092 13.664 17.2076ZM8.19839 18.3279C8.72808 19.6123 9.11245 20.3764 9.79683 21.492C9.97027 21.7733 10.125 22.0311 10.139 22.0592C10.2093 22.1858 9.07027 21.8811 8.25464 21.5529C6.89058 21.0139 5.70933 20.2311 4.66871 19.1764C4.21402 18.7217 4.20464 18.7076 4.31714 18.6608C4.37808 18.6373 4.55621 18.5623 4.71089 18.492C5.11402 18.3092 5.90621 18.0279 6.42183 17.8779C6.91871 17.7373 7.78121 17.5358 7.84214 17.5498C7.86558 17.5545 8.02496 17.9061 8.19839 18.3279ZM16.6875 17.6483C17.3156 17.7889 17.7234 17.9061 18.3421 18.1217C18.7406 18.2576 19.6359 18.6233 19.7531 18.6889C19.8046 18.7217 19.064 19.4717 18.5484 19.9029C17.4796 20.8029 16.1625 21.4967 14.7703 21.8904C14.4984 21.9654 14.1703 22.0498 14.0484 22.0733C13.8281 22.1108 13.8234 22.1108 13.889 22.0123C14.55 21.0092 15.4406 19.2842 15.8906 18.1498C16.0265 17.8123 16.139 17.5311 16.1484 17.5311C16.1531 17.5311 16.3968 17.5826 16.6875 17.6483Z"/></svg>