<svg xmlns="http://www.w3.org/2000/svg" width="24" height="24" fill="none" viewBox="0 0 24 24"><path fill="#8338EC" d="M21.4272 0H10.2844C8.86421 0 7.71294 1.15127 7.71294 2.57143V7.71428C7.71294 8.18768 8.0967 8.57144 8.5701 8.57144C9.0435 8.57144 9.42726 8.18768 9.42726 7.71428V2.57143C9.42726 2.09802 9.81101 1.71427 10.2844 1.71427H21.4273C21.9007 1.71427 22.2844 2.09802 22.2844 2.57143V21.4286C22.2844 21.902 21.9007 22.2857 21.4273 22.2857H10.2844C9.81096 22.2857 9.42721 21.902 9.42721 21.4286V16.2857C9.42721 15.8123 9.04345 15.4286 8.57005 15.4286C8.09665 15.4286 7.71289 15.8123 7.71289 16.2857V21.4286C7.71289 22.8487 8.86416 24 10.2843 24H21.4272C22.8473 24 23.9986 22.8487 23.9986 21.4286V2.57143C23.9987 1.15127 22.8474 0 21.4272 0Z"/><path fill="#8338EC" d="M17.1418 11.1428H2.92527L5.74787 8.32024C6.07673 7.97973 6.06729 7.43712 5.72677 7.10826C5.3946 6.78748 4.86801 6.78748 4.53588 7.10826L0.250137 11.3939C0.170533 11.4736 0.107603 11.5683 0.0650139 11.6725C-0.0216713 11.8822 -0.0216713 12.1177 0.0650139 12.3274C0.107804 12.432 0.171035 12.527 0.25099 12.6068L4.53669 16.8925C4.86555 17.233 5.40816 17.2425 5.74867 16.9136C6.08918 16.5848 6.09863 16.0421 5.76976 15.7016C5.76288 15.6945 5.75585 15.6875 5.74867 15.6805L2.92527 12.8571H17.1418C17.6153 12.8571 17.999 12.4733 17.999 11.9999C17.999 11.5265 17.6152 11.1428 17.1418 11.1428Z"/></svg>