<svg xmlns="http://www.w3.org/2000/svg" width="24" height="24" fill="none" viewBox="0 0 24 24"><g clip-path="url(#clip0_304:122)"><path fill="#8338EC" d="M23.3472 20.5965L20.0207 17.27V-0.000976562H3.47419V3.92544L0.0703125 4.87331L3.47419 17.0972V20.9359H4.54314L5.3895 23.9753L16.3045 20.9359H18.0476L20.5278 23.416C20.9164 23.8047 21.427 23.999 21.9375 23.999C22.4481 23.999 22.9586 23.8047 23.3473 23.416C24.1245 22.6387 24.1245 21.3738 23.3472 20.5965V20.5965ZM1.80356 5.85149L3.47414 5.38628V11.8509L1.80356 5.85149ZM6.36768 22.242L6.00398 20.9359H11.0582L6.36768 22.242ZM4.88151 19.5285V1.40634H18.6134V15.8627L16.3069 13.5562H16.6432V12.1489H14.8996L13.3984 10.6477H16.6432V9.2404H10.7237L8.25451 8.32325L8.59518 9.2404H7.07345V10.6477H9.1179L9.67548 12.1489H7.07345V13.5562H10.6679L12.1691 15.0573H7.0734V16.4646H13.5763L16.6402 19.5285H4.88151ZM11.1329 12.0309L10.6429 10.7116L11.9622 11.2016L20.9424 20.1819L20.5277 20.5965L20.1131 21.0112L11.1329 12.0309ZM22.3521 22.4209C22.1234 22.6495 21.7515 22.6495 21.5228 22.4209L21.1082 22.0063L21.5228 21.5916L21.9375 21.177L22.3521 21.5916C22.5808 21.8203 22.5808 22.1923 22.3521 22.4209Z"/><path fill="#8338EC" d="M7.16602 3.42346H12.4669V4.83078H7.16602V3.42346Z"/><path fill="#8338EC" d="M7.16602 6.33191H16.642V7.73923H7.16602V6.33191Z"/></g><defs><clipPath id="clip0_304:122"><rect width="24" height="24" fill="#fff" transform="translate(0 -0.000976562)"/></clipPath></defs></svg>