<svg width="24" height="25" viewBox="0 0 24 25" fill="none" xmlns="http://www.w3.org/2000/svg">
<g clip-path="url(#clip0_304:143)">
<path d="M20.9319 4.46834L17.7407 1.14134C17.4751 0.864454 17.1027 0.705688 16.7191 0.705688H4.09154C3.31094 0.705688 2.67578 1.34075 2.67578 2.1214V23.2899C2.67578 24.0706 3.31089 24.7057 4.09154 24.7057H19.9102C20.6908 24.7057 21.326 24.0706 21.326 23.2899V5.44835C21.3259 5.08137 21.186 4.73332 20.9319 4.46834ZM17.1484 2.55678L19.5148 5.02399H17.1484V2.55678ZM19.9187 23.2899C19.9186 23.2946 19.9148 23.2984 19.9102 23.2984H4.09154C4.08686 23.2984 4.08306 23.2946 4.08306 23.2899V2.1214C4.08306 2.11676 4.08686 2.11297 4.09154 2.11297H15.7412V5.70705C15.7412 5.71048 15.7412 5.7139 15.7413 5.71732C15.7412 5.72074 15.7412 5.72416 15.7412 5.72759C15.7412 6.11618 16.0562 6.43122 16.4448 6.43122H19.9187V23.2899H19.9187Z" fill="#8338EC"/>
<path d="M9.64736 10.3752L10.3016 9.72089C10.5764 9.44615 10.5764 9.00061 10.3016 8.72583C10.0269 8.45109 9.58136 8.45109 9.30658 8.72583L8.6523 9.38011L7.99802 8.72583C7.72329 8.45109 7.27774 8.45109 7.00296 8.72583C6.72818 9.00056 6.72818 9.44611 7.00296 9.72089L7.65724 10.3752L7.00296 11.0294C6.72823 11.3042 6.72823 11.7498 7.00305 12.0245C7.14045 12.1619 7.32054 12.2306 7.50059 12.2306C7.68063 12.2306 7.86077 12.1619 7.99812 12.0245L8.6524 11.3702L9.30668 12.0245C9.44407 12.1619 9.62416 12.2306 9.80421 12.2306C9.98425 12.2306 10.1644 12.1619 10.3017 12.0245C10.5765 11.7498 10.5765 11.3042 10.3017 11.0294L9.64736 10.3752Z" fill="#8338EC"/>
<path d="M17.277 8.72586C17.0023 8.45108 16.5567 8.45108 16.282 8.72586L14.4752 10.5326L13.8203 9.87767C13.5456 9.60284 13.1 9.60294 12.8252 9.87767C12.5504 10.1525 12.5504 10.598 12.8252 10.8727L13.9771 12.0245C14.1145 12.162 14.2946 12.2307 14.4746 12.2307C14.4749 12.2307 14.4751 12.2307 14.4753 12.2307C14.4755 12.2307 14.4757 12.2307 14.4759 12.2307C14.656 12.2307 14.8361 12.1619 14.9735 12.0245L17.2771 9.72092C17.5518 9.44619 17.5518 9.00069 17.277 8.72586Z" fill="#8338EC"/>
<path d="M10.1415 14.5354H7.15872C6.77012 14.5354 6.45508 14.8504 6.45508 15.239C6.45508 15.6276 6.77012 15.9427 7.15872 15.9427H10.1415C10.5301 15.9427 10.8451 15.6276 10.8451 15.239C10.8451 14.8504 10.5301 14.5354 10.1415 14.5354Z" fill="#8338EC"/>
<path d="M10.1415 16.7941H7.15872C6.77012 16.7941 6.45508 17.1091 6.45508 17.4977C6.45508 17.8863 6.77012 18.2013 7.15872 18.2013H10.1415C10.5301 18.2013 10.8451 17.8863 10.8451 17.4977C10.8451 17.1091 10.5301 16.7941 10.1415 16.7941Z" fill="#8338EC"/>
<path d="M10.1415 19.1127H7.15872C6.77012 19.1127 6.45508 19.4277 6.45508 19.8163C6.45508 20.2049 6.77012 20.52 7.15872 20.52H10.1415C10.5301 20.52 10.8451 20.2049 10.8451 19.8163C10.8451 19.4277 10.5301 19.1127 10.1415 19.1127Z" fill="#8338EC"/>
<path d="M16.409 14.5354H13.4263C13.0377 14.5354 12.7227 14.8504 12.7227 15.239C12.7227 15.6276 13.0377 15.9427 13.4263 15.9427H16.409C16.7976 15.9427 17.1127 15.6276 17.1127 15.239C17.1127 14.8504 16.7976 14.5354 16.409 14.5354Z" fill="#8338EC"/>
<path d="M16.409 16.7941H13.4263C13.0377 16.7941 12.7227 17.1091 12.7227 17.4977C12.7227 17.8863 13.0377 18.2013 13.4263 18.2013H16.409C16.7976 18.2013 17.1127 17.8863 17.1127 17.4977C17.1127 17.1091 16.7976 16.7941 16.409 16.7941Z" fill="#8338EC"/>
</g>
<defs>
<clipPath id="clip0_304:143">
<rect width="24" height="24" fill="white" transform="translate(0 0.705688)"/>
</clipPath>
</defs>
</svg>
