<svg width="24" height="24" viewBox="0 0 24 24" fill="none" xmlns="http://www.w3.org/2000/svg">
<g clip-path="url(#clip0_304:135)">
<path d="M22.9088 12.0997V8.72652C22.9088 7.58273 22.0216 6.65252 20.9006 6.56232L17.7681 1.09081C17.4778 0.584778 17.009 0.223096 16.4481 0.0729109C15.8899 -0.0762514 15.3061 0.00208825 14.8064 0.292896L4.06783 6.54473H2.1818C0.978529 6.54473 0 7.5232 0 8.72652V21.8172C0 23.0205 0.978478 23.999 2.1818 23.999H20.727C21.9302 23.999 22.9088 23.0205 22.9088 21.8172V18.4441C23.5423 18.2181 23.9996 17.6184 23.9996 16.9082V13.6355C23.9996 12.9254 23.5423 12.3256 22.9088 12.0997ZM19.633 6.54473H14.8789L18.4445 4.46883L19.633 6.54473ZM17.9025 3.52216L12.7108 6.54473H10.5573L17.3641 2.58172L17.9025 3.52216ZM15.3556 1.23568C15.6022 1.09133 15.8904 1.05297 16.1658 1.12651C16.4444 1.20106 16.6766 1.38111 16.821 1.63306L16.8221 1.63505L8.38935 6.54473H6.23598L15.3556 1.23568ZM21.8178 21.8172C21.8178 22.4186 21.3283 22.9081 20.727 22.9081H2.1818C1.58045 22.9081 1.09093 22.4186 1.09093 21.8172V8.72652C1.09093 8.12517 1.58045 7.63565 2.1818 7.63565H20.727C21.3283 7.63565 21.8178 8.12517 21.8178 8.72652V11.9992H18.5452C16.7405 11.9992 15.2725 13.4672 15.2725 15.2719C15.2725 17.0765 16.7405 18.5445 18.5452 18.5445H21.8178V21.8172V21.8172ZM22.9088 16.9082C22.9088 17.2091 22.6643 17.4537 22.3633 17.4537H18.5452C17.3419 17.4537 16.3634 16.4752 16.3634 15.2719C16.3634 14.0686 17.3418 13.0901 18.5452 13.0901H22.3633C22.6642 13.0901 22.9088 13.3346 22.9088 13.6355V16.9082V16.9082Z" fill="#8338EC"/>
<path d="M18.546 14.181C17.9446 14.181 17.4551 14.6706 17.4551 15.2719C17.4551 15.8733 17.9446 16.3628 18.546 16.3628C19.1473 16.3628 19.6368 15.8733 19.6368 15.2719C19.6369 14.6706 19.1474 14.181 18.546 14.181Z" fill="#8338EC"/>
</g>
<defs>
<clipPath id="clip0_304:135">
<rect width="24" height="24" fill="white" transform="translate(0 -0.000976562)"/>
</clipPath>
</defs>
</svg>
