<svg xmlns="http://www.w3.org/2000/svg" width="221" height="221" fill="none" viewBox="0 0 221 221"><path fill="#000" d="M110.2 6.59998C125.4 6.59998 139.267 9.26665 151.8 14.6C164.6 19.6667 175.533 26.8667 184.6 36.2C193.933 45.2667 201.133 56.2 206.2 69C211.533 81.8 214.2 95.8 214.2 111C214.2 126.2 211.533 140.2 206.2 153C201.133 165.8 193.933 176.867 184.6 186.2C175.533 195.267 164.6 202.467 151.8 207.8C139.267 212.867 125.4 215.4 110.2 215.4C95 215.4 81 212.867 68.2 207.8C55.6667 202.467 44.7333 195.267 35.4 186.2C26.3333 176.867 19.1333 165.8 13.8 153C8.73333 140.2 6.2 126.2 6.2 111C6.2 95.8 8.73333 81.8 13.8 69C19.1333 56.2 26.3333 45.2667 35.4 36.2C44.7333 26.8667 55.6667 19.6667 68.2 14.6C81 9.26665 95 6.59998 110.2 6.59998ZM110.2 167C116.867 167 123.267 165.8 129.4 163.4C135.8 160.733 141.4 157 146.2 152.2C151 147.4 154.733 141.533 157.4 134.6C160.333 127.667 161.8 119.8 161.8 111C161.8 102.2 160.333 94.3333 157.4 87.4C154.733 80.4667 151 74.6 146.2 69.8C141.4 65 135.8 61.4 129.4 59C123.267 56.3333 116.867 55 110.2 55C103.267 55 96.7333 56.3333 90.6 59C84.4667 61.4 79 65 74.2 69.8C69.4 74.6 65.5333 80.4667 62.6 87.4C59.9333 94.3333 58.6 102.2 58.6 111C58.6 119.8 59.9333 127.667 62.6 134.6C65.5333 141.533 69.4 147.4 74.2 152.2C79 157 84.4667 160.733 90.6 163.4C96.7333 165.8 103.267 167 110.2 167Z"/><circle cx="189" cy="190" r="27" fill="#7105EC"/><circle cx="189" cy="190" r="27" stroke="#000"/></svg>