<svg width="427" height="116" viewBox="0 0 427 116" fill="none" xmlns="http://www.w3.org/2000/svg">
<path d="M27.648 43.424C31.296 43.424 34.624 44.064 37.632 45.344C40.704 46.56 43.328 48.288 45.504 50.528C47.744 52.704 49.472 55.328 50.688 58.4C51.968 61.472 52.608 64.832 52.608 68.48C52.608 72.128 51.968 75.488 50.688 78.56C49.472 81.632 47.744 84.288 45.504 86.528C43.328 88.704 40.704 90.432 37.632 91.712C34.624 92.928 31.296 93.536 27.648 93.536C24 93.536 20.64 92.928 17.568 91.712C14.56 90.432 11.936 88.704 9.696 86.528C7.52 84.288 5.792 81.632 4.512 78.56C3.296 75.488 2.688 72.128 2.688 68.48C2.688 64.832 3.296 61.472 4.512 58.4C5.792 55.328 7.52 52.704 9.696 50.528C11.936 48.288 14.56 46.56 17.568 45.344C20.64 44.064 24 43.424 27.648 43.424ZM27.648 81.92C29.248 81.92 30.784 81.632 32.256 81.056C33.792 80.416 35.136 79.52 36.288 78.368C37.44 77.216 38.336 75.808 38.976 74.144C39.68 72.48 40.032 70.592 40.032 68.48C40.032 66.368 39.68 64.48 38.976 62.816C38.336 61.152 37.44 59.744 36.288 58.592C35.136 57.44 33.792 56.576 32.256 56C30.784 55.36 29.248 55.04 27.648 55.04C25.984 55.04 24.416 55.36 22.944 56C21.472 56.576 20.16 57.44 19.008 58.592C17.856 59.744 16.928 61.152 16.224 62.816C15.584 64.48 15.264 66.368 15.264 68.48C15.264 70.592 15.584 72.48 16.224 74.144C16.928 75.808 17.856 77.216 19.008 78.368C20.16 79.52 21.472 80.416 22.944 81.056C24.416 81.632 25.984 81.92 27.648 81.92ZM66.759 51.104H67.527C68.999 48.736 70.983 46.88 73.479 45.536C75.975 44.128 78.823 43.424 82.023 43.424C84.967 43.424 87.559 43.904 89.799 44.864C92.039 45.824 93.863 47.2 95.271 48.992C96.743 50.72 97.831 52.832 98.535 55.328C99.303 57.76 99.687 60.48 99.687 63.488V92H87.111V65.024C87.111 61.632 86.343 59.136 84.807 57.536C83.335 55.872 81.159 55.04 78.279 55.04C76.551 55.04 75.015 55.424 73.671 56.192C72.391 56.896 71.271 57.888 70.311 59.168C69.415 60.384 68.711 61.856 68.199 63.584C67.751 65.248 67.527 67.04 67.527 68.96V92H54.951V44.96H66.759V51.104ZM149.82 80.672C147.644 84.512 144.7 87.616 140.988 89.984C137.34 92.352 132.86 93.536 127.548 93.536C123.964 93.536 120.636 92.928 117.564 91.712C114.556 90.432 111.932 88.672 109.692 86.432C107.452 84.192 105.692 81.568 104.412 78.56C103.196 75.488 102.588 72.128 102.588 68.48C102.588 65.088 103.196 61.888 104.412 58.88C105.628 55.808 107.324 53.152 109.5 50.912C111.676 48.608 114.236 46.784 117.18 45.44C120.188 44.096 123.484 43.424 127.068 43.424C130.844 43.424 134.204 44.064 137.148 45.344C140.092 46.56 142.556 48.288 144.54 50.528C146.524 52.704 148.028 55.296 149.052 58.304C150.076 61.312 150.588 64.576 150.588 68.096C150.588 68.544 150.588 68.928 150.588 69.248C150.524 69.632 150.492 69.984 150.492 70.304C150.428 70.624 150.396 70.976 150.396 71.36H114.972C115.228 73.28 115.74 74.944 116.508 76.352C117.34 77.696 118.332 78.848 119.484 79.808C120.7 80.704 122.012 81.376 123.42 81.824C124.828 82.208 126.268 82.4 127.74 82.4C130.62 82.4 132.988 81.76 134.844 80.48C136.764 79.136 138.268 77.472 139.356 75.488L149.82 80.672ZM138.396 62.432C138.332 61.6 138.044 60.672 137.532 59.648C137.084 58.624 136.38 57.664 135.42 56.768C134.524 55.872 133.372 55.136 131.964 54.56C130.62 53.984 128.988 53.696 127.068 53.696C124.38 53.696 122.012 54.464 119.964 56C117.916 57.536 116.476 59.68 115.644 62.432H138.396ZM198.929 80C196.881 83.968 194.001 87.232 190.289 89.792C186.641 92.288 182.065 93.536 176.561 93.536C172.913 93.536 169.553 92.928 166.481 91.712C163.473 90.432 160.849 88.672 158.609 86.432C156.433 84.192 154.705 81.568 153.425 78.56C152.209 75.488 151.601 72.128 151.601 68.48C151.601 64.832 152.209 61.472 153.425 58.4C154.705 55.328 156.433 52.704 158.609 50.528C160.849 48.288 163.473 46.56 166.481 45.344C169.553 44.064 172.913 43.424 176.561 43.424C182.001 43.424 186.577 44.672 190.289 47.168C194.001 49.664 196.721 52.896 198.449 56.864L186.929 61.664C185.841 59.488 184.433 57.856 182.705 56.768C181.041 55.616 178.929 55.04 176.369 55.04C174.705 55.04 173.137 55.36 171.665 56C170.193 56.64 168.881 57.536 167.729 58.688C166.641 59.84 165.777 61.248 165.137 62.912C164.497 64.576 164.177 66.432 164.177 68.48C164.177 70.528 164.497 72.384 165.137 74.048C165.777 75.712 166.641 77.12 167.729 78.272C168.881 79.424 170.193 80.32 171.665 80.96C173.137 81.6 174.705 81.92 176.369 81.92C178.993 81.92 181.201 81.344 182.993 80.192C184.849 78.976 186.321 77.248 187.409 75.008L198.929 80ZM223.604 43.424C227.252 43.424 230.58 44.064 233.588 45.344C236.66 46.56 239.284 48.288 241.46 50.528C243.7 52.704 245.428 55.328 246.644 58.4C247.924 61.472 248.564 64.832 248.564 68.48C248.564 72.128 247.924 75.488 246.644 78.56C245.428 81.632 243.7 84.288 241.46 86.528C239.284 88.704 236.66 90.432 233.588 91.712C230.58 92.928 227.252 93.536 223.604 93.536C219.956 93.536 216.596 92.928 213.524 91.712C210.516 90.432 207.892 88.704 205.652 86.528C203.476 84.288 201.748 81.632 200.468 78.56C199.252 75.488 198.644 72.128 198.644 68.48C198.644 64.832 199.252 61.472 200.468 58.4C201.748 55.328 203.476 52.704 205.652 50.528C207.892 48.288 210.516 46.56 213.524 45.344C216.596 44.064 219.956 43.424 223.604 43.424ZM223.604 81.92C225.204 81.92 226.74 81.632 228.212 81.056C229.748 80.416 231.092 79.52 232.244 78.368C233.396 77.216 234.292 75.808 234.932 74.144C235.636 72.48 235.988 70.592 235.988 68.48C235.988 66.368 235.636 64.48 234.932 62.816C234.292 61.152 233.396 59.744 232.244 58.592C231.092 57.44 229.748 56.576 228.212 56C226.74 55.36 225.204 55.04 223.604 55.04C221.94 55.04 220.372 55.36 218.9 56C217.428 56.576 216.116 57.44 214.964 58.592C213.812 59.744 212.884 61.152 212.18 62.816C211.54 64.48 211.22 66.368 211.22 68.48C211.22 70.592 211.54 72.48 212.18 74.144C212.884 75.808 213.812 77.216 214.964 78.368C216.116 79.52 217.428 80.416 218.9 81.056C220.372 81.632 221.94 81.92 223.604 81.92ZM250.992 44.96H262.8V50.624H263.568C264.72 48.64 266.512 46.944 268.944 45.536C271.376 44.128 274.384 43.424 277.968 43.424C280.976 43.424 283.824 44.064 286.512 45.344C289.264 46.56 291.664 48.288 293.712 50.528C295.824 52.704 297.488 55.328 298.704 58.4C299.92 61.472 300.528 64.832 300.528 68.48C300.528 72.128 299.92 75.488 298.704 78.56C297.488 81.632 295.824 84.288 293.712 86.528C291.664 88.704 289.264 90.432 286.512 91.712C283.824 92.928 280.976 93.536 277.968 93.536C274.384 93.536 271.376 92.832 268.944 91.424C266.512 90.016 264.72 88.32 263.568 86.336H262.8L263.568 93.056V112.736H250.992V44.96ZM275.376 81.92C277.04 81.92 278.608 81.6 280.08 80.96C281.616 80.32 282.96 79.424 284.112 78.272C285.264 77.12 286.192 75.712 286.896 74.048C287.6 72.384 287.952 70.528 287.952 68.48C287.952 66.432 287.6 64.576 286.896 62.912C286.192 61.248 285.264 59.84 284.112 58.688C282.96 57.536 281.616 56.64 280.08 56C278.608 55.36 277.04 55.04 275.376 55.04C273.712 55.04 272.112 55.36 270.576 56C269.104 56.576 267.792 57.44 266.64 58.592C265.488 59.744 264.56 61.152 263.856 62.816C263.152 64.48 262.8 66.368 262.8 68.48C262.8 70.592 263.152 72.48 263.856 74.144C264.56 75.808 265.488 77.216 266.64 78.368C267.792 79.52 269.104 80.416 270.576 81.056C272.112 81.632 273.712 81.92 275.376 81.92ZM316.673 89.696L296.897 44.96H311.201L323.105 73.472H323.777L335.201 44.96H349.217L319.745 112.736H306.209L316.673 89.696Z" fill="black"/>
<path d="M346.96 92.576C344.656 92.576 342.672 91.776 341.008 90.176C339.408 88.512 338.608 86.528 338.608 84.224C338.608 81.92 339.408 79.968 341.008 78.368C342.672 76.768 344.656 75.968 346.96 75.968C349.264 75.968 351.216 76.768 352.816 78.368C354.416 79.968 355.216 81.92 355.216 84.224C355.216 86.528 354.416 88.512 352.816 90.176C351.216 91.776 349.264 92.576 346.96 92.576ZM389.349 87.008H388.581C387.109 88.8 385.317 90.336 383.205 91.616C381.157 92.896 378.501 93.536 375.237 93.536C372.805 93.536 370.501 93.12 368.325 92.288C366.213 91.52 364.357 90.432 362.757 89.024C361.157 87.616 359.909 85.92 359.013 83.936C358.117 81.952 357.669 79.776 357.669 77.408C357.669 74.976 358.149 72.8 359.109 70.88C360.069 68.896 361.413 67.2 363.141 65.792C364.869 64.384 366.885 63.328 369.189 62.624C371.557 61.856 374.117 61.472 376.869 61.472C379.941 61.472 382.469 61.728 384.453 62.24C386.437 62.688 388.069 63.168 389.349 63.68V62.24C389.349 59.744 388.357 57.696 386.373 56.096C384.389 54.432 381.925 53.6 378.981 53.6C374.629 53.6 370.949 55.424 367.941 59.072L358.821 52.832C363.813 46.56 370.629 43.424 379.269 43.424C386.565 43.424 392.133 45.152 395.973 48.608C399.813 52 401.733 57.056 401.733 63.776V92H389.349V87.008ZM389.349 72.896C387.877 72.192 386.341 71.648 384.741 71.264C383.205 70.816 381.509 70.592 379.653 70.592C376.645 70.592 374.309 71.264 372.645 72.608C371.045 73.888 370.245 75.488 370.245 77.408C370.245 79.328 371.013 80.864 372.549 82.016C374.149 83.168 375.973 83.744 378.021 83.744C379.685 83.744 381.221 83.456 382.629 82.88C384.037 82.24 385.221 81.44 386.181 80.48C387.205 79.456 387.973 78.304 388.485 77.024C389.061 75.68 389.349 74.304 389.349 72.896ZM413.94 38.144C412.852 38.144 411.796 37.952 410.772 37.568C409.812 37.12 408.948 36.544 408.18 35.84C407.476 35.072 406.9 34.208 406.452 33.248C406.068 32.288 405.876 31.232 405.876 30.08C405.876 28.928 406.068 27.872 406.452 26.912C406.9 25.952 407.476 25.12 408.18 24.416C408.948 23.648 409.812 23.072 410.772 22.688C411.796 22.24 412.852 22.016 413.94 22.016C416.18 22.016 418.1 22.816 419.7 24.416C421.3 25.952 422.1 27.84 422.1 30.08C422.1 32.32 421.3 34.24 419.7 35.84C418.1 37.376 416.18 38.144 413.94 38.144ZM407.7 92V44.96H420.276V92H407.7Z" fill="#7105EC"/>
</svg>
